<?xml version="1.0" standalone="no"?>
<!DOCTYPE svg PUBLIC "-//W3C//DTD SVG 1.1//EN" "http://www.w3.org/Graphics/SVG/1.1/DTD/svg11.dtd" >
<svg xmlns="http://www.w3.org/2000/svg" xmlns:xlink="http://www.w3.org/1999/xlink" version="1.1">

<metadata>
Created by FontForge 20150804 at Fri Jul 15 04:10:02 2016
 By cloudconvert
Copyright
</metadata>
<defs>

  <filter id="f3" x="0" y="0" width="200%" height="200%">
    <feOffset result="offOut" in="SourceAlpha" dx="20" dy="20" />
    <feGaussianBlur result="blurOut" in="offOut" stdDeviation="10" />
    <feBlend in="SourceGraphic" in2="blurOut" mode="normal" />
  </filter>

<font id="ahn2006-M" horiz-adv-x="1024" >
  <font-face
    font-family="ahn2006-M"
    font-weight="400"
    font-stretch="normal"
    units-per-em="1024"
    panose-1="2 2 6 3 2 1 1 2 1 1"
    ascent="879"
    descent="-145"
    x-height="651"
    cap-height="783"
    bbox="0 -128 1155 925"
    underline-thickness="25"
    underline-position="-157"
    unicode-range="U+0020-FFE6"
  />
<missing-glyph
d="M102 -43v820h820v-820h-820zM154 9h717v717h-717v-717z" />
    <glyph glyph-name=".notdef"
d="M102 -43v820h820v-820h-820zM154 9h717v717h-717v-717z" />
    <glyph glyph-name="glyph1" horiz-adv-x="0"
 />
    <glyph glyph-name="glyph2"
 />
    <glyph glyph-name="space" unicode=" " horiz-adv-x="300"
 />
    <glyph glyph-name="exclam" unicode="!" horiz-adv-x="316"
d="M151 847h76v-445h-76v445zM231 237h-85v85h85v-85z" />
    <glyph glyph-name="quotedbl" unicode="&#x22;" horiz-adv-x="314"
d="M139 657h-42l-28 189h79zM239 657h-42l-10 189h80z" />
    <glyph glyph-name="numbersign" unicode="#" horiz-adv-x="559"
d="M234 639l27 96l75 -1l-26 -96l60 1l25 96h75l-26 -96h58l-21 -76h-56l-22 -76h58l-21 -77h-56l-27 -95h-74l25 95h-59l-26 -95h-75l26 95h-57l20 77h57l21 76h-57l20 76h56zM290 563l-22 -77h61l21 78z" />
    <glyph glyph-name="dollar" unicode="$" horiz-adv-x="521"
d="M209 704q-10 -11 -15 -23t-5 -25q0 -19 6.5 -31.5t19.5 -18.5q4 -2 7.5 -4t7.5 -4q4 -1 7.5 -2.5t6.5 -2.5v129q-12 -3 -20.5 -7.5t-14.5 -10.5zM244 140v80h-108v78h108v206q-5 1 -9 3t-7 4q-4 1 -8 2.5t-7 3.5q-18 6 -35 16t-31 25q-13 16 -21.5 39t-8.5 57q0 35 10 62
t31 47q17 15 38 24t48 12v68h75v-67h50v-75h-50v-156q9 -5 19.5 -10t22.5 -11q15 -8 30 -20.5t30 -30.5t23 -45.5t8 -63.5q0 -39 -13 -69t-37 -53q-18 -16 -38.5 -26.5t-44.5 -15.5v-84h-75zM346 323q18 12 27.5 28t9.5 35q0 18 -4 32t-11 24q-7 9 -19 18.5t-30 19.5v-173
q6 3 13 7t14 9z" />
    <glyph glyph-name="percent" unicode="%" horiz-adv-x="693"
d="M529 718l51 -49l-365 -416l-53 48zM239 730q24 0 44 -9t38 -26q17 -18 25.5 -38t8.5 -44q0 -25 -8.5 -45.5t-25.5 -37.5q-18 -18 -38 -26t-44 -8q-49 0 -83 34t-34 83q0 24 8 44t26 38q17 17 37.5 26t45.5 9zM239 657q-19 0 -31.5 -13t-12.5 -31q0 -19 12.5 -31.5
t31.5 -12.5q18 0 31 12.5t13 31.5q0 18 -13 31t-31 13zM517 484q24 0 45 -9t39 -26q17 -18 26 -39t9 -45q0 -25 -9 -46.5t-26 -38.5q-18 -18 -39 -26t-45 -8q-25 0 -46 8t-38 26q-18 17 -26.5 38.5t-8.5 46.5q0 24 8.5 45t26.5 39q17 17 38 26t46 9zM517 410
q-19 0 -32 -13.5t-13 -31.5q0 -19 13 -32t32 -13q18 0 31.5 13t13.5 32q0 18 -13.5 31.5t-31.5 13.5z" />
    <glyph glyph-name="ampersand" unicode="&#x26;" horiz-adv-x="634"
d="M319 741v-100h120v89h73v-89h70v-71h-70v-262l-2 -13t-11 -28q-9 -16 -28 -28.5t-54 -12.5h-83q-35 0 -53 12.5t-26 28.5q-8 15 -9.5 28t-1.5 14v261h-62q-34 0 -53 14.5t-28 32.5t-11 33.5t-2 17.5v73q0 37 14.5 58.5t32.5 32.5q17 10 32 13l15 3h43q0 -1 14.5 -2
t32.5 -11q17 -10 32 -31.5t15 -62.5zM243 641v99q0 13 -6 20t-13 11t-12.5 5l-5.5 1h-11l-6 -1t-13 -5t-12.5 -11t-5.5 -20v-62l0.5 -6t3.5 -13q4 -6 12 -12t23 -6h46zM342 299h75q18 0 21 12.5l3 12.5v248h-122v-246q0 -2 1 -6t3 -9q2 -4 6.5 -8t12.5 -4z" />
    <glyph glyph-name="quotesingle" unicode="'" horiz-adv-x="193"
d="M116 657h-38l-13 189h79z" />
    <glyph glyph-name="parenleft" unicode="(" horiz-adv-x="336"
d="M205 237q-42 66 -64 143.5t-22 161.5t21.5 161t63.5 144l61 -40q-34 -58 -52 -125.5t-18 -139.5t18.5 -140t54.5 -125z" />
    <glyph glyph-name="parenright" unicode=")" horiz-adv-x="364"
d="M172 238l-63 40q33 57 53 125t20 140t-18.5 139.5t-51.5 125.5l61 40q39 -67 62 -144t23 -161t-23.5 -161.5t-62.5 -143.5z" />
    <glyph glyph-name="asterisk" unicode="*" horiz-adv-x="485"
d="M204 528l-90 -2v79l89 -2l-47 74l67 41l43 -82l42 81l69 -40l-46 -74l88 2v-79l-88 2l46 -73l-69 -41l-41 81l-43 -82q-34 20 -47.5 36t-4.5 29z" />
    <glyph glyph-name="plus" unicode="+" horiz-adv-x="474"
d="M303 383v-117h-76v117h-113v73h113v115h76v-115h114v-73h-114z" />
    <glyph glyph-name="comma" unicode="," horiz-adv-x="261"
d="M129 325h84l-104 -186h-52z" />
    <glyph glyph-name="hyphen" unicode="-" horiz-adv-x="396"
d="M111 456h229v-74h-229v74z" />
    <glyph glyph-name="period" unicode="." horiz-adv-x="238"
d="M190 241h-85v85h85v-85z" />
    <glyph glyph-name="slash" unicode="/" horiz-adv-x="390"
d="M343 799l-209 -572l-62 22l209 573z" />
    <glyph glyph-name="zero" unicode="0" horiz-adv-x="416"
d="M200 234q-72 0 -107.5 51t-35.5 132v177q0 34 8 66.5t25 58.5q18 25 45.5 41t66.5 16t67 -16t45 -41q18 -26 26.5 -58.5t8.5 -66.5v-177q0 -81 -37.5 -132t-111.5 -51zM202 317q27 0 47 18.5t20 78.5v179q0 47 -18.5 72.5t-48.5 25.5t-47 -25.5t-17 -72.5v-179
q0 -60 19.5 -78.5t44.5 -18.5z" />
    <glyph glyph-name="one" unicode="1" horiz-adv-x="244"
d="M86 239v536h76v-536h-76z" />
    <glyph glyph-name="two" unicode="2" horiz-adv-x="298"
d="M104 776q75 0 114 -37.5t42 -96.5q1 -35 -6 -59t-18 -42q-12 -18 -27 -33t-30 -31q-18 -16 -30.5 -29t-21.5 -29q-8 -16 -11.5 -36.5t-3.5 -51.5l1 -14h145v-81h-215l-1 95q0 83 25.5 129t65.5 79q23 17 40 40t17 53t-24 47.5t-62 17.5h-43v79h43z" />
    <glyph glyph-name="three" unicode="3" horiz-adv-x="322"
d="M274 394q-1 -36 -12 -64.5t-32 -49.5q-21 -22 -58 -33t-89 -11h-35v79h39q53 0 79 20.5t26 60.5q0 18 -5.5 32t-16.5 24t-35 15.5t-61 5.5h-13v77h13q33 0 54 6t31 19q9 12 14 26.5t5 29.5q0 27 -21.5 45.5t-75.5 18.5h-23v79h27q92 0 131 -34t42 -106q-3 -45 -11 -69.5
t-35 -48.5q29 -15 44 -40.5t18 -81.5z" />
    <glyph glyph-name="four" unicode="4" horiz-adv-x="386"
d="M61 503v271h77v-271q0 -33 15.5 -50t46.5 -19h47v247h77v-445h-77v116h-49q-67 0 -102 36.5t-35 114.5z" />
    <glyph glyph-name="five" unicode="5" horiz-adv-x="331"
d="M279 416q0 -87 -47.5 -133.5t-134.5 -46.5h-48v85h48q45 0 73 26.5t28 65.5t-28 60t-87 21h-34v280h201v-80h-122v-115q75 -6 113 -50t38 -113z" />
    <glyph glyph-name="six" unicode="6" horiz-adv-x="376"
d="M183 575q33 0 60 -12t47 -36t30 -53.5t10 -62.5q0 -37 -10 -68t-30 -55q-20 -25 -45.5 -37.5t-57.5 -12.5q-31 0 -57.5 14t-44.5 38q-19 24 -29.5 56.5t-8.5 68.5q0 20 3 40.5t16 58.5q12 38 39 102.5t77 173.5l66 -29l-87 -190q5 2 10.5 3t11.5 1zM189 320
q30 0 50.5 24.5t20.5 64.5q0 36 -19.5 61.5t-51.5 25.5q-30 0 -50 -25.5t-20 -61.5q0 -40 20 -64.5t50 -24.5z" />
    <glyph glyph-name="seven" unicode="7" horiz-adv-x="332"
d="M211 775q45 0 62.5 -24t7.5 -72q-1 -4 -7 -25.5t-14 -54.5q-9 -33 -19.5 -74t-20.5 -83q-13 -51 -27.5 -104.5t-30.5 -110.5l-76 21l115 443h-157v84h167z" />
    <glyph glyph-name="eight" unicode="8" horiz-adv-x="406"
d="M300 526q21 -19 36 -54t15 -77q0 -70 -40.5 -115.5t-108.5 -45.5q-33 0 -59.5 11t-47.5 34t-31.5 51.5t-10.5 64.5q0 42 14.5 77t38.5 54q-21 17 -31 44t-10 64q0 63 37.5 105t98.5 42q63 0 101.5 -42t38.5 -105q0 -36 -10.5 -63t-30.5 -45zM202 707q-28 0 -45 -21.5
t-17 -53.5q0 -27 14 -50t48 -23q33 0 48.5 23t15.5 50q0 32 -16 53.5t-48 21.5zM202 313q32 0 52.5 23.5t20.5 56.5q0 36 -20 62.5t-53 26.5q-36 0 -53.5 -25t-17.5 -64q0 -33 20.5 -56.5t50.5 -23.5z" />
    <glyph glyph-name="nine" unicode="9" horiz-adv-x="400"
d="M344 604q0 -24 -3.5 -44.5t-14.5 -59.5q-6 -20 -13.5 -46t-17.5 -60q-11 -34 -24.5 -75.5t-30.5 -92.5l-70 22l61 187q-4 -1 -10 -1.5t-14 -0.5q-30 0 -54.5 11t-44.5 35q-21 23 -31 52t-10 64q-1 37 8 68.5t28 57.5q18 26 43.5 39t58.5 13t58.5 -12.5t43.5 -36.5
q18 -25 27.5 -55t9.5 -65zM142 604q0 -34 20 -56t44 -22q27 0 47 22t20 56q0 30 -18.5 54.5t-48.5 24.5q-28 0 -46 -24.5t-18 -54.5z" />
    <glyph glyph-name="colon" unicode=":" horiz-adv-x="316"
d="M231 239h-85v85h85v-85zM231 650h-85v84h85v-84z" />
    <glyph glyph-name="semicolon" unicode=";" horiz-adv-x="340"
d="M170 326h84l-104 -186h-52zM248 657h-85v85h85v-85z" />
    <glyph glyph-name="less" unicode="&#x3c;" horiz-adv-x="415"
d="M92 508l191 264h83l-188 -264l190 -269h-85z" />
    <glyph glyph-name="equal" unicode="=" horiz-adv-x="445"
d="M116 530h260v-74h-260v74zM113 383h266v-76h-266v76z" />
    <glyph glyph-name="greater" unicode="&#x3e;" horiz-adv-x="443"
d="M368 509l-191 -270h-85l190 270l-188 263h83z" />
    <glyph glyph-name="question" unicode="?" horiz-adv-x="378"
d="M168 772h-68v76h68q33 0 63 -13.5t52 -34.5q21 -22 34.5 -51.5t13.5 -62.5q0 -34 -12 -61.5t-30 -47.5q-18 -21 -40 -33t-42 -15v-126h-77v198h38q36 0 61 24.5t25 60.5t-25 61t-61 25zM212 238h-84v85h84v-85z" />
    <glyph glyph-name="at" unicode="@" horiz-adv-x="546"
d="M486 224h-170q-26 0 -39.5 10.5t-19.5 23.5q-6 14 -7 25t-1 13v128q0 44 18.5 68t40.5 35t40.5 13l18.5 2h45v119h-79l-21.5 -3t-47.5 -19t-48 -51t-23 -98v-266h-77v266q0 96 33.5 147t74.5 74q40 24 74 27.5t34 4.5h112q21 0 31.5 -12t10.5 -33v-474zM412 306v153h-48
l-6.5 -1t-13.5 -4q-7 -4 -13 -12t-6 -22v-92q0 -1 0.5 -4.5t2.5 -7.5q3 -4 7 -7t12 -3h65z" />
    <glyph glyph-name="A" unicode="A" horiz-adv-x="381"
d="M339 236h-77v258h-120q-15 0 -24 -8.5t-13 -21.5t-5 -27.5t-1 -26.5v-174h-78v184q0 51 11 86.5t45 56.5v89q0 78 33 118t99 40q59 0 94.5 -36t35.5 -122v-416zM262 660q0 29 -10.5 49.5t-43.5 20.5q-30 0 -41 -20t-11 -50v-85h106v85z" />
    <glyph glyph-name="B" unicode="B" horiz-adv-x="372"
d="M42 662q-2 24 3.5 50.5t21.5 48.5q15 23 40 37.5t63 14.5q40 0 65.5 -14.5t40.5 -37.5q15 -22 19.5 -48.5t3.5 -50.5v-89q27 -12 39.5 -48.5t12.5 -83.5v-64q0 -63 -30.5 -102.5t-101.5 -39.5h-177v427zM221 670q0 27 -10 45t-43 18q-27 0 -37.5 -19.5t-10.5 -43.5v-93
h101v93zM198 319q42 0 60 18t18 49v46q0 33 -11 48.5t-41 15.5h-104v-177h78z" />
    <glyph glyph-name="C" unicode="C" horiz-adv-x="296"
d="M278 809v-85h2.5h3.5t-2 0h-15q-45 0 -74 -10t-46 -27q-16 -17 -22.5 -40.5t-6.5 -51.5v-33.5v-39.5v-40v-31q0 -28 5.5 -52t22.5 -41q16 -18 45 -28t76 -10h17v-85h-26q-118 0 -171 58t-53 148v39v47v43.5v32.5q0 42 12.5 79.5t39.5 65.5t69.5 44.5t102.5 16.5h20z" />
    <glyph glyph-name="D" unicode="D" horiz-adv-x="367"
d="M180 809q78 0 119 -35.5t41 -116.5v-276q0 -45 -13 -73.5t-35 -44.5t-51.5 -21.5t-62.5 -5.5h-125v573h127zM262 650q0 42 -25 57.5t-64 15.5h-43v-401h48q36 0 60 17.5t24 45.5v265z" />
    <glyph glyph-name="E" unicode="E" horiz-adv-x="322"
d="M307 317v-81h-88q-84 0 -125 42t-41 115v254q0 86 40 123.5t124 37.5h83v-80h-89q-43 0 -62 -26t-19 -58v-62h168v-81h-168v-98q0 -42 24 -63t72 -23h81z" />
    <glyph glyph-name="F" unicode="F" horiz-adv-x="327"
d="M213 729q-43 0 -60 -17.5t-17 -55.5v-78h168v-80h-168v-262h-79v420q0 77 33 115t123 38h56v-80h-56z" />
    <glyph glyph-name="G" unicode="G" horiz-adv-x="379"
d="M206 584h138v-348h-102q-51 0 -86 16.5t-57 44.5t-32 65t-10 79v163q0 92 45.5 148t138.5 56h53v-80h-46q-64 -1 -88 -37.5t-24 -88.5v-158q0 -54 25 -90t88 -36h20v185h-63v81z" />
    <glyph glyph-name="H" unicode="H" horiz-adv-x="396"
d="M340 806v-570h-76v262h-130v-262h-77v570h77v-225h130v225h76z" />
    <glyph glyph-name="I" unicode="I" horiz-adv-x="204"
d="M67 236v573h75v-573h-75z" />
    <glyph glyph-name="J" unicode="J" horiz-adv-x="279"
d="M154 389v419h76v-423q0 -79 -37 -114t-121 -35h-57v80h57q41 -2 61.5 16t20.5 57z" />
    <glyph glyph-name="K" unicode="K" horiz-adv-x="386"
d="M242 578q63 -6 89 -52t26 -112v-178h-75v172q0 38 -19.5 60.5t-55.5 22.5q-37 0 -54.5 -22.5t-17.5 -60.5v-172h-78v570h76v-236l155 241l71 -42z" />
    <glyph glyph-name="L" unicode="L" horiz-adv-x="334"
d="M130 396q0 -39 21.5 -59t63.5 -20h103v-81h-103q-90 0 -126 38.5t-36 113.5v420h77v-412z" />
    <glyph glyph-name="M" unicode="M" horiz-adv-x="566"
d="M434 236v403q0 31 -11.5 58.5t-45.5 27.5t-44 -28.5t-10 -56.5v-404h-76v404q0 29 -12.5 57t-44.5 28q-36 0 -46.5 -27t-10.5 -59v-403h-79v410q0 69 31 116.5t100 47.5q41 0 65 -18t36 -41q12 23 35.5 41t61.5 18q69 0 98 -46t29 -115v-413h-76z" />
    <glyph glyph-name="N" unicode="N" horiz-adv-x="401"
d="M276 236v398q0 36 -18 63.5t-58 27.5q-34 0 -52.5 -27.5t-18.5 -63.5v-398h-76v405q0 83 42.5 124.5t105.5 41.5q64 0 106.5 -41.5t42.5 -124.5v-405h-74z" />
    <glyph glyph-name="O" unicode="O" horiz-adv-x="370"
d="M333 388q-3 -79 -40 -118t-107 -39q-75 -3 -112.5 38t-37.5 119v285q0 63 41.5 104.5t108.5 41.5q65 0 106 -41.5t41 -104.5v-285zM261 662q-3 33 -25.5 55t-49.5 22q-30 0 -53 -22t-23 -55v-274q0 -45 23 -62t53 -17q29 0 50.5 19t24.5 62v272z" />
    <glyph glyph-name="P" unicode="P" horiz-adv-x="341"
d="M316 649q-1 -51 -14 -84.5t-38 -51.5t-60.5 -26.5t-80.5 -8.5v-243h-75v573h103q86 0 125.5 -40.5t39.5 -118.5zM124 566q60 0 89.5 14.5t29.5 68.5q0 47 -31.5 62t-87.5 13v-158z" />
    <glyph glyph-name="Q" unicode="Q" horiz-adv-x="422"
d="M359 235l-63 40q-18 -24 -44 -35t-59 -11q-73 0 -110.5 43.5t-37.5 115.5v269q0 74 37 117.5t109 43.5q77 0 112.5 -43.5t35.5 -117.5v-278v-9.5v-9.5q0 -6 -0.5 -11t-1.5 -11l68 -49zM195 312q33 0 50.5 23.5t17.5 59.5v266q0 36 -17.5 55.5t-51.5 22.5
q-37 0 -54.5 -24.5t-17.5 -57.5v-264q0 -36 21 -58.5t52 -22.5z" />
    <glyph glyph-name="R" unicode="R" horiz-adv-x="386"
d="M50 647q0 84 32 122t98 38t98.5 -36.5t32.5 -123.5v-81q20 -9 32.5 -23t16.5 -32q3 -19 5.5 -38.5t2.5 -39.5v-197h-74v189q0 32 -11 50t-53 18h-101v-257h-79v411zM129 573h108v83q0 12 -2.5 24t-6.5 25q-5 12 -17 18.5t-31 6.5q-18 0 -29 -7t-14 -19q-4 -13 -6 -25
t-2 -23v-83z" />
    <glyph glyph-name="S" unicode="S" horiz-adv-x="351"
d="M185 805h80v-75h-73q-45 0 -65 -21t-20 -48q0 -19 9.5 -32.5t28.5 -22.5l38 -18t37 -18q18 -10 35 -23.5t32 -31.5t23 -45.5t8 -63.5q0 -76 -49.5 -122t-127.5 -46h-81v78h74q21 0 40.5 6t37.5 19q18 12 27.5 28t9.5 35q0 18 -4 32t-11 24q-15 20 -45 36t-56 25
q-19 7 -36.5 17t-31.5 25q-14 16 -22 39t-8 57q0 69 41.5 108.5t108.5 37.5z" />
    <glyph glyph-name="T" unicode="T" horiz-adv-x="305"
d="M194 735v-500h-77v500h-102v73h277v-73h-98z" />
    <glyph glyph-name="U" unicode="U" horiz-adv-x="370"
d="M124 808v-404q0 -18 2 -34t8 -29q5 -14 18 -20.5t35 -6.5q20 0 32.5 6.5t18.5 20.5q5 13 8 29t3 34v404h74v-408q0 -85 -33.5 -125t-102.5 -40q-70 0 -102.5 40t-32.5 125v408h72z" />
    <glyph glyph-name="V" unicode="V" horiz-adv-x="346"
d="M156 238h-95q-8 0 -9 5l-1 5v562h74v-488l20 20t24 26q9 9 19.5 25.5t23.5 38.5q12 22 18.5 41t6.5 35v302h78v-321q0 -20 -7 -43t-20 -49q-13 -27 -27 -48t-28 -36q-15 -16 -27 -29t-22 -22q-9 -10 -16.5 -16.5t-11.5 -7.5z" />
    <glyph glyph-name="W" unicode="W" horiz-adv-x="544"
d="M122 808v-390q0 -15 1 -31.5t5 -34.5q5 -18 21.5 -28t32.5 -10q19 -2 30 9.5t16 28.5q6 17 7 35t1 31v388h73v-388v-8.5v-9.5q0 -6 0.5 -11.5t1.5 -11.5q1 -13 3.5 -22t6.5 -14q8 -12 17 -18.5t28 -8.5q29 0 42 24.5t13 79.5v390h74v-401q0 -84 -30.5 -127t-98.5 -43
q-36 0 -60.5 15.5t-32.5 36.5q-9 -21 -33.5 -36.5t-57.5 -15.5q-78 0 -105 43t-27 127v401h72z" />
    <glyph glyph-name="X" unicode="X" horiz-adv-x="374"
d="M327 654q0 -27 -3 -44.5t-9 -29.5q-5 -12 -13.5 -21t-19.5 -19q30 -19 37.5 -44t7.5 -73v-188h-75v189q-3 38 -18.5 57t-44.5 19q-27 0 -42.5 -19t-18.5 -57v-189h-77v188q0 48 10 73t37 44q-12 10 -20.5 19t-14.5 21t-9 29.5t-3 44.5v157h77v-164q3 -36 17.5 -54
t41.5 -18q33 0 49 18.5t16 57.5v160h75v-157z" />
    <glyph glyph-name="Y" unicode="Y" horiz-adv-x="362"
d="M321 807v-159q0 -72 -24 -106t-78 -45v-260h-77v260q-54 11 -78.5 45t-24.5 106v159h76v-168q0 -34 17 -49.5t51 -15.5q33 0 47.5 16t14.5 49v168h76z" />
    <glyph glyph-name="Z" unicode="Z" horiz-adv-x="333"
d="M37 399q4 7 13 22t21 34q11 20 25 42t29 45t29 45.5t29 45.5q14 22 23 37t13 24q10 16 9.5 25.5t-12.5 12.5t-29 4t-39 1h-84v71h131q87 0 107.5 -35.5t-17.5 -107.5q-9 -18 -32 -57t-50 -81q-14 -21 -27 -42t-24 -39q-12 -19 -20.5 -33t-12.5 -21q-21 -33 -14.5 -55
t37.5 -22h168v-77h-175q-46 0 -73.5 14.5t-38.5 37.5q-11 24 -7 52.5t21 56.5z" />
    <glyph glyph-name="bracketleft" unicode="[" horiz-adv-x="348"
d="M120 238v610h180v-74h-99v-461h99v-75h-180z" />
    <glyph glyph-name="backslash" unicode="\" horiz-adv-x="400"
d="M82 798l62 23l209 -573l-62 -22z" />
    <glyph glyph-name="bracketright" unicode="]" horiz-adv-x="375"
d="M269 238h-180v75h99v461h-99v74h180v-610z" />
    <glyph glyph-name="asciicircum" unicode="^" horiz-adv-x="386"
d="M179 846h74l115 -237l-67 -30l-86 181l-86 -180l-67 29z" />
    <glyph glyph-name="underscore" unicode="_" horiz-adv-x="476"
d="M95 239h342v-75h-342v75z" />
    <glyph glyph-name="grave" unicode="`" horiz-adv-x="261"
d="M141 847l72 -188h-51l-105 188h84z" />
    <glyph glyph-name="a" unicode="a" horiz-adv-x="376"
d="M171 656q81 0 119 -32.5t38 -119.5v-266h-125q-45 0 -77 11t-51 34q-20 22 -28 47.5t-5 55.5q6 72 52 98t116 26h39q0 42 -27 54t-65 12h-52v80h66zM251 318v112h-48q-30 0 -56 -11t-29 -35q-3 -19 4 -32.5t22 -19.5q15 -7 29.5 -10.5t27.5 -3.5h50z" />
    <glyph glyph-name="b" unicode="b" horiz-adv-x="396"
d="M170 655q42 0 75.5 -15.5t54.5 -39.5q11 -12 19.5 -30t14.5 -41q6 -24 9 -43.5t3 -36.5q0 -18 -3 -39t-8 -44q-6 -24 -14 -42t-19 -31q-21 -27 -54 -41.5t-78 -14.5h-113v611h73v-193h40zM142 318q65 -1 97.5 28.5t32.5 102.5q0 63 -32.5 95.5t-91.5 30.5h-19v-257h13z
" />
    <glyph glyph-name="c" unicode="c" horiz-adv-x="344"
d="M294 657v-80h-55q-58 2 -86 -25t-30 -99q2 -73 31 -104.5t90 -31.5h52v-80h-76q-47 0 -80.5 15.5t-53.5 48.5q-21 32 -31 69.5t-10 82.5q0 43 10.5 79t31.5 66q21 29 54 44t79 15h74z" />
    <glyph glyph-name="d" unicode="d" horiz-adv-x="386"
d="M224 652l35 3v193h78v-611h-113q-62 0 -119 53t-57 159q0 79 45 137.5t131 65.5zM252 317l8 1v257h-14q-60 2 -92 -30.5t-32 -95.5q0 -64 32 -98.5t98 -33.5z" />
    <glyph glyph-name="e" unicode="e" horiz-adv-x="405"
d="M228 309q12 -3 36 -3t60 3v-78q-33 -4 -57 -4.5t-39 2.5q-81 5 -132 63t-51 175q0 93 44.5 146.5t119.5 53.5q39 0 67.5 -14.5t47.5 -41.5q18 -28 28 -61t10 -69v-69h-237q0 -39 28.5 -69.5t74.5 -33.5zM207 591q-24 0 -40.5 -10t-25.5 -28q-9 -19 -13.5 -35.5
t-4.5 -30.5h165q0 14 -4 30.5t-12 35.5q-8 18 -24.5 28t-40.5 10z" />
    <glyph glyph-name="f" unicode="f" horiz-adv-x="323"
d="M127 657h149v-79h-149v-342h-76v450q0 81 39 122t118 41h29v-78h-29q-42 0 -61.5 -26t-19.5 -56v-32z" />
    <glyph glyph-name="g" unicode="g" horiz-adv-x="405"
d="M347 659v-463q0 -93 -36 -140.5t-108 -47.5h-48v77h48q35 6 53 33.5t20 75.5v42h-41q-49 0 -83.5 19t-54.5 43q-19 24 -32.5 66t-13.5 88q0 42 12.5 78.5t39.5 67.5q26 30 56.5 45.5t66.5 15.5h121zM270 322v249h-35q-24 1 -43 -8t-34 -27q-16 -19 -23.5 -40.5
t-7.5 -45.5q0 -55 30 -91.5t79 -36.5h34z" />
    <glyph glyph-name="h" unicode="h" horiz-adv-x="398"
d="M194 666q72 0 109 -40.5t37 -121.5v-267h-76v267q0 32 -16 54.5t-58 22.5q-33 -4 -47.5 -30t-14.5 -47v-267h-75v614h75v-216q15 15 30 21.5t36 9.5z" />
    <glyph glyph-name="i" unicode="i" horiz-adv-x="176"
d="M50 237v422h78v-422h-78zM50 850h78v-85h-78v85z" />
    <glyph glyph-name="j" unicode="j" horiz-adv-x="288"
d="M60 9v82h31q33 -3 50.5 23t18.5 83v462h79v-462q-1 -60 -10.5 -98.5t-27.5 -55.5q-18 -18 -45 -26t-63 -8h-33zM160 850h78v-85h-78v85z" />
    <glyph glyph-name="k" unicode="k" horiz-adv-x="416"
d="M258 487q54 -9 78 -46t24 -109v-95h-75v95q0 30 -16.5 52.5t-51.5 22.5q-33 0 -48.5 -24t-15.5 -51v-95h-79v611h77v-363l155 174l58 -56z" />
    <glyph glyph-name="l" unicode="l" horiz-adv-x="194"
d="M59 236v612h75v-612h-75z" />
    <glyph glyph-name="m" unicode="m" horiz-adv-x="572"
d="M386 667q63 0 97 -44t34 -128v-258h-73v258q0 39 -14.5 63.5t-47.5 24.5q-30 0 -44 -26t-14 -62v-258h-76v264q0 33 -15.5 58.5t-45.5 25.5q-31 0 -44.5 -24.5t-13.5 -65.5v-258h-75v258q0 84 33.5 128t96.5 44q39 0 65.5 -18t35.5 -38q9 21 35.5 38.5t65.5 17.5z" />
    <glyph glyph-name="n" unicode="n" horiz-adv-x="402"
d="M60 490q0 84 36 130.5t106 46.5q71 0 105.5 -46.5t34.5 -130.5v-253h-76v251q0 18 -2.5 34.5t-6.5 31.5q-5 15 -18.5 22.5t-36.5 7.5q-22 0 -36 -8t-20 -23q-6 -16 -8.5 -32t-2.5 -33v-251h-75v253z" />
    <glyph glyph-name="o" unicode="o" horiz-adv-x="424"
d="M360 413q0 -94 -38 -140.5t-113 -46.5q-78 0 -118 48.5t-40 138.5v79q0 75 41 125t119 50q36 0 63.5 -13t46.5 -38t29 -56.5t10 -67.5v-79zM285 487q0 45 -19 71.5t-60 26.5q-42 0 -62 -29.5t-20 -68.5v-79q0 -42 18.5 -73.5t63.5 -31.5q39 0 59 27.5t20 78.5v78z" />
    <glyph glyph-name="p" unicode="p" horiz-adv-x="390"
d="M151 659q50 0 84 -16.5t54 -44.5q21 -29 30 -67.5t9 -83.5q0 -39 -6 -72t-29 -66q-22 -33 -57.5 -52t-88.5 -19h-23v-228h-73v649h79h21zM149 322q45 0 74.5 30.5t29.5 91.5q0 36 -7.5 61t-21.5 38q-15 12 -33.5 18.5t-41.5 6.5h-24v-246h24z" />
    <glyph glyph-name="q" unicode="q" horiz-adv-x="384"
d="M227 659h100v-649h-73v228h-23q-54 0 -89 19t-58 52q-22 33 -28 66t-6 72q0 45 8.5 83.5t29.5 67.5q20 28 54 44.5t85 16.5zM229 322h24v246h-24q-24 0 -43 -6.5t-33 -18.5q-15 -13 -21.5 -38t-6.5 -61q0 -61 29 -91.5t75 -30.5z" />
    <glyph glyph-name="r" unicode="r" horiz-adv-x="312"
d="M50 236v243q0 90 37.5 133.5t122.5 43.5h58v-84h-56q-51 0 -68 -28.5t-17 -64.5v-243h-77z" />
    <glyph glyph-name="s" unicode="s" horiz-adv-x="353"
d="M253 663v-76h-80q-24 0 -31 -11.5t-7 -21.5q0 -18 30.5 -33.5t64.5 -38.5q35 -24 60.5 -59t15.5 -91q-11 -51 -45 -76t-88 -25h-25h-32h-27.5h-11.5v79h77q21 0 39 2.5t26 17.5q10 19 7.5 33t-13.5 26q-10 12 -27 21.5t-36 20.5q-19 10 -37.5 22.5t-33.5 28.5
q-15 15 -23.5 36t-6.5 50q3 50 41 72.5t95 22.5h68z" />
    <glyph glyph-name="t" unicode="t" horiz-adv-x="286"
d="M233 323v-84h-36q-81 0 -113.5 43.5t-32.5 137.5v388h78v-152h93v-82h-93v-146q0 -58 16 -81.5t52 -23.5h36z" />
    <glyph glyph-name="u" unicode="u" horiz-adv-x="400"
d="M347 402q0 -84 -39.5 -130t-108.5 -46t-107.5 46t-38.5 130v249h76v-247q0 -18 3 -34t9 -30q6 -15 20 -22.5t38 -8.5q45 3 59 31t14 64v247h75v-249z" />
    <glyph glyph-name="v" unicode="v" horiz-adv-x="379"
d="M130 238h-66q-8 0 -9 5l-1 5v404h78v-312q4 1 4.5 1t2.5 2t8.5 7t23.5 18q37 37 55.5 72.5t18.5 90.5v121h82v-141q0 -53 -23.5 -100t-55.5 -84q-32 -36 -65.5 -59.5t-52.5 -29.5z" />
    <glyph glyph-name="w" unicode="w" horiz-adv-x="572"
d="M519 651v-247q0 -38 -7.5 -69.5t-22.5 -56.5q-15 -26 -42 -38.5t-66 -12.5q-31 0 -51.5 11.5t-41.5 38.5q-21 -27 -42 -38.5t-56 -11.5t-61 13t-43 40q-18 26 -26 57t-8 67v247h76v-247q0 -36 15.5 -64.5t48.5 -28.5q17 1 28.5 10t17.5 25q5 15 8 30t3 28v247h76v-247
q0 -13 2.5 -27.5t7.5 -29.5q4 -15 15 -24t29 -11q32 0 48 26.5t16 65.5v247h76z" />
    <glyph glyph-name="x" unicode="x" horiz-adv-x="411"
d="M334 592q0 -24 -2.5 -42t-6.5 -30q-4 -13 -13 -28t-23 -31q24 -25 34.5 -57t10.5 -83v-85h-77v85q0 17 -3.5 33t-9.5 32q-7 15 -19.5 23.5t-30.5 8.5q-16 0 -28 -8.5t-20 -24.5t-11.5 -32.5t-3.5 -33.5v-83h-78v85q0 51 10.5 83t31.5 57q-27 30 -34.5 57.5t-7.5 73.5v59
h78v-59q0 -33 13.5 -58.5t49.5 -25.5q35 0 49 25.5t14 58.5v59h77v-59z" />
    <glyph glyph-name="y" unicode="y" horiz-adv-x="389"
d="M335 651v-459q0 -90 -31.5 -134.5t-93.5 -44.5h-57v82h46q15 0 27 4t20 13q7 8 11 27.5t4 50.5v70q-18 -21 -29.5 -25.5t-37.5 -7.5q-70 0 -104.5 45t-34.5 136v243h74v-236q0 -45 13.5 -74t49.5 -26q30 -3 49.5 26t19.5 74v236h74z" />
    <glyph glyph-name="z" unicode="z" horiz-adv-x="409"
d="M253 658q31 0 49.5 -16t24.5 -40q6 -23 1.5 -49t-19.5 -45q-13 -17 -30.5 -34.5t-35.5 -33.5q-18 -17 -34.5 -32t-26.5 -27q-9 -12 -16.5 -23.5t-9.5 -21.5t4.5 -16t24.5 -6h43h47h39h16v-78h-14h-38h-54h-64q-35 0 -55.5 17t-27.5 42t-1.5 52.5t24.5 48.5q18 20 35.5 38
t34.5 33q16 16 30 29.5t25 25.5q9 9 15 20t6 20t-7 15.5t-25 6.5h-36.5h-34.5h-26h-10v74h146z" />
    <glyph glyph-name="braceleft" unicode="{" horiz-adv-x="392"
d="M91 587h88v261h166v-74h-90v-461h90v-75q-83 0 -124.5 9t-41.5 28v237h-88v75z" />
    <glyph glyph-name="bar" unicode="|" horiz-adv-x="228"
d="M104 810h68v-572h-68v572z" />
    <glyph glyph-name="braceright" unicode="}" horiz-adv-x="421"
d="M345 587v-75h-88v-60v-92v-85q0 -19 -41.5 -28t-124.5 -9v75h90v461h-90v74h166v-261h88z" />
    <glyph glyph-name="asciitilde" unicode="~" horiz-adv-x="492"
d="M29 558q8 6 21.5 16t31.5 20q18 9 39.5 16.5t46.5 7.5q27 0 49 -12.5t41 -27.5q18 -15 35 -27t35 -12q22 0 41 8.5t34 20.5q15 11 25.5 21.5t15.5 13.5l44 -52q-7 -7 -22.5 -21.5t-36.5 -29.5q-21 -14 -46 -25t-51 -11q-32 0 -52.5 11t-37.5 25q-16 13 -31.5 26t-36.5 16
q-27 3 -56 -11.5t-50 -31.5z" />
    <glyph glyph-name="exclamdown" unicode="&#xa1;"
d="M550 238h-76v444h76v-444zM470 847h84v-85h-84v85z" />
    <glyph glyph-name="currency" unicode="&#xa4;"
d="M395 345l-79 -78l-48 49l78 78q-18 24 -27 53t-9 62t9.5 62t27.5 56l-79 79l48 49l80 -80q24 17 53.5 26.5t62.5 9.5q32 0 61.5 -9.5t54.5 -26.5l80 80l48 -49l-80 -80q17 -25 27.5 -54.5t10.5 -62.5t-10 -62t-27 -52l79 -79l-48 -49l-79 79q-25 -18 -55 -28t-62 -10
q-33 0 -63 9.5t-54 27.5zM644 509q0 27 -10.5 51.5t-28.5 42.5t-42 29t-51 11q-28 0 -52 -10t-43 -30t-28.5 -43.5t-9.5 -50.5t10 -51t28 -42t42.5 -28.5t52.5 -10.5q27 0 51 10.5t42 28.5t28.5 42t10.5 51z" />
    <glyph glyph-name="section" unicode="&#xa7;"
d="M655 89h-259v62h199v171h-188v506h221v-63h-162v-147h189v-529zM595 384v171h-129v-171h129z" />
    <glyph glyph-name="dieresis" unicode="&#xa8;"
d="M685 694q0 -18 -10 -31.5t-31 -13.5q-22 0 -32 13.5t-10 31.5q0 15 10.5 30t31.5 15t31 -15t10 -30zM417 694q0 -18 -10.5 -31.5t-30.5 -13.5q-21 0 -31.5 13.5t-10.5 31.5q0 15 10.5 30t31.5 15q20 0 30.5 -15t10.5 -30z" />
    <glyph glyph-name="ordfeminine" unicode="&#xaa;"
d="M501 833q71 0 104.5 -26.5t33.5 -100.5v-225h-110q-39 0 -67.5 9.5t-45.5 28.5q-18 19 -25 41t-4 46q6 60 46.5 82t101.5 22h35q0 36 -24 46.5t-57 10.5h-46v66h58zM571 549v94h-42q-25 0 -48.5 -9t-26.5 -29q-2 -16 4 -27t20 -17q13 -6 25 -9t24 -3h44zM331 389h389v-63
h-389v63z" />
    <glyph glyph-name="uni00AD" unicode="&#xad;"
d="M682 332h-329v50h329v-50z" />
    <glyph glyph-name="registered" unicode="&#xae;" horiz-adv-x="957"
d="M502 186q-84 0 -145 27.5t-102 75.5q-42 45 -62 104.5t-20 122.5q0 60 20 119.5t62 105.5q41 47 102 75.5t145 28.5q81 0 142.5 -28.5t103.5 -75.5q41 -46 62 -105.5t21 -119.5q0 -63 -21 -122.5t-62 -104.5q-42 -48 -103.5 -75.5t-142.5 -27.5zM517 697h-50
q-21 0 -26.5 -6.5t-5.5 -24.5v-132h97q45 0 64 26.5t19 59.5q0 30 -26.5 53.5t-71.5 23.5zM502 796q-54 0 -96.5 -16.5t-75.5 -43.5h190q78 0 120.5 -34t42.5 -82q0 -42 -29.5 -78.5t-86.5 -44.5l93 -148q9 -15 18 -20.5t24 -5.5q36 39 55 90.5t19 102.5q0 50 -18 100
t-53 90q-34 39 -85.5 64.5t-117.5 25.5zM307 714l-9 -8q-36 -40 -53 -90t-17 -100q0 -54 20 -106.5t59 -94.5v8q39 0 48 8t9 29v306q0 17 -9 24t-48 7v17zM627 284l-130 211h-62v-135q0 -21 8 -29t47 -8v-39h-147q33 -24 72 -36.5t87 -12.5q45 0 84.5 12.5t73.5 36.5h-33z
" />
    <glyph glyph-name="degree" unicode="&#xb0;"
d="M601 719q0 -36 -24 -65.5t-72 -29.5t-71 29.5t-23 65.5q0 33 23 63.5t71 30.5t72 -30.5t24 -63.5zM549 719q0 17 -11.5 31t-32.5 14t-32.5 -14t-11.5 -31q0 -19 11.5 -32t32.5 -13t32.5 13.5t11.5 31.5z" />
    <glyph glyph-name="plusminus" unicode="&#xb1;"
d="M552 421v-119h-78v119h-116v75h116v117h78v-117h116v-75h-116zM349 223h331v-76h-331v76z" />
    <glyph glyph-name="uni00B2" unicode="&#xb2;"
d="M148 865q45 0 68 -22.5t26 -58.5q0 -21 -4 -35.5t-11 -24.5q-7 -11 -16 -20t-18 -19q-21 -18 -30.5 -34.5t-9.5 -52.5v-9h87v-48h-129v57q0 50 15 77t39 48q14 9 24.5 23t10.5 32t-14.5 28.5t-37.5 10.5h-26v48h26z" />
    <glyph glyph-name="uni00B3" unicode="&#xb3;"
d="M254 633q-1 -42 -25.5 -67.5t-86.5 -25.5h-21v46h23q30 0 46 12t16 36q0 21 -12.5 33t-56.5 12h-8v46h8q38 0 49.5 14.5t11.5 32.5q0 17 -12.5 27.5t-44.5 10.5h-14v46h16q54 0 77.5 -20t24.5 -62q-1 -27 -6.5 -41t-20.5 -28q17 -9 26 -24t10 -48z" />
    <glyph glyph-name="acute" unicode="&#xb4;"
d="M629 858l-72 -156h-47l51 156h68z" />
    <glyph glyph-name="paragraph" unicode="&#xb6;"
d="M715 24h-67v769h67v-769zM548 28h-66v378h-267v387h333v-765zM482 473v256h-200v-256h200z" />
    <glyph glyph-name="periodcentered" unicode="&#xb7;"
d="M558 459h-80v80h80v-80z" />
    <glyph glyph-name="cedilla" unicode="&#xb8;"
d="M638 -94h-227v60h168v68h-145l53 174h65l-36 -114h122v-188z" />
    <glyph glyph-name="uni00B9" unicode="&#xb9;"
d="M190 537h-51v252h51v-252z" />
    <glyph glyph-name="ordmasculine" unicode="&#xba;"
d="M331 389h389v-63h-389v63zM649 618q0 -75 -30.5 -112.5t-90.5 -37.5q-63 0 -95 39t-32 111v64q0 60 33 100.5t96 40.5q57 0 88 -41t31 -100v-64zM589 678q0 36 -15 57.5t-48 21.5t-49.5 -24.5t-16.5 -54.5v-64q0 -33 15 -58.5t51 -25.5q30 0 46.5 21.5t16.5 63.5v63z" />
    <glyph glyph-name="onequarter" unicode="&#xbc;"
d="M601 704l-308 -461l-48 30l308 462zM276 400h-61v371h61v-371zM580 379v236h67v-236q0 -28 13.5 -43t40.5 -17h41v215h67v-388h-67v101h-43q-58 0 -88.5 31.5t-30.5 100.5z" />
    <glyph glyph-name="onehalf" unicode="&#xbd;"
d="M627 704l-306 -462l-48 30l307 462zM304 399h-60v371h60v-371zM650 608q65 0 98 -32t36 -83q1 -30 -5 -51t-16 -36q-10 -16 -23 -28.5t-25 -25.5q-15 -14 -26 -25t-18 -25q-8 -13 -11 -31t-3 -44l1 -12h124v-69h-184l-1 81q0 71 22 111t56 67q20 14 34.5 34.5t14.5 45.5
q0 24 -20.5 39.5t-53.5 15.5h-36v68h36z" />
    <glyph glyph-name="threequarters" unicode="&#xbe;"
d="M638 709l-310 -464l-48 31l310 463zM367 520q-3 -60 -38 -96.5t-122 -36.5h-30v66h33q45 0 66.5 17.5t21.5 50.5q0 30 -18 47.5t-81 17.5h-11v65h11q27 0 45 5t26 16t12 22.5t4 24.5q0 23 -18 38.5t-63 15.5h-19v66h22q78 0 110.5 -29t35.5 -89q-3 -37 -9 -58t-30 -41
q24 -12 36.5 -33.5t15.5 -68.5zM607 379v236h67v-236q0 -28 13.5 -43t40.5 -17h41v215h67v-388h-67v101h-43q-58 0 -88.5 31.5t-30.5 100.5z" />
    <glyph glyph-name="questiondown" unicode="&#xbf;"
d="M559 313h68v-76h-68q-34 0 -64 12.5t-51 34.5q-22 21 -34.5 51t-12.5 64q0 33 11.5 59.5t29.5 47.5q18 20 40 32.5t43 16.5v126h76v-196h-38q-36 0 -61 -25.5t-25 -60.5q0 -36 25 -61t61 -25zM515 846h85v-84h-85v84z" />
    <glyph glyph-name="AE" unicode="&#xc6;"
d="M766 318v-81h-88q-27 0 -49 3.5t-40 10.5v-13h-77v258h-120q-15 0 -24 -8.5t-13 -21.5t-5 -27.5t-1 -26.5v-174h-78v184q0 51 11 86.5t45 56.5v89q0 78 33 118t99 40q29 0 52.5 -9t41.5 -27l3 -3q20 16 50 25t70 10h83v-81h-89q-43 0 -62 -26.5t-19 -58.5v-62l168 1v-82
h-168v-96q0 -42 24 -63.5t72 -21.5h81zM512 662q0 29 -10.5 49.5t-43.5 20.5q-30 0 -41 -20t-11 -50v-85h106v85z" />
    <glyph glyph-name="Eth" unicode="&#xd0;"
d="M295 595l76 -1v215h127q78 0 119 -35.5t41 -116.5v-276q0 -45 -13 -73.5t-35 -44.5t-51.5 -21.5t-62.5 -5.5h-125v287h-76v72zM580 650q0 42 -25 57.5t-64 15.5h-43v-129h76v-71h-76v-201h48q36 0 60 17.5t24 45.5v265z" />
    <glyph glyph-name="multiply" unicode="&#xd7;"
d="M567 390l82 -82l-54 -56l-83 82l-83 -82l-54 56l82 82l-82 83l54 54l83 -81l83 81l54 -54z" />
    <glyph glyph-name="Oslash" unicode="&#xd8;"
d="M438 429v-115h148v262zM586 650v108h-148v-256zM238 304l126 125v403h296v-109l97 97l37 -38l-134 -132v-412h-296v117l-90 -89z" />
    <glyph glyph-name="Thorn" unicode="&#xde;"
d="M553 651h-61v-281h157v210zM417 808l-56 -1v53h184v-52h-53v-84h76l157 -119v-310h-232v-100h-76v613z" />
    <glyph glyph-name="germandbls" unicode="&#xdf;"
d="M455 444v-319h-73v598h260v-208h49v-277h-162v74h86v132h-160zM571 515v136h-116v-136h116z" />
    <glyph glyph-name="ae" unicode="&#xe6;"
d="M641 328q12 -3 36 -3t60 3v-78q-33 -4 -57 -4.5t-39 2.5q-31 2 -57.5 11t-47.5 27v-34h-125q-45 0 -77 11t-51 34q-20 22 -28 47.5t-5 55.5q6 72 52 98t116 26h39q0 42 -27 53.5t-83 14.5h-52v80h66q49 -1 83.5 -10t53.5 -24l2.5 -2.5l2.5 -2.5q21 26 51 39.5t68 13.5
q39 0 67.5 -14.5t47.5 -41.5q18 -28 28 -61t10 -69v-69h-237q0 -39 28.5 -69.5t74.5 -33.5zM620 610q-24 0 -40.5 -10t-25.5 -28q-9 -19 -13.5 -35.5t-4.5 -30.5h165q0 14 -4 30.5t-12 35.5q-8 18 -24.5 28t-40.5 10zM459 332v112h-48q-30 0 -56 -11t-29 -35
q1 -21 8.5 -34.5t21.5 -19.5q13 -6 26.5 -9t26.5 -3h50z" />
    <glyph glyph-name="eth" unicode="&#xf0;"
d="M496 595l-16 40l105 39v73h58v-54l59 25l16 -40l-75 -29v-277q0 -33 -12 -59.5t-32 -46.5q-21 -21 -47 -31.5t-56 -10.5t-57 10.5t-47 31.5q-21 20 -32.5 46.5t-11.5 59.5q0 30 11 58.5t32 50.5q20 21 47 35t58 14q15 0 35 -5.5t54 -22.5v126zM585 375q0 36 -25.5 63.5
t-61.5 27.5t-61.5 -27.5t-25.5 -63.5q0 -37 25.5 -64t61.5 -27t61.5 27t25.5 64z" />
    <glyph glyph-name="divide" unicode="&#xf7;"
d="M361 413h302v-75h-302v75zM552 479h-78v78h78v-78zM552 195h-78v78h78v-78z" />
    <glyph glyph-name="oslash" unicode="&#xf8;"
d="M449 486v-136h109v136h-109zM300 258l74 67v234h222l67 65l44 -45l-73 -73v-231h-220l-70 -64z" />
    <glyph glyph-name="thorn" unicode="&#xfe;"
d="M566 424v138h-109l1 -138h108zM457 723v-88h185v-283h-184v-115h-76v486h75z" />
    <glyph glyph-name="dcroat" unicode="&#x111;"
d="M457 450v-138h109v138h-109zM492 677l74 -1v69h76v-68h73v-51h-73v-387h-260v284h184v102h-74v52z" />
    <glyph glyph-name="Hbar" unicode="&#x126;"
d="M590 700h-157v-130h157v130zM283 751l75 -1v82h75v-82h157v82h76v-81h76v-51h-76v-462h-76v260h-157v-260h-75v461h-75v52z" />
    <glyph glyph-name="hbar" unicode="&#x127;"
d="M308 677l74 -1v59h75v-58h74v-51h-74v-102h185v-285h-76v211h-109v-211h-75v386h-74v52z" />
    <glyph glyph-name="dotlessi" unicode="&#x131;"
d="M475 725h75v-74h-75v74zM474 575l76 1v-337h-76v336z" />
    <glyph glyph-name="IJ" unicode="&#x132;"
d="M346 832h87v-88h-87v88zM351 637l76 1v-399h-76v398zM494 192h118v446h77v-522h-195v76zM607 832h88v-88h-88v88z" />
    <glyph glyph-name="ij" unicode="&#x133;"
d="M358 725h75v-74h-75v74zM357 575l76 1v-337h-76v336zM581 725h75v-74h-75v74zM482 190h98v386h76v-460h-174v74z" />
    <glyph glyph-name="kgreenlandic" unicode="&#x138;"
d="M345 238v496h77v-208h104v208h76v-208h77v-288h-77v214h-180v-214h-77z" />
    <glyph glyph-name="Ldot" unicode="&#x13f;"
d="M378 832h74v-517h195v-77h-269v594zM610 649l87 1v-88h-87v87z" />
    <glyph glyph-name="ldot" unicode="&#x140;"
d="M373 724h74v-485h-74v485zM566 545l87 1v-88h-87v87z" />
    <glyph glyph-name="Lslash" unicode="&#x141;"
d="M256 463l121 121v248h75v-173l97 97l37 -38l-134 -133v-270h195v-77h-269v272l-85 -85z" />
    <glyph glyph-name="lslash" unicode="&#x142;"
d="M381 486l85 49v189h75v-147l66 39l26 -45l-92 -52v-280h-75v237l-59 -35z" />
    <glyph glyph-name="napostrophe" unicode="&#x149;"
d="M374 633h58l-62 -112h-36zM607 449l-109 1v-212h-75v285h260v-285h-76v211z" />
    <glyph glyph-name="Eng" unicode="&#x14a;"
d="M598 148v371h-191v-281h-76v594h75v-241h267v-507h-171v64h96z" />
    <glyph glyph-name="eng" unicode="&#x14b;"
d="M359 238v285h281v-485h-148v73h75v340h-130v-213h-78z" />
    <glyph glyph-name="OE" unicode="&#x152;"
d="M754 814v-85h-123q-10 -4 -17 -9.5t-12 -11.5q-10 -13 -14.5 -28t-4.5 -30v-62h168v-81h-168v-98q0 -36 18.5 -57t56.5 -27h103v-85h-253q-118 0 -171 58t-53 148v162q0 42 12.5 79.5t39.5 65.5t69.5 44.5t102.5 16.5h246zM368 600v-144q0 -28 5.5 -52t22.5 -41
q16 -18 45 -28t76 -10h3q-7 15 -10.5 34t-3.5 40v254q0 21 2.5 40.5t8.5 35.5q-45 0 -74 -10t-46 -27q-16 -17 -22.5 -40.5t-6.5 -51.5z" />
    <glyph glyph-name="oe" unicode="&#x153;"
d="M626 324q12 -3 36 -3t60 3v-78h-131h-130q-52 0 -89.5 16t-60.5 49q-24 32 -35.5 70t-11.5 83q0 44 11.5 81t35.5 67t56 45t72 15q74 0 116 0.5t51 0.5q41 0 70.5 -14.5t47.5 -41.5q18 -28 27 -60.5t9 -68.5v-69h-237q0 -33 28.5 -62.5t74.5 -32.5zM372 557
q-15 -18 -22.5 -41t-7.5 -52q2 -63 31 -100t105 -37q-18 27 -26.5 64t-8.5 83q0 34 6 63t18 53q-35 0 -59 -8.5t-36 -24.5zM605 598q-24 0 -40.5 -10t-25.5 -28q-9 -19 -13.5 -35.5t-4.5 -30.5h165q0 14 -4 30.5t-12 35.5q-8 18 -24.5 28t-40.5 10z" />
    <glyph glyph-name="Tbar" unicode="&#x166;"
d="M381 593l94 -1v164h-117v77h308v-76h-117v-164h96v-51h-95v-303h-75v302h-94v52z" />
    <glyph glyph-name="tbar" unicode="&#x167;"
d="M307 677l75 -1v59h75v-58h73v-51h-73v-102h180v-74h-180v-135h185v-76h-260v386h-75v52z" />
    <glyph glyph-name="caron" unicode="&#x2c7;"
d="M646 814l-103 -208h-62l-103 204l54 25l79 -157l80 157z" />
    <glyph glyph-name="uni02D0" unicode="&#x2d0;"
d="M586 701l-69 -129h-6l-73 129h148zM516 461l72 -128h-152l74 128h6z" />
    <glyph glyph-name="breve" unicode="&#x2d8;"
d="M644 853q-5 -42 -19 -73.5t-37 -52.5q-24 -21 -49.5 -31.5t-52.5 -10.5q-28 0 -54.5 10t-50.5 31t-39 52.5t-21 73.5h59q9 -60 40 -87.5t65 -26.5q33 0 62.5 29t38.5 86h58z" />
    <glyph glyph-name="dotaccent" unicode="&#x2d9;"
d="M584 730q0 -24 -15 -42t-44 -18q-30 0 -43.5 19t-13.5 41q0 21 13.5 39.5t43.5 18.5q29 0 44 -18.5t15 -39.5z" />
    <glyph glyph-name="ring" unicode="&#x2da;"
d="M621 689q0 -36 -24 -65.5t-72 -29.5t-71 29.5t-23 65.5q0 33 23 63.5t71 30.5t72 -30.5t24 -63.5zM569 689q0 17 -11.5 31t-32.5 14t-32.5 -14t-11.5 -31q0 -19 11.5 -32t32.5 -13t32.5 13.5t11.5 31.5z" />
    <glyph glyph-name="ogonek" unicode="&#x2db;"
d="M616 -75h-200v234h124v-59h-64v-116h140v-59z" />
    <glyph glyph-name="hungarumlaut" unicode="&#x2dd;"
d="M651 858l-80 -156h-53l59 156h74zM531 858l-79 -156h-53l58 156h74z" />
    <glyph glyph-name="Alpha" unicode="&#x391;"
d="M673 236h-77v258h-120q-15 0 -24 -8.5t-13 -21.5t-5 -27.5t-1 -26.5v-174h-78v184q0 51 11 86.5t45 56.5v89q0 78 33 118t99 40q59 0 94.5 -36t35.5 -122v-416zM596 660q0 29 -10.5 49.5t-43.5 20.5q-30 0 -41 -20t-11 -50v-85h106v85z" />
    <glyph glyph-name="Beta" unicode="&#x392;"
d="M362 662q-2 24 3.5 50.5t21.5 48.5q15 23 40 37.5t63 14.5q40 0 65.5 -14.5t40.5 -37.5q15 -22 19.5 -48.5t3.5 -50.5v-89q27 -12 39.5 -48.5t12.5 -83.5v-64q0 -63 -30.5 -102.5t-101.5 -39.5h-177v427zM541 670q0 27 -10 45t-43 18q-27 0 -37.5 -19.5t-10.5 -43.5v-93
h101v93zM518 319q42 0 60 18t18 49v46q0 33 -11 48.5t-41 15.5h-104v-177h78z" />
    <glyph glyph-name="Gamma" unicode="&#x393;"
d="M358 240l-1 590h255v-73h-178v-517h-76z" />
    <glyph glyph-name="uni0394" unicode="&#x394;"
d="M668 832v-592h-423l306 592h117zM356 298h239v477z" />
    <glyph glyph-name="Epsilon" unicode="&#x395;"
d="M629 317v-81h-88q-84 0 -125 42t-41 115v254q0 86 40 123.5t124 37.5h83v-80h-89q-43 0 -62 -26t-19 -58v-62h168v-81h-168v-98q0 -42 24 -63t72 -23h81z" />
    <glyph glyph-name="Zeta" unicode="&#x396;"
d="M456 761l-157 -1v72h232v-521h194v-73h-269v523z" />
    <glyph glyph-name="Eta" unicode="&#x397;"
d="M590 522h-157v-284h-75v594h75v-242h157v242h76v-594h-76v284z" />
    <glyph glyph-name="Theta" unicode="&#x398;"
d="M330 832h379v-594h-379v594zM404 759v-449h230v449h-230zM579 570v-50h-121v50h121z" />
    <glyph glyph-name="Iota" unicode="&#x399;"
d="M475 832h75v-593h-75v593z" />
    <glyph glyph-name="Kappa" unicode="&#x39a;"
d="M550 578q63 -6 89 -52t26 -112v-178h-75v172q0 38 -19.5 60.5t-55.5 22.5q-37 0 -54.5 -22.5t-17.5 -60.5v-172h-78v570h76v-236l155 241l71 -42z" />
    <glyph glyph-name="Lambda" unicode="&#x39b;"
d="M668 240h-73v33v48v141v313q-27 -54 -50 -99.5t-43 -84.5q-19 -39 -35 -71l-29 -58q-14 -27 -25 -48.5t-20 -38.5q-8 -18 -15 -31t-11 -23q-5 -11 -9 -18.5t-6 -12.5l-5 -10t-3 -7q-2 -4 -3 -7t-3 -7q-1 -4 -3 -8.5t-4 -10.5h-86l306 592h117v-592z" />
    <glyph glyph-name="Mu" unicode="&#x39c;"
d="M671 236v403q0 30 -13.5 57.5t-43.5 27.5q-17 1 -28 -8t-18 -23q-7 -13 -9 -28.5t1 -25.5v-403h-76v403q2 10 -0.5 25.5t-9.5 28.5q-7 14 -19 23t-28 8q-17 2 -29 -7.5t-19 -23.5q-8 -14 -10 -29t1 -25v-403h-79v413q0 69 31 115t100 46q45 0 67 -18t34 -41q12 23 35 41
t62 18q69 0 98 -46t29 -115v-413h-76z" />
    <glyph glyph-name="Nu" unicode="&#x39d;"
d="M585 236v398q0 14 -3.5 28.5t-9.5 30.5q-7 15 -22.5 23.5t-39.5 8.5t-39 -8.5t-21 -23.5q-6 -16 -9 -30.5t-3 -28.5v-398h-76v408q0 83 39 123.5t109 40.5q69 0 109 -40.5t40 -123.5v-408h-74z" />
    <glyph glyph-name="Xi" unicode="&#x39e;"
d="M406 761v-106h-77v175h381v-176h-75v107h-229zM620 571v-60h-203v60h203zM406 308h229v117h75v-186h-381v185h77v-116z" />
    <glyph glyph-name="Omicron" unicode="&#x39f;"
d="M364 832h296v-594h-296v594zM438 757v-443h148v443h-148z" />
    <glyph glyph-name="Pi" unicode="&#x3a0;"
d="M591 240v521h-155v-521h-65v521h-122v70h526v-70h-118v-521h-66z" />
    <glyph glyph-name="Rho" unicode="&#x3a1;"
d="M626 655q-1 -51 -14 -84.5t-38 -51.5t-60.5 -26.5t-80.5 -8.5v-243h-75v573h103q86 0 125.5 -40.5t39.5 -118.5zM434 572q60 0 89.5 14.5t29.5 68.5q0 47 -31.5 62t-87.5 13v-158z" />
    <glyph glyph-name="Sigma" unicode="&#x3a3;"
d="M338 831h321v-67h-209l119 -217l-124 -239h221v-69h-329l159 307z" />
    <glyph glyph-name="Tau" unicode="&#x3a4;"
d="M548 240l-75 -1v520h-115v74h308v-73h-118v-520z" />
    <glyph glyph-name="Upsilon" unicode="&#x3a5;"
d="M364 240v592h73v-56h244v-66h-244v-470h-73z" />
    <glyph glyph-name="Phi" unicode="&#x3a6;"
d="M478 205v114h-186v429h186v108h70v-108h184v-429h-184v-114h-70zM548 389h111v292h-111v-292zM364 389h114v292h-114v-292z" />
    <glyph glyph-name="Chi" unicode="&#x3a7;"
d="M655 660q0 -27 -3 -44.5t-9 -29.5q-5 -12 -13.5 -21t-19.5 -19q30 -19 37.5 -44t7.5 -73v-188h-75v189q-3 38 -18.5 57t-44.5 19q-27 0 -42.5 -19t-18.5 -57v-189h-77v188q0 48 10 73t37 44q-12 10 -20.5 19t-14.5 21t-9 29.5t-3 44.5v157h77v-164q3 -36 17.5 -54
t41.5 -18q33 0 49 18.5t16 57.5v160h75v-157z" />
    <glyph glyph-name="Psi" unicode="&#x3a8;"
d="M456 240v215h-195v375h75v-319h120v319h70v-319h119v319h75v-375h-194v-215h-70z" />
    <glyph glyph-name="uni03A9" unicode="&#x3a9;"
d="M645 474v283h-271v-283h98v-237h-225v91h56v-35h106v124h-107v397h415v-397h-105v-124h112v35h53v-91h-229v237h97z" />
    <glyph glyph-name="alpha" unicode="&#x3b1;"
d="M720 297l2 -88q-26 0 -44.5 9.5t-29.5 20.5q-12 11 -17.5 21l-5.5 10q-16 -24 -39 -36.5t-44 -17.5q-21 -6 -36 -6.5l-15 -0.5q-55 -2 -89.5 17.5t-54.5 44.5q-19 24 -26 44.5l-7 20.5q-20 80 -0.5 129t49.5 76q31 27 60 36l29 9q51 8 85 0t54 -21t29 -25l9 -12
q7 24 3 41l-4 17l85 2q6 -41 0.5 -83.5t-13.5 -77.5q-9 -35 -17 -57l-8 -22q-1 -12 6 -21.5t16 -16.5q8 -7 15.5 -10zM598 403l-2 15.5t-12 34.5t-32.5 35t-64.5 16l-18 -3t-38 -15t-35 -36.5t-9 -68.5l3 -14t15 -30q11 -17 33 -29.5t60 -10.5l15.5 2.5t34.5 12.5
q18 11 34 32t16 59z" />
    <glyph glyph-name="beta" unicode="&#x3b2;"
d="M368 153v569h250v-202h59v-280h-235v-87h-74zM442 520h107v137h-107v-137zM442 309h154v149h-154v-149z" />
    <glyph glyph-name="gamma" unicode="&#x3b3;"
d="M457 239l-75 -1v286h260v-70h-185v-215z" />
    <glyph glyph-name="delta" unicode="&#x3b4;"
d="M636 598v-359h-256v359h134v153h136v-51h-72v-102h58zM455 307h106v227h-106v-227z" />
    <glyph glyph-name="epsilon" unicode="&#x3b5;"
d="M650 723v-69h-191v-130h171v-67h-171v-142h191v-77h-266v485h266z" />
    <glyph glyph-name="zeta" unicode="&#x3b6;"
d="M596 148v91h-212v383h190v89h-57v33h108v-193h-168v-242h192v-190h-172v29h119z" />
    <glyph glyph-name="eta" unicode="&#x3b7;"
d="M373 490q0 84 36 130.5t106 46.5q71 0 105.5 -46.5t34.5 -130.5v-253h-76v251q0 18 -2.5 34.5t-6.5 31.5q-5 15 -18.5 22.5t-36.5 7.5q-22 0 -36 -8t-20 -23q-6 -16 -8.5 -32t-2.5 -33v-251h-75v253z" />
    <glyph glyph-name="theta" unicode="&#x3b8;"
d="M654 723v-484h-273v484h273zM456 520h121v132h-121v-132zM456 314h121v138h-121v-138z" />
    <glyph glyph-name="iota" unicode="&#x3b9;"
d="M475 724h75v-485h-75v485z" />
    <glyph glyph-name="kappa" unicode="&#x3ba;"
d="M550 578q63 -6 89 -52t26 -112v-178h-75v172q0 38 -19.5 60.5t-55.5 22.5q-37 0 -54.5 -22.5t-17.5 -60.5v-172h-78v570h76v-236l155 241l71 -42z" />
    <glyph glyph-name="lambda" unicode="&#x3bb;"
d="M458 450v-211h-76v285h185v200h75v-485h-75v211h-109z" />
    <glyph glyph-name="uni03BC" unicode="&#x3bc;"
d="M457 523v-210h109v210h76v-284h-184v-115h-76v399h75z" />
    <glyph glyph-name="nu" unicode="&#x3bd;"
d="M382 524h75v-209l109 86v123h76v-156l-174 -129h-86v285z" />
    <glyph glyph-name="xi" unicode="&#x3be;"
d="M626 651h-193v-128h197v-73h-197v-135h210v-197h-166v60h112v60h-231v485h213v52h-60v49h115v-173z" />
    <glyph glyph-name="omicron" unicode="&#x3bf;"
d="M382 523h260v-285h-260v285zM457 449v-136h109v136h-109z" />
    <glyph glyph-name="pi" unicode="&#x3c0;"
d="M573 239v210h-116v-210h-74v210h-62v76h382v-76h-57v-210h-73z" />
    <glyph glyph-name="rho" unicode="&#x3c1;"
d="M570 450h-134v-376h-75v449h285v-285h-156v76h80v136z" />
    <glyph glyph-name="sigma" unicode="&#x3c3;"
d="M580 314v135h-79v76h154v-285h-283v449h74v-376z" />
    <glyph glyph-name="tau" unicode="&#x3c4;"
d="M625 283v-61h-149v232h-95v71h262v-71h-96v-171h78z" />
    <glyph glyph-name="upsilon" unicode="&#x3c5;"
d="M382 523h75v-210h109v210h76v-285h-260v285z" />
    <glyph glyph-name="phi" unicode="&#x3c6;"
d="M321 240l-1 178q-1 22 -1.5 41t0.5 34q0 14 3 22t11 8h107v-74h-45v-135h100v209h229v-284h-160v-165h-69v166h-174zM648 450h-84v-136h84v136z" />
    <glyph glyph-name="chi" unicode="&#x3c7;"
d="M659 592q0 -24 -2.5 -42t-6.5 -30q-4 -13 -13 -28t-23 -31q24 -25 34.5 -57t10.5 -83v-85h-77v85q0 17 -3.5 33t-9.5 32q-7 15 -19.5 23.5t-30.5 8.5q-16 0 -28 -8.5t-20 -24.5t-11.5 -32.5t-3.5 -33.5v-83h-78v85q0 51 10.5 83t31.5 57q-27 30 -34.5 57.5t-7.5 73.5v59
h78v-59q0 -33 13.5 -58.5t49.5 -25.5q35 0 49 25.5t14 58.5v59h77v-59z" />
    <glyph glyph-name="psi" unicode="&#x3c8;"
d="M549 523v-210h90v210h75v-284h-164v-166h-75v165h-165v285h75v-210q45 0 67.5 5.5t22.5 17.5v187h74z" />
    <glyph glyph-name="omega" unicode="&#x3c9;"
d="M310 523h75v-210h90v210h74v-210h90v210h75v-285h-404v285z" />
    <glyph glyph-name="uni0401" unicode="&#x401;"
d="M706 754v-61h-329v-172h314v-59h-314v-192h336v-61h-402v545h395zM408 824q-21 0 -36 14.5t-15 36.5q0 21 15 35.5t36 14.5q18 0 33.5 -14.5t15.5 -35.5q0 -22 -15.5 -36.5t-33.5 -14.5zM598 824q-21 0 -35 14.5t-14 36.5q0 21 14 35.5t35 14.5t35.5 -14.5t14.5 -35.5
q0 -22 -14.5 -36.5t-35.5 -14.5z" />
    <glyph glyph-name="uni0410" unicode="&#x410;"
d="M371 360l-64 -151h-70l238 570h73l239 -570h-71l-64 151h-281zM627 421l-115 282l-115 -282h230z" />
    <glyph glyph-name="uni0411" unicode="&#x411;"
d="M295 779h395v-60h-328v-182h172q21 0 43 -3t43 -9q51 -18 81 -63.5t27 -99.5q-3 -40 -22.5 -69.5t-46.5 -47.5q-30 -18 -63.5 -27t-66.5 -9h-234v570zM362 269h178q57 0 88 32t32 72q0 39 -30 72t-89 33h-179v-209z" />
    <glyph glyph-name="uni0412" unicode="&#x412;"
d="M295 779h241q27 0 55 -8.5t52 -23.5q23 -15 38.5 -39.5t21.5 -54.5q5 -33 -9 -71t-50 -70q42 -30 65 -72t20 -78q-3 -40 -22.5 -69.5t-46.5 -47.5q-30 -18 -64 -27t-67 -9h-234v570zM532 537q39 0 72 23t33 69q0 44 -31.5 67t-73.5 23h-171v-182h171zM361 478v-209h178
q48 0 79 26t40 60q8 33 -8.5 66t-61.5 48q-13 3 -24.5 6t-22.5 3h-180z" />
    <glyph glyph-name="uni0413" unicode="&#x413;"
d="M311 205v578h402v-61h-334v-517h-68z" />
    <glyph glyph-name="uni0414" unicode="&#x414;"
d="M327 208v-142h-67v204h52q9 21 17 44.5t15 53.5q21 93 27.5 193t6.5 211h329v-502h57v-204h-69v142h-368zM385 270h254v439h-194q-3 -111 -12 -221t-48 -218z" />
    <glyph glyph-name="uni0415" unicode="&#x415;"
d="M703 779v-60h-325v-184h314v-59h-314v-207h335v-60h-402v570h392z" />
    <glyph glyph-name="uni0416" unicode="&#x416;"
d="M547 373v-168h-69v168l-65 92l-194 -260h-84l237 317l-191 261h80l217 -297v297h69v-296l215 296h82l-190 -261l235 -317h-84l-193 258z" />
    <glyph glyph-name="uni0417" unicode="&#x417;"
d="M384 361q2 -30 14.5 -49t30.5 -31t39.5 -17.5t45.5 -5.5t45.5 7.5t41.5 22.5q19 15 29 35t10 46q0 36 -26 62.5t-61 35.5q-12 3 -25.5 4t-25.5 1l-33 -3v65h15q17 0 33.5 0.5t34.5 6.5q41 15 57.5 47.5t10.5 63.5q-6 32 -34.5 55.5t-73.5 23.5q-39 0 -72 -19.5t-39 -66.5
h-66q0 39 18.5 67.5t45.5 46.5q26 18 56.5 26.5t58.5 8.5q30 0 62 -11.5t59 -31.5q24 -21 41 -50t17 -65q0 -33 -17 -66.5t-53 -63.5q42 -30 64.5 -65t22.5 -74q0 -42 -18 -75t-45 -54q-28 -22 -63.5 -33t-71.5 -11q-33 0 -67.5 8.5t-61.5 29.5q-28 20 -47 51.5t-22 77.5h70
z" />
    <glyph glyph-name="uni0418" unicode="&#x418;"
d="M365 209h-75v570h67v-462l303 462h74v-570h-66v464z" />
    <glyph glyph-name="uni0419" unicode="&#x419;"
d="M434 873q12 -27 33.5 -41.5t45.5 -14.5q21 0 43 14.5t37 41.5h58q-22 -57 -59.5 -85t-78.5 -28q-42 0 -80.5 28t-59.5 85h61zM366 218h-76v536h66v-430l304 430h74v-536h-66v431z" />
    <glyph glyph-name="uni041A" unicode="&#x41a;"
d="M328 403v-194h-68v570h68v-279l58 57q10 10 22 21.5t24 23.5q13 12 25.5 24.5t26.5 24.5l133 128h85l-107 -112l-125 -126l278 -332h-86l-240 285q-48 -42 -67 -62t-27 -29z" />
    <glyph glyph-name="uni041B" unicode="&#x41b;"
d="M428 721v-372q0 -15 -1.5 -29.5t-4.5 -28.5q-12 -52 -44.5 -72t-80.5 -22v65q12 0 20.5 2t14.5 6q15 9 21.5 29t6.5 41v443h367v-579h-68v517h-231z" />
    <glyph glyph-name="uni041C" unicode="&#x41c;"
d="M548 209h-74l-162 415v-415h-67v570h78l189 -486l189 486h78v-570h-66v415z" />
    <glyph glyph-name="uni041D" unicode="&#x41d;"
d="M358 479v-270h-66v570h66v-240h308v240h66v-570h-66v270h-308z" />
    <glyph glyph-name="uni041E" unicode="&#x41e;"
d="M512 794q63 0 111.5 -26t81.5 -68t49.5 -96t16.5 -111q0 -58 -17.5 -112t-50.5 -96t-82 -66.5t-109 -24.5q-64 0 -112.5 25t-80.5 67q-33 42 -49.5 96t-16.5 111t16.5 112t49.5 97t81.5 67t111.5 25zM512 256q45 0 80.5 21t59.5 55q23 33 35 75.5t12 85.5q0 42 -12 85.5
t-35 77.5q-24 33 -59.5 54.5t-80.5 21.5q-48 0 -83.5 -21.5t-58.5 -54.5q-24 -34 -34.5 -77.5t-10.5 -85.5q0 -45 11.5 -87t35.5 -75q23 -34 57.5 -54.5t82.5 -20.5z" />
    <glyph glyph-name="uni041F" unicode="&#x41f;"
d="M364 722v-517h-68v578h432v-578h-68v517h-296z" />
    <glyph glyph-name="uni0420" unicode="&#x420;"
d="M365 209h-68v570h237q36 0 71.5 -12t62.5 -35q27 -22 43 -55t16 -72q0 -42 -17 -74.5t-44 -53.5q-27 -22 -61.5 -33t-70.5 -11h-169v-224zM534 494q51 0 87.5 29.5t36.5 81.5q0 53 -36.5 83.5t-87.5 30.5h-169v-225h169z" />
    <glyph glyph-name="uni0421" unicode="&#x421;"
d="M515 732q-48 0 -83 -22t-58 -55q-22 -34 -33 -77t-11 -85q0 -45 11 -87t35 -75q23 -34 57 -54.5t82 -20.5q57 0 105 34.5t67 97.5h74q-15 -48 -40 -84.5t-58 -60.5t-71 -36.5t-77 -12.5q-63 0 -111.5 25.5t-80.5 67.5q-33 42 -49 95.5t-16 110.5t16.5 112t49.5 97
q32 41 80 66.5t111 25.5q36 0 74.5 -12t71.5 -36t59.5 -58.5t41.5 -79.5h-73q-27 60 -72 92t-102 32z" />
    <glyph glyph-name="uni0422" unicode="&#x422;"
d="M480 205v514h-194v60h452v-60h-192v-514h-66z" />
    <glyph glyph-name="uni0423" unicode="&#x423;"
d="M496 244q-21 -24 -40 -30.5t-48 -6.5h-28v59h37q9 0 20.5 11t20.5 29l21 53l-166 417h69l130 -331l129 331h70l-196 -496q-4 -10 -9 -19t-10 -17z" />
    <glyph glyph-name="uni0424" unicode="&#x424;"
d="M544 253v-55h-65v55q-51 6 -95.5 24t-77.5 48t-53 71.5t-20 96.5q0 54 19.5 96.5t53.5 72.5q33 30 77.5 47.5t95.5 26.5v55h65v-55q48 -9 93.5 -26.5t79.5 -47.5q33 -30 53.5 -72.5t20.5 -96.5t-21.5 -95.5t-54.5 -71.5q-34 -30 -78.5 -48.5t-92.5 -24.5zM544 672v-356
q36 6 69 18.5t57 33.5q23 21 37 51.5t14 73.5q0 42 -14 73.5t-38 52.5t-56.5 33.5t-68.5 19.5zM304 493q0 -43 12.5 -74.5t37.5 -51.5q24 -20 55.5 -32.5t69.5 -18.5v356q-39 -7 -71 -19.5t-55 -33.5q-24 -21 -36.5 -52.5t-12.5 -73.5z" />
    <glyph glyph-name="uni0425" unicode="&#x425;"
d="M342 209h-79l208 294l-195 276h79l156 -219l157 219h80l-196 -276l209 -294h-79l-170 238z" />
    <glyph glyph-name="uni0426" unicode="&#x426;"
d="M274 210v567h68v-505h282v505h68v-505h58v-157h-68v95h-408z" />
    <glyph glyph-name="uni0427" unicode="&#x427;"
d="M546 386q-37 -7 -66 -5t-65 14q-54 15 -92 55t-38 100v233h65v-203q0 -40 14 -67t38 -42q24 -16 55 -22t67 -3q21 0 46.5 10t49.5 26q21 15 37.5 36.5t16.5 46.5v218h65v-578h-65v243q-42 -33 -70 -45t-58 -17z" />
    <glyph glyph-name="uni0428" unicode="&#x428;"
d="M313 783v-516h165v516h68v-516h165v516h67v-578h-532v578h67z" />
    <glyph glyph-name="uni0429" unicode="&#x429;"
d="M217 205v580h68v-519h165v519h66v-519h166v519h67v-519h58v-156h-68v95h-522z" />
    <glyph glyph-name="uni042A" unicode="&#x42a;"
d="M611 205h-234v517h-160v61h226v-224h168q39 0 74.5 -12.5t62.5 -35.5q27 -24 43 -56.5t16 -73.5q0 -42 -17 -74t-44 -55q-27 -24 -63 -35.5t-72 -11.5zM611 497h-168v-230h168q24 0 46 7.5t41 23.5q18 15 28 35.5t10 47.5q0 26 -10 47t-28 37q-19 15 -41 23.5t-46 8.5z
" />
    <glyph glyph-name="uni042B" unicode="&#x42b;"
d="M787 779v-570h-65v570h65zM469 209h-232v570h67v-235h171q39 0 74 -12t62 -33q27 -22 42 -54t15 -73q-3 -42 -20.5 -72t-44.5 -50q-28 -21 -63 -31t-71 -10zM480 484h-176v-215h175q48 0 83.5 29t35.5 80q0 24 -9.5 43t-27.5 34q-18 14 -38.5 21.5t-42.5 7.5z" />
    <glyph glyph-name="uni042C" unicode="&#x42c;"
d="M529 209h-231v570h68v-235h172q60 0 109.5 -28.5t70.5 -88.5q9 -31 7 -61t-16 -59q-27 -52 -76.5 -75t-103.5 -23zM541 484h-175v-215h174q48 0 83 29t35 80q0 24 -9 43t-27 34q-18 14 -38.5 21.5t-42.5 7.5z" />
    <glyph glyph-name="uni042D" unicode="&#x42d;"
d="M762 495q0 -58 -16.5 -112t-48.5 -96q-33 -42 -80 -67.5t-110 -25.5q-91 0 -152 39t-88 126h74q20 -57 64 -79t102 -22q45 0 77 16.5t54 46.5q21 29 34 66t20 76h-299v62h298q-6 38 -18.5 75t-33.5 67q-22 29 -54.5 47.5t-77.5 18.5q-57 0 -99.5 -25.5t-62.5 -79.5h-76
q33 83 89 125t149 42q63 0 110.5 -25.5t80.5 -67.5q32 -42 48 -96t16 -111z" />
    <glyph glyph-name="uni042E" unicode="&#x42e;"
d="M586 196q-58 0 -100 23t-69 60q-28 38 -43.5 85.5t-20.5 98.5h-80v-254h-66v571h66v-255h80q5 48 20.5 96t43.5 87q27 36 69 60t100 24q60 0 103.5 -27.5t71.5 -69.5q27 -43 41.5 -97t14.5 -105q0 -54 -15 -106.5t-42 -94.5q-30 -43 -73.5 -69.5t-100.5 -26.5zM586 731
q-46 0 -77 -23.5t-51 -59.5q-19 -36 -27.5 -77.5t-8.5 -77.5q0 -37 8.5 -78t27.5 -76q20 -36 51 -58t77 -22q44 0 74.5 22.5t51.5 58.5q18 33 27.5 75t9.5 78t-10 77.5t-28 77.5q-21 35 -52 59t-73 24z" />
    <glyph glyph-name="uni042F" unicode="&#x42f;"
d="M521 443l-157 -236h-81l164 244q-54 21 -88.5 58.5t-34.5 101.5q0 39 15.5 70.5t42.5 53.5q26 21 60 32.5t73 11.5h239v-572h-67v236h-166zM394 611q0 -54 37 -80.5t85 -26.5h171v214h-171q-51 0 -86.5 -27t-35.5 -80z" />
    <glyph glyph-name="uni0430" unicode="&#x430;"
d="M529 197q-24 -7 -52 -8.5t-55 4.5q-27 5 -49.5 18t-36.5 37q-15 21 -18 45t6 49q9 39 37 59t64 32q18 4 36.5 7.5t37.5 5.5t37 4t35 5q7 1 16 4t21 9q11 5 16.5 12.5t5.5 18.5q0 21 -11 36t-26 25q-16 9 -35 14.5t-37 5.5q-48 0 -79.5 -19.5t-31.5 -70.5h-68
q0 38 14.5 66t39.5 46q24 18 56.5 26.5t68.5 8.5q30 0 61.5 -9t56.5 -26q26 -18 42 -44.5t16 -59.5v-225l2 -73l-54 -7l-17 58q-33 -24 -54 -36t-45 -18zM573 403q-5 -1 -12.5 -2t-17.5 -3t-20.5 -4t-20.5 -3q-19 -4 -44 -12.5t-45 -20.5q-19 -13 -26.5 -32.5t10.5 -46.5
q9 -18 27 -25t39 -7q20 -1 40 3t35 10q11 3 27 12.5t31 21.5q14 12 24 26.5t10 30.5l-3 63l-34 -7q-6 -3 -11.5 -3.5t-8.5 -0.5z" />
    <glyph glyph-name="uni0431" unicode="&#x431;"
d="M431 618q20 15 39 23.5t40 8.5q45 0 82 -19.5t62 -49.5q26 -33 39.5 -73t13.5 -82q0 -43 -14 -83t-38 -72q-27 -31 -63.5 -50t-81.5 -19q-48 0 -84 19t-60 50q-25 32 -38 72t-13 83v48t3 48q3 48 21 90t46 75q27 30 61.5 49.5t71.5 25.5l45 4q12 0 23 1.5t23 4.5t19.5 11
t13.5 20h65q-9 -37 -23.5 -57.5t-44.5 -29.5q-21 -7 -50 -10.5t-49 -3.5q-21 -3 -42 -13t-38 -22q-18 -15 -26.5 -28t-2.5 -21zM510 589q-33 0 -57 -15t-39 -39q-16 -24 -23.5 -53t-7.5 -56q0 -28 7.5 -57t23.5 -52q15 -24 39 -39t57 -15q30 0 54.5 15t40.5 39q15 23 24 52
t9 57q0 27 -9 56t-24 53q-16 24 -40.5 39t-54.5 15z" />
    <glyph glyph-name="uni0432" unicode="&#x432;"
d="M658 264q-19 -36 -56.5 -52.5t-76.5 -16.5h-174v421h168q33 0 67 -14.5t53 -43.5q12 -21 14.5 -38t-2.5 -38q-6 -18 -14 -32.5t-29 -34.5q47 -31 59 -71.5t-9 -79.5zM509 443q12 0 25 3t26 10q13 6 20 17.5t7 27.5q0 33 -24.5 46.5t-53.5 13.5h-93v-118h93zM416 388v-137
h93q16 0 31.5 3.5t30.5 10.5q15 6 23 19.5t9 34.5q0 17 -9 30t-23 22q-15 8 -31.5 12.5t-30.5 4.5h-93z" />
    <glyph glyph-name="uni0433" unicode="&#x433;"
d="M364 195v421h296v-55h-231v-366h-65z" />
    <glyph glyph-name="uni0434" unicode="&#x434;"
d="M393 306v-102h-64v158h41q15 38 23.5 82t12.5 92q3 45 5 91.5t2 88.5h240v-354h42v-158h-64v102h-238zM438 362h150v298h-110q-2 -39 -3.5 -76.5t-4.5 -74.5q-4 -36 -11.5 -73t-20.5 -74z" />
    <glyph glyph-name="uni0435" unicode="&#x435;"
d="M711 396h-328q3 -27 12.5 -53t25.5 -47q15 -22 38 -35t54 -13q42 0 68.5 18.5t44.5 57.5h71q-22 -64 -68.5 -100.5t-115.5 -35.5q-46 0 -83 18.5t-63 51.5q-27 30 -40.5 70t-13.5 85q0 42 13 83t40 72q24 30 61.5 49.5t85.5 19.5q66 0 114 -38.5t69 -100.5
q6 -22 10.5 -45.5t4.5 -56.5zM513 578q-30 0 -52 -10t-36 -28q-15 -19 -24.5 -41.5t-15.5 -46.5h255q-6 24 -16.5 46t-25.5 41t-36.5 29t-48.5 10z" />
    <glyph glyph-name="uni0436" unicode="&#x436;"
d="M546 323v-128h-67v128l-48 57l-133 -185h-80l172 239l-147 182h78l158 -191v191h67v-191l157 191h78l-147 -182l172 -239h-80l-133 185z" />
    <glyph glyph-name="uni0437" unicode="&#x437;"
d="M648 269q-18 -43 -56 -61.5t-80 -18.5q-69 0 -108.5 40t-39.5 106h62q0 -42 22.5 -65.5t64.5 -23.5q33 0 56.5 19.5t26.5 55.5q0 33 -25 52.5t-55 19.5l-41 -1v61h35q20 0 37 9t27 27q9 18 8 35t-10 30q-10 12 -26.5 21t-34.5 9q-37 0 -55.5 -19t-18.5 -54h-60
q0 60 38 96t98 36q24 0 48 -10t43 -25q18 -16 30 -38t12 -48q-1 -34 -14.5 -55.5t-34.5 -42.5q42 -30 57 -68.5t-6 -86.5z" />
    <glyph glyph-name="uni0438" unicode="&#x438;"
d="M418 195h-70v421h67v-309l191 309h70v-421h-67v311z" />
    <glyph glyph-name="uni0439" unicode="&#x439;"
d="M512 670q-21 0 -44 8t-38 20q-18 12 -29.5 32t-20.5 48h54q12 -25 31.5 -40t46.5 -15q9 0 23 5t23 11t17 15t15 24h55q-13 -37 -32.5 -61.5t-58.5 -38.5q-12 -4 -22.5 -6t-19.5 -2zM418 206h-70v423h67v-311l191 311h70v-423h-67v313z" />
    <glyph glyph-name="uni043A" unicode="&#x43a;"
d="M389 325v-130h-65v421h65v-204l191 204h80l-178 -191l201 -230h-80l-164 183z" />
    <glyph glyph-name="uni043B" unicode="&#x43b;"
d="M467 561v-262q0 -18 -5.5 -40t-14.5 -34q-13 -19 -38 -27.5t-54 -8.5v57q18 0 27 5.5t13 14.5q3 6 5 17t2 20v313h267v-421h-67v366h-135z" />
    <glyph glyph-name="uni043C" unicode="&#x43c;"
d="M541 195h-59l-99 246v-246h-66v421h65l130 -327l129 327h66v-421h-66v246z" />
    <glyph glyph-name="uni043D" unicode="&#x43d;"
d="M418 389v-194h-66v421h66v-171h189v171h65v-421h-65v194h-189z" />
    <glyph glyph-name="uni043E" unicode="&#x43e;"
d="M511 188q-48 0 -85 18.5t-61 49.5q-27 30 -39.5 70.5t-12.5 85.5q0 42 13 83.5t38 72.5q26 30 62.5 49.5t84.5 19.5q47 0 83.5 -19.5t63.5 -49.5q24 -31 38.5 -71.5t14.5 -84.5q0 -45 -14 -85.5t-40 -70.5q-27 -31 -64 -49.5t-82 -18.5zM511 576q-33 0 -57.5 -15
t-39.5 -39q-16 -24 -23.5 -53.5t-7.5 -56.5q0 -28 8 -57t24 -53q15 -24 39 -39t57 -15q32 0 55.5 14.5t41.5 38.5q15 24 24 52.5t9 58.5q0 27 -8.5 56.5t-25.5 53.5q-16 24 -41 39t-55 15z" />
    <glyph glyph-name="uni043F" unicode="&#x43f;"
d="M419 561v-366h-66v421h318v-421h-66v366h-186z" />
    <glyph glyph-name="uni0440" unicode="&#x440;"
d="M518 234q-30 0 -63 13t-72 46v-187h-66v564h66v-44q41 33 71.5 46.5t63.5 13.5q45 0 80.5 -20t59.5 -52q24 -33 36.5 -73t12.5 -82t-13 -81.5t-37 -71.5q-24 -33 -59 -52.5t-80 -19.5zM511 624q-34 0 -58.5 -15t-39.5 -39q-16 -24 -23 -53t-7 -58q0 -30 7.5 -59t23.5 -53
q15 -24 39.5 -38.5t57.5 -14.5q32 0 55.5 15.5t39.5 39.5q15 24 22.5 53t7.5 57q0 27 -8 57t-23 54q-15 23 -38.5 38.5t-55.5 15.5z" />
    <glyph glyph-name="uni0441" unicode="&#x441;"
d="M515 188q-48 0 -84.5 18.5t-62.5 49.5q-25 30 -38.5 70.5t-13.5 85.5q0 44 13 84.5t38 71.5q26 30 63 49.5t85 19.5q34 0 64 -10.5t56 -30.5q26 -21 42.5 -48.5t23.5 -60.5h-70q-12 42 -43 66t-73 24q-33 0 -58 -15t-40 -39q-18 -24 -25 -54t-7 -57q0 -30 8 -58.5
t24 -52.5q17 -24 41 -38.5t57 -14.5q44 0 71 23t45 62h71q-21 -69 -69.5 -107t-117.5 -38z" />
    <glyph glyph-name="uni0442" unicode="&#x442;"
d="M479 195v366h-136v55h338v-55h-137v-366h-65z" />
    <glyph glyph-name="uni0443" unicode="&#x443;"
d="M409 106h-29v56h37q9 0 21 12t21 30l19 51l-165 415h70l130 -326l128 326h70l-196 -491q-9 -22 -24 -41.5t-36 -25.5q-13 -4 -23.5 -5t-22.5 -1z" />
    <glyph glyph-name="uni0444" unicode="&#x444;"
d="M653 705q42 0 75 -20t55 -50q21 -30 32.5 -68.5t11.5 -76.5q0 -39 -12.5 -77t-33.5 -68q-22 -31 -54.5 -50.5t-73.5 -19.5q-24 0 -48 9t-59 36v-197h-68v195l-40 -28q-54 -24 -97.5 -13t-75.5 42q-33 30 -50.5 76.5t-17.5 94.5q0 36 11.5 74.5t33.5 69.5q21 30 54 50.5
t75 20.5q23 0 47 -9t60 -33v203h68v-206q35 26 60 35.5t47 9.5zM653 648q-21 0 -44 -14.5t-34 -29.5q-15 -24 -21.5 -57t-6.5 -57q0 -27 6.5 -59.5t21.5 -53.5q12 -18 34.5 -32t43.5 -14q27 0 48 16t34 40q12 24 18.5 51.5t6.5 51.5q0 23 -6.5 50.5t-18.5 51.5
q-13 24 -34 40t-48 16zM371 648q-30 0 -49.5 -16.5t-31.5 -40.5q-13 -24 -18.5 -52t-5.5 -49q0 -45 18 -84.5t45 -59.5q27 -21 59.5 -16t60.5 47q14 21 21.5 53.5t7.5 59.5q0 17 -3 37.5t-11 41.5q-7 20 -19.5 37t-30.5 29q-12 6 -23 9.5t-20 3.5z" />
    <glyph glyph-name="uni0445" unicode="&#x445;"
d="M397 195h-79l155 215l-146 204h79l106 -148l106 148h78l-144 -204l154 -215h-79l-115 159z" />
    <glyph glyph-name="uni0446" unicode="&#x446;"
d="M331 274v424h65v-369h181v369h66v-369h50v-127h-66v72h-296z" />
    <glyph glyph-name="uni0447" unicode="&#x447;"
d="M344 449v167h66v-153q0 -48 28.5 -74t76.5 -23q14 0 31.5 6.5t32.5 18.5t25 26t10 32v167h66v-421h-66v158q-39 -27 -86 -36.5t-88 2.5q-42 11 -69 43t-27 87z" />
    <glyph glyph-name="uni0448" unicode="&#x448;"
d="M383 616v-365h94v365h67v-365h96v365h68v-421h-392v421h67z" />
    <glyph glyph-name="uni0449" unicode="&#x449;"
d="M293 196v425h66v-369h96v369h66v-369h95v369h68v-369h47v-126h-68v70h-370z" />
    <glyph glyph-name="uni044A" unicode="&#x44a;"
d="M581 195h-182v366h-114v55h182v-151h107q30 0 61 -9.5t55 -27.5t37.5 -45t11.5 -63q-3 -30 -18 -54t-36 -39q-22 -16 -49.5 -24t-54.5 -8zM571 409h-104v-158h103q38 0 68 18.5t31 60.5q0 42 -31 60.5t-67 18.5z" />
    <glyph glyph-name="uni044B" unicode="&#x44b;"
d="M737 616v-421h-66v421h66zM470 195h-183v421h67v-151h109q32 0 62 -9.5t54 -27.5t37 -45t11 -63q-3 -30 -17.5 -54t-35.5 -39q-24 -16 -50.5 -24t-53.5 -8zM461 409h-107v-158h106q21 0 42 7.5t36 22.5q14 14 18.5 34t-6.5 47q-12 27 -37 37t-52 10z" />
    <glyph glyph-name="uni044C" unicode="&#x44c;"
d="M524 195h-181v421h66v-151h109q32 0 62 -9.5t54 -27.5q23 -19 36 -46t11 -62q-3 -30 -18 -54t-36 -39q-22 -16 -49 -24t-54 -8zM514 409h-105v-158h105q36 0 66 18.5t31 60.5q0 6 -2 14.5t-5 17.5q-12 27 -37.5 37t-52.5 10z" />
    <glyph glyph-name="uni044D" unicode="&#x44d;"
d="M510 188q-75 0 -119.5 40.5t-65.5 106.5h68q15 -40 44.5 -61.5t71.5 -21.5q30 0 52.5 10.5t37.5 29.5q15 18 23.5 43t14.5 52h-143v56h143q-6 24 -14.5 49.5t-22.5 44.5q-15 20 -37 32t-52 12q-46 0 -74 -24.5t-45 -63.5h-67q21 66 65.5 106.5t119.5 40.5q47 0 83.5 -19
t61.5 -51q24 -31 37.5 -72.5t13.5 -83.5t-14 -83.5t-38 -71.5q-25 -33 -62 -52t-82 -19z" />
    <glyph glyph-name="uni044E" unicode="&#x44e;"
d="M577 186q-45 0 -80 15.5t-59 42.5q-25 27 -40 62t-20 77h-64v-185h-66v424h66v-178h65q6 39 21.5 72.5t39.5 60.5t58 41t79 14t82 -18.5t64 -48.5q24 -31 38.5 -71t14.5 -84q0 -45 -14 -86t-40 -71q-27 -31 -63.5 -49t-81.5 -18zM577 575q-33 0 -58.5 -15t-40.5 -39
q-16 -24 -24 -54t-8 -57q0 -30 8 -59t24 -53q15 -24 40.5 -39t58.5 -15q32 0 55.5 15t41.5 39q15 24 24 53t9 59q0 27 -8.5 57t-25.5 54q-16 23 -41 38.5t-55 15.5z" />
    <glyph glyph-name="uni044F" unicode="&#x44f;"
d="M537 366l-114 -171h-76l119 178q-39 18 -64 44.5t-25 74.5q0 30 10.5 53t32.5 39q21 15 46 23.5t54 8.5h170v-421h-65v171h-88zM444 492q0 -21 7.5 -35t22.5 -21t30.5 -10.5t33.5 -3.5h87v139h-87q-15 0 -30.5 -3t-30.5 -11q-15 -7 -24 -20.5t-9 -34.5z" />
    <glyph glyph-name="uni0451" unicode="&#x451;"
d="M542 743q0 18 13.5 31.5t32.5 13.5q17 0 31 -14t14 -31q0 -19 -14 -33t-31 -14q-19 0 -32.5 13t-13.5 34zM393 743q0 17 13 31t31 14t32.5 -14t14.5 -31q0 -19 -14.5 -33t-32.5 -14t-31 14t-13 33zM709 403h-325q3 -27 12.5 -52.5t25.5 -46.5q15 -22 37.5 -35t53.5 -13
q42 0 68.5 18.5t44.5 55.5h71q-24 -63 -69.5 -98.5t-114.5 -34.5q-46 0 -83.5 19.5t-61.5 50.5q-27 30 -40 70.5t-13 83.5q0 42 13.5 82t38.5 73q26 30 62 49.5t84 19.5q65 0 112.5 -40t68.5 -100q6 -21 10.5 -45t4.5 -57zM513 583q-30 0 -51.5 -9.5t-35.5 -27.5
q-15 -19 -24.5 -41t-15.5 -46h253q-6 24 -16.5 46t-24.5 41q-15 18 -36.5 27.5t-48.5 9.5z" />
    <glyph glyph-name="uni2015" unicode="&#x2015;"
d="M922 328h-821v53h821v-53z" />
    <glyph glyph-name="quoteleft" unicode="&#x2018;"
d="M825 665h-84l105 188h51z" />
    <glyph glyph-name="quoteright" unicode="&#x2019;"
d="M221 853h84l-104 -188h-51z" />
    <glyph glyph-name="quotedblleft" unicode="&#x201c;"
d="M732 665h-84l105 188h51zM854 665h-84l104 188h52z" />
    <glyph glyph-name="quotedblright" unicode="&#x201d;"
d="M306 856h85l-105 -190h-52zM184 856h85l-105 -190h-51z" />
    <glyph glyph-name="dagger" unicode="&#x2020;"
d="M749 570h-210v-593h-67v592h-208v66h208v214h67v-214h210v-65z" />
    <glyph glyph-name="daggerdbl" unicode="&#x2021;"
d="M749 580h-210v-84h195v-67h-195v-452h-67v452h-186v67h186v83h-208v67h208v203h67v-203h210v-66z" />
    <glyph glyph-name="onedotenleader" unicode="&#x2024;"
d="M558 500q0 -18 -10 -31t-31 -13t-31.5 13t-10.5 31t10.5 32t31.5 14t31 -14t10 -32z" />
    <glyph glyph-name="twodotenleader" unicode="&#x2025;"
d="M659 500q0 -18 -10.5 -31t-31.5 -13t-30.5 13t-9.5 31t9.5 32t30.5 14t31.5 -14t10.5 -32zM391 500q0 -18 -10 -31t-31 -13t-31.5 13t-10.5 31t10.5 32t31.5 14t31 -14t10 -32z" />
    <glyph glyph-name="ellipsis" unicode="&#x2026;"
d="M745 500q0 -18 -10.5 -31t-28.5 -13q-22 0 -32.5 13t-10.5 31t10.5 32t32.5 14q18 0 28.5 -14t10.5 -32zM558 500q0 -18 -10 -31t-31 -13t-31.5 13t-10.5 31t10.5 32t31.5 14q20 0 30.5 -14t10.5 -32zM371 500q0 -18 -11.5 -31t-29.5 -13q-22 0 -32 13t-10 31t10 32
t32 14q18 0 29.5 -14t11.5 -32z" />
    <glyph glyph-name="perthousand" unicode="&#x2030;"
d="M524 726l50 -49l-364 -415l-53 47zM233 738q24 0 44 -9t38 -26q17 -18 26 -38t9 -44t-9 -45t-26 -38q-18 -18 -38 -26t-44 -8t-44.5 8t-37.5 26q-18 17 -26 38t-8 45t8 44t26 38q17 17 37.5 26t44.5 9zM233 667q-19 0 -32.5 -14t-13.5 -32q0 -21 13.5 -33.5t32.5 -12.5
q18 0 32.5 12.5t14.5 33.5q0 18 -14.5 32t-32.5 14zM512 492q24 0 45 -9t39 -26q17 -18 26 -39t9 -45q0 -25 -9 -46t-26 -38q-18 -18 -39 -26.5t-45 -8.5q-25 0 -46.5 8.5t-38.5 26.5q-18 17 -26 38t-8 46q0 24 8 45t26 39q17 17 38.5 26t46.5 9zM512 420q-21 0 -34 -13.5
t-13 -33.5q0 -21 13 -34t34 -13q20 0 33.5 13t13.5 34q0 20 -13.5 33.5t-33.5 13.5zM788 492q24 0 45 -9t39 -26q17 -18 26 -39t9 -45q0 -25 -9 -46t-26 -38q-18 -18 -39 -26.5t-45 -8.5q-25 0 -46 8.5t-38 26.5q-18 17 -26.5 38t-8.5 46q0 24 8.5 45t26.5 39q17 17 38 26
t46 9zM788 420q-21 0 -34 -13.5t-13 -33.5q0 -21 13 -34t34 -13q18 0 33 13t15 34q0 20 -15 33.5t-33 13.5z" />
    <glyph glyph-name="minute" unicode="&#x2032;"
d="M658 853l-70 -152h-47l51 152h66z" />
    <glyph glyph-name="second" unicode="&#x2033;"
d="M648 853l-78 -152h-51l55 152h74zM567 853l-78 -152h-51l57 152h72z" />
    <glyph glyph-name="uni203B" unicode="&#x203b;"
d="M710 394q-36 0 -53 20.5t-17 45.5q0 24 17 45.5t53 21.5q33 0 50 -21.5t17 -45.5q0 -25 -17 -45.5t-50 -20.5zM507 595q-36 0 -53 20t-17 47q0 24 17 45.5t53 21.5q33 0 50 -21.5t17 -45.5q0 -27 -17 -47t-50 -20zM817 202l-47 -42l-264 257l-254 -262l-46 43l255 265
l-262 254l44 44l261 -254l254 261l48 -43l-256 -263zM308 394q-36 0 -52.5 20.5t-16.5 45.5q0 24 16.5 45.5t52.5 21.5q33 0 50 -21.5t17 -45.5q0 -25 -17 -45.5t-50 -20.5zM507 191q-36 0 -53 20.5t-17 45.5q0 24 17 45.5t53 21.5q33 0 50 -21.5t17 -45.5q0 -25 -17 -45.5
t-50 -20.5z" />
    <glyph glyph-name="uni2074" unicode="&#x2074;"
d="M116 699v157h45v-157q0 -19 9 -29t27 -11h27v143h45v-258h-45v67h-28q-39 0 -59.5 21.5t-20.5 66.5z" />
    <glyph glyph-name="uni207F" unicode="&#x207f;"
d="M92 739q0 48 21 76t63 28t62 -28t20 -76v-135h-44v134q0 21 -5.5 38.5t-32.5 17.5t-33 -18t-6 -38v-134h-45v135z" />
    <glyph glyph-name="uni2081" unicode="&#x2081;"
d="M174 145h-47v251h47v-251z" />
    <glyph glyph-name="uni2082" unicode="&#x2082;"
d="M151 457q45 0 68 -22.5t26 -58.5q0 -21 -4 -35.5t-11 -24.5q-7 -11 -16 -20t-18 -19q-21 -18 -30.5 -34.5t-9.5 -52.5v-9h87v-48h-129v57q0 50 15 77t39 48q14 9 24.5 23t10.5 32t-14.5 28.5t-37.5 10.5h-26v48h26z" />
    <glyph glyph-name="uni2083" unicode="&#x2083;"
d="M261 225q-1 -42 -25.5 -67.5t-86.5 -25.5h-21v46h23q30 0 46 12t16 36q0 21 -12.5 33t-56.5 12h-8v46h8q38 0 49.5 14.5t11.5 32.5q0 17 -12.5 27.5t-44.5 10.5h-14v46h16q54 0 77.5 -20t24.5 -62q-1 -27 -6.5 -41t-20.5 -28q17 -9 26 -24t10 -48z" />
    <glyph glyph-name="uni2084" unicode="&#x2084;"
d="M146 283v157h45v-157q0 -19 9 -29t27 -11h27v143h45v-258h-45v67h-28q-39 0 -59.5 21.5t-20.5 66.5z" />
    <glyph glyph-name="Euro" unicode="&#x20ac;" horiz-adv-x="954"
d="M766 670q-19 18 -42.5 40t-50.5 40t-60 30t-72 12t-74 -16.5t-62 -45.5q-30 -28 -49.5 -66t-25.5 -80h403l-16 -44h-391q-3 -15 -2.5 -29.5t3.5 -26.5h367l-17 -44h-344q18 -84 69 -135.5t126 -51.5q63 0 126 23t115 80v-52q-16 -23 -39.5 -42.5t-55.5 -36.5t-68.5 -25
t-77.5 -8q-52 0 -97 17.5t-81 50.5t-61.5 78t-36.5 102h-87l17 44h61q-1 7 -1 13.5v13.5v14t2 15h-78l16 44h69q11 47 36.5 91t62.5 80q38 33 85 54.5t104 21.5q15 0 33 -2.5t39 -5.5q21 -4 37.5 -10t29.5 -12l40 22l63 -121z" />
    <glyph glyph-name="uni2103" unicode="&#x2103;"
d="M415 730q0 -40 -27.5 -72t-78.5 -32t-76.5 32.5t-25.5 71.5q0 18 6 36t19 34q12 16 31.5 24.5t45.5 8.5t45.5 -8.5t33.5 -24.5q13 -16 20 -34t7 -36zM358 730q0 18 -12.5 34t-36.5 16t-36 -16t-12 -34q0 -21 12 -36t36 -15t36.5 15t12.5 36zM700 824v-85h-11
q-45 0 -74 -10t-46 -27q-16 -17 -22.5 -40.5t-6.5 -51.5v-160q0 -28 5.5 -52t22.5 -41q16 -18 45 -28t76 -10h17v-85h-26q-118 0 -171 58t-53 148v178q0 42 12.5 79.5t39.5 65.5t69.5 44.5t102.5 16.5h20z" />
    <glyph glyph-name="uni2109" unicode="&#x2109;"
d="M323 801q-27 0 -39 -16.5t-12 -34.5q0 -21 12 -36t39 -15q24 0 37 15t13 36q0 18 -13 34.5t-37 16.5zM323 847q48 0 73 -30.5t25 -66.5q0 -37 -25 -66.5t-73 -29.5q-51 0 -74.5 29.5t-23.5 66.5q0 36 23.5 66.5t74.5 30.5zM670 767q-43 0 -60 -17.5t-17 -55.5v-78h168
v-80h-168v-296h-79v454q0 77 33 115t123 38h56v-80h-56z" />
    <glyph glyph-name="uni2113" unicode="&#x2113;"
d="M519 239h-76v496h76v-496z" />
    <glyph glyph-name="uni2116" unicode="&#x2116;"
d="M922 239h-85v84h85v-84zM318 236v398q0 14 -3.5 28.5t-9.5 30.5q-7 15 -22.5 23.5t-39.5 8.5t-39 -8.5t-21 -23.5q-6 -16 -9 -30.5t-3 -28.5v-398h-76v408q0 83 39 123.5t109 40.5q69 0 109 -40.5t40 -123.5v-408h-74zM774 413q0 -94 -38 -140.5t-113 -46.5
q-78 0 -118 48.5t-40 138.5v79q0 75 41 125t119 50q36 0 63.5 -13t46.5 -38t29 -56.5t10 -67.5v-79zM699 487q0 45 -19 71.5t-60 26.5q-42 0 -62 -29.5t-20 -68.5v-79q0 -42 18.5 -73.5t63.5 -31.5q39 0 59 27.5t20 78.5v78z" />
    <glyph glyph-name="uni2121" unicode="&#x2121;"
d="M117 848h305v-74h-115v-536h-76v536h-114v74zM615 318q12 -3 36 -3t60 3v-78q-33 -4 -57 -4.5t-39 2.5q-81 5 -132 63t-51 175q0 93 44.5 146.5t119.5 53.5q39 0 67.5 -14.5t47.5 -41.5q18 -28 28 -61t10 -69v-69h-237q0 -39 28.5 -69.5t74.5 -33.5zM594 600
q-24 0 -40.5 -10t-25.5 -28q-9 -19 -13.5 -35.5t-4.5 -30.5h165q0 14 -4 30.5t-12 35.5q-8 18 -24.5 28t-40.5 10zM829 236v612h75v-612h-75z" />
    <glyph glyph-name="trademark" unicode="&#x2122;"
d="M145 848h306v-74h-115v-536h-76v536h-115v74zM819 236v403q0 30 -13.5 57.5t-43.5 27.5q-17 1 -28 -8t-18 -23q-7 -13 -9 -28.5t1 -25.5v-403h-76v403q2 10 -0.5 25.5t-9.5 28.5q-7 14 -19 23t-28 8q-17 2 -29 -7.5t-19 -23.5q-8 -14 -10 -29t1 -25v-403h-79v413
q0 30 7.5 58t23.5 53q15 24 40 37t60 13q45 0 67 -18t34 -41q12 23 35 41t62 18q69 0 98 -46t29 -115v-413h-76z" />
    <glyph glyph-name="Omega" unicode="&#x2126;"
d="M780 230h-231v242h79v196h-220v-196h77v-242h-228v114h76v-49h80v111h-85v327h377v-327h-82v-111h85v49h72v-114z" />
    <glyph glyph-name="uni212B" unicode="&#x212b;"
d="M618 783q0 -33 -20.5 -60t-61.5 -27q-42 0 -62 27t-20 60q0 30 20 58t62 28q41 0 61.5 -28t20.5 -58zM566 783q0 12 -7.5 22.5t-22.5 10.5t-23 -10.5t-8 -22.5q0 -15 8 -24.5t23 -9.5t22.5 9.5t7.5 24.5zM666 112h-77v258h-120q-15 0 -24 -8.5t-13 -21.5t-5 -27.5
t-1 -26.5v-174h-78v184q0 51 11 86.5t45 56.5v89q0 78 33 118t99 40q59 0 94.5 -36t35.5 -122v-416zM589 536q0 29 -10.5 49.5t-43.5 20.5q-30 0 -41 -20t-11 -50v-85h106v85z" />
    <glyph glyph-name="onethird" unicode="&#x2153;"
d="M632 704l-306 -462l-48 30l307 462zM309 399h-60v371h60v-371zM786 284q-3 -60 -38 -96.5t-122 -36.5h-30v66h33q45 0 66.5 17.5t21.5 50.5q0 30 -18 47.5t-81 17.5h-11v65h11q27 0 45 5t26 16t12 22.5t4 24.5q0 23 -18 38.5t-63 15.5h-19v66h22q78 0 110.5 -29t35.5 -89
q-3 -37 -9 -58t-30 -41q24 -12 36.5 -33.5t15.5 -68.5z" />
    <glyph glyph-name="twothirds" unicode="&#x2154;"
d="M675 707l-308 -463l-49 30l309 464zM237 830q65 0 98 -32t36 -83q1 -30 -5 -51t-16 -36q-10 -16 -23 -28.5t-25 -25.5q-15 -14 -26 -25t-18 -25q-8 -13 -11 -31t-3 -44l1 -12h124v-69h-184l-1 81q0 71 22 111t56 67q20 14 34.5 34.5t14.5 45.5q0 24 -20.5 39.5
t-53.5 15.5h-36v68h36zM830 288q-3 -60 -38 -96.5t-122 -36.5h-30v66h33q45 0 66.5 17.5t21.5 50.5q0 30 -18 47.5t-81 17.5h-11v65h11q27 0 45 5t26 16t12 22.5t4 24.5q0 23 -18 38.5t-63 15.5h-19v66h22q78 0 110.5 -29t35.5 -89q-3 -37 -9 -58t-30 -41q24 -12 36.5 -33.5
t15.5 -68.5z" />
    <glyph glyph-name="oneeighth" unicode="&#x215b;"
d="M607 704l-308 -462l-47 30l307 462zM284 399h-62v371h62v-371zM747 391q18 -16 30.5 -45.5t12.5 -64.5q0 -58 -34 -96.5t-91 -38.5q-27 0 -49 9.5t-40 28.5t-26.5 43t-8.5 54q0 35 11.5 64.5t32.5 45.5q-18 14 -26 36.5t-8 53.5q0 53 31.5 88t82.5 35t84 -35t33 -88
q0 -30 -9 -52.5t-26 -37.5zM665 542q-24 0 -37.5 -18t-13.5 -45q0 -22 11.5 -41.5t39.5 -19.5q29 0 41.5 19.5t12.5 41.5q0 27 -13.5 45t-40.5 18zM665 213q27 0 44 19.5t17 46.5q0 30 -16 52.5t-45 22.5q-30 0 -44.5 -21t-14.5 -54q0 -27 17 -46.5t42 -19.5z" />
    <glyph glyph-name="threeeighths" unicode="&#x215c;"
d="M644 707l-309 -463l-48 30l310 464zM360 507q0 -28 -11 -53.5t-29 -43.5q-19 -18 -44 -29t-52 -11h-40q-1 30 2.5 45.5t11.5 15.5h18q32 -3 59 19.5t27 56.5q0 17 -7 30.5t-20 25.5q-13 11 -23.5 17t-18.5 6q-15 0 -26.5 1.5t-11.5 2.5v47h23q35 -3 53.5 18.5t19.5 48.5
q0 27 -17 49t-53 22h-33v58l37 1q21 0 44 -8.5t42 -25.5q18 -16 29.5 -38.5t11.5 -49.5q0 -33 -10 -58t-31 -42q24 -21 36.5 -48t12.5 -57zM788 391q18 -16 30.5 -45.5t12.5 -64.5q0 -58 -34 -96.5t-91 -38.5q-27 0 -49 9.5t-40 28.5t-26.5 43t-8.5 54q0 35 11.5 64.5
t32.5 45.5q-18 14 -26 36.5t-8 53.5q0 53 31.5 88t82.5 35t84 -35t33 -88q0 -30 -9 -52.5t-26 -37.5zM706 542q-24 0 -37.5 -18t-13.5 -45q0 -22 11.5 -41.5t39.5 -19.5q29 0 41.5 19.5t12.5 41.5q0 27 -13.5 45t-40.5 18zM706 213q27 0 44 19.5t17 46.5q0 30 -16 52.5
t-45 22.5q-30 0 -44.5 -21t-14.5 -54q0 -27 17 -46.5t42 -19.5z" />
    <glyph glyph-name="fiveeighths" unicode="&#x215d;"
d="M655 707l-310 -463l-48 30l310 464zM789 391q18 -16 30.5 -45.5t12.5 -64.5q0 -58 -34 -96.5t-91 -38.5q-27 0 -49 9.5t-40 28.5t-26.5 43t-8.5 54q0 35 11.5 64.5t32.5 45.5q-18 14 -26 36.5t-8 53.5q0 53 31.5 88t82.5 35t84 -35t33 -88q0 -30 -9 -52.5t-26 -37.5z
M707 542q-24 0 -37.5 -18t-13.5 -45q0 -22 11.5 -41.5t39.5 -19.5q29 0 41.5 19.5t12.5 41.5q0 27 -13.5 45t-40.5 18zM707 213q27 0 44 19.5t17 46.5q0 30 -16 52.5t-45 22.5q-30 0 -44.5 -21t-14.5 -54q0 -27 17 -46.5t42 -19.5zM374 531q0 -72 -40 -111t-112 -39h-41v71
h41q36 0 60 22t24 55q0 32 -24 49.5t-72 17.5h-29v235h168v-67h-102v-96q63 -6 95 -43t32 -94z" />
    <glyph glyph-name="seveneighths" unicode="&#x215e;"
d="M675 707l-310 -464l-49 31l311 463zM814 391q18 -16 30.5 -45.5t12.5 -64.5q0 -58 -34 -96.5t-91 -38.5q-27 0 -49 9.5t-40 28.5t-26.5 43t-8.5 54q0 35 11.5 64.5t32.5 45.5q-18 14 -26 36.5t-8 53.5q0 53 31.5 88t82.5 35t84 -35t33 -88q0 -30 -9 -52.5t-26 -37.5z
M732 542q-24 0 -37.5 -18t-13.5 -45q0 -22 11.5 -41.5t39.5 -19.5q29 0 41.5 19.5t12.5 41.5q0 27 -13.5 45t-40.5 18zM732 213q27 0 44 19.5t17 46.5q0 30 -16 52.5t-45 22.5q-30 0 -44.5 -21t-14.5 -54q0 -27 17 -46.5t42 -19.5zM319 830q38 0 53 -20.5t7 -60.5
q-1 -3 -6 -21.5t-13 -46.5q-7 -28 -16 -63t-17 -70q-11 -43 -23 -88.5t-26 -93.5l-65 17l98 376h-133v71h141z" />
    <glyph glyph-name="uni2160" unicode="&#x2160;"
d="M550 239h-76v614h76v-614z" />
    <glyph glyph-name="uni2161" unicode="&#x2161;"
d="M447 239h-75v614h75v-614zM652 239h-75v614h75v-614z" />
    <glyph glyph-name="uni2162" unicode="&#x2162;"
d="M345 239h-76v614h76v-614zM550 239h-76v614h76v-614zM755 239h-76v614h76v-614z" />
    <glyph glyph-name="uni2163" unicode="&#x2163;"
d="M344 239h-77v614h77v-614zM576 238h-95q-8 0 -9 5l-1 5v604h74v-530l20 20t24 26q9 9 19.5 25.5t23.5 38.5q12 22 18.5 41t6.5 35v344h78v-363q0 -20 -7 -43t-20 -49q-13 -27 -27 -48t-28 -36q-15 -16 -27 -29t-22 -22q-9 -10 -16.5 -16.5t-11.5 -7.5z" />
    <glyph glyph-name="uni2164" unicode="&#x2164;"
d="M476 238h-95q-8 0 -9 5l-1 5v604h74v-530l20 20t24 26q9 9 19.5 25.5t23.5 38.5q12 22 18.5 41t6.5 35v344h78v-363q0 -20 -7 -43t-20 -49q-13 -27 -27 -48t-28 -36q-15 -16 -27 -29t-22 -22q-9 -10 -16.5 -16.5t-11.5 -7.5z" />
    <glyph glyph-name="uni2165" unicode="&#x2165;"
d="M756 239h-77v614h77v-614zM373 238h-95q-8 0 -9 5l-1 5v604h74v-530l20 20t24 26q9 9 19.5 25.5t23.5 38.5q12 22 18.5 41t6.5 35v344h78v-363q0 -20 -7 -43t-20 -49q-13 -27 -27 -48t-28 -36q-15 -16 -27 -29t-22 -22q-9 -10 -16.5 -16.5t-11.5 -7.5z" />
    <glyph glyph-name="uni2166" unicode="&#x2166;"
d="M648 239h-76v614h76v-614zM843 239h-77v614h77v-614zM294 238h-95q-8 0 -9 5l-1 5v604h74v-530l20 20t24 26q9 9 19.5 25.5t23.5 38.5q12 22 18.5 41t6.5 35v344h78v-363q0 -20 -7 -43t-20 -49q-13 -27 -27 -48t-28 -36q-15 -16 -27 -29t-22 -22q-9 -10 -16.5 -16.5
t-11.5 -7.5z" />
    <glyph glyph-name="uni2167" unicode="&#x2167;"
d="M541 239h-77v614h77v-614zM736 239h-77v614h77v-614zM930 239h-77v614h77v-614zM201 238h-95q-8 0 -9 5l-1 5v604h74v-530l20 20t24 26q9 9 19.5 25.5t23.5 38.5q12 22 18.5 41t6.5 35v344h78v-363q0 -20 -7 -43t-20 -49q-13 -27 -27 -48t-28 -36q-15 -16 -27 -29
t-22 -22q-9 -10 -16.5 -16.5t-11.5 -7.5z" />
    <glyph glyph-name="uni2168" unicode="&#x2168;"
d="M345 239h-77v614h77v-614zM729 674q0 -27 -3 -44.5t-9 -29.5q-5 -12 -13.5 -21t-19.5 -19q30 -19 37.5 -44t7.5 -73v-208h-75v209q-3 38 -18.5 57t-44.5 19q-27 0 -42.5 -19t-18.5 -57v-209h-77v208q0 48 10 73t37 44q-12 10 -20.5 19t-14.5 21t-9 29.5t-3 44.5v177h77
v-184q3 -36 17.5 -54t41.5 -18q33 0 49 18.5t16 57.5v180h75v-177z" />
    <glyph glyph-name="uni2169" unicode="&#x2169;"
d="M677 674q0 -27 -3 -44.5t-9 -29.5q-5 -12 -13.5 -21t-19.5 -19q30 -19 37.5 -44t7.5 -73v-208h-75v209q-3 38 -18.5 57t-44.5 19q-27 0 -42.5 -19t-18.5 -57v-209h-77v208q0 48 10 73t37 44q-12 10 -20.5 19t-14.5 21t-9 29.5t-3 44.5v177h77v-184q3 -36 17.5 -54
t41.5 -18q33 0 49 18.5t16 57.5v180h75v-177z" />
    <glyph glyph-name="uni2170" unicode="&#x2170;"
d="M550 238h-76v343h76v-343zM552 657h-80v80h80v-80z" />
    <glyph glyph-name="uni2171" unicode="&#x2171;"
d="M447 238h-75v343h75v-343zM450 657h-80v80h80v-80zM652 238h-75v343h75v-343zM654 657h-80v80h80v-80z" />
    <glyph glyph-name="uni2172" unicode="&#x2172;"
d="M345 238h-76v343h76v-343zM347 657h-80v80h80v-80zM550 238h-76v343h76v-343zM552 657h-80v80h80v-80zM755 238h-76v343h76v-343zM757 657h-80v80h80v-80z" />
    <glyph glyph-name="uni2173" unicode="&#x2173;"
d="M355 238h-76v343h76v-343zM356 657h-80v80h80v-80zM560 238h-66q-8 0 -9 5l-1 5v354h78v-262q4 1 4.5 1t2.5 2t8.5 7t23.5 18q37 37 55.5 72.5t18.5 90.5v71h82v-91q0 -53 -23.5 -100t-55.5 -84q-32 -36 -65.5 -59.5t-52.5 -29.5z" />
    <glyph glyph-name="uni2174" unicode="&#x2174;"
d="M458 238h-66q-8 0 -9 5l-1 5v354h78v-262q4 1 4.5 1t2.5 2t8.5 7t23.5 18q37 37 55.5 72.5t18.5 90.5v71h82v-91q0 -53 -23.5 -100t-55.5 -84q-32 -36 -65.5 -59.5t-52.5 -29.5z" />
    <glyph glyph-name="uni2175" unicode="&#x2175;"
d="M741 238h-76v343h76v-343zM743 657h-79v80h79v-80zM360 238h-66q-8 0 -9 5l-1 5v354h78v-262q4 1 4.5 1t2.5 2t8.5 7t23.5 18q37 37 55.5 72.5t18.5 90.5v71h82v-91q0 -53 -23.5 -100t-55.5 -84q-32 -36 -65.5 -59.5t-52.5 -29.5z" />
    <glyph glyph-name="uni2176" unicode="&#x2176;"
d="M644 238h-77v343h77v-343zM646 657h-80v80h80v-80zM839 238h-77v343h77v-343zM841 657h-80v80h80v-80zM266 238h-66q-8 0 -9 5l-1 5v354h78v-262q4 1 4.5 1t2.5 2t8.5 7t23.5 18q37 37 55.5 72.5t18.5 90.5v71h82v-91q0 -53 -23.5 -100t-55.5 -84q-32 -36 -65.5 -59.5
t-52.5 -29.5z" />
    <glyph glyph-name="uni2177" unicode="&#x2177;"
d="M552 238h-77v343h77v-343zM554 657h-80v80h80v-80zM736 238h-77v343h77v-343zM738 657h-80v80h80v-80zM921 238h-77v343h77v-343zM923 657h-80v80h80v-80zM187 238h-66q-8 0 -9 5l-1 5v354h78v-262q4 1 4.5 1t2.5 2t8.5 7t23.5 18q37 37 55.5 72.5t18.5 90.5v71h82v-91
q0 -53 -23.5 -100t-55.5 -84q-32 -36 -65.5 -59.5t-52.5 -29.5z" />
    <glyph glyph-name="uni2178" unicode="&#x2178;"
d="M366 238h-77v343h77v-343zM367 657h-80v80h80v-80zM745 572q0 -24 -2.5 -42t-6.5 -30q-4 -13 -13 -28t-23 -31q24 -25 34.5 -57t10.5 -83v-65h-77v65q0 17 -3.5 33t-9.5 32q-7 15 -19.5 23.5t-30.5 8.5q-16 0 -28 -8.5t-20 -24.5t-11.5 -32.5t-3.5 -33.5v-63h-78v65
q0 51 10.5 83t31.5 57q-27 30 -34.5 57.5t-7.5 73.5v39h78v-39q0 -33 13.5 -58.5t49.5 -25.5q35 0 49 25.5t14 58.5v39h77v-39z" />
    <glyph glyph-name="uni2179" unicode="&#x2179;"
d="M652 572q0 -24 -2.5 -42t-6.5 -30q-4 -13 -13 -28t-23 -31q24 -25 34.5 -57t10.5 -83v-65h-77v65q0 17 -3.5 33t-9.5 32q-7 15 -19.5 23.5t-30.5 8.5q-16 0 -28 -8.5t-20 -24.5t-11.5 -32.5t-3.5 -33.5v-63h-78v65q0 51 10.5 83t31.5 57q-27 30 -34.5 57.5t-7.5 73.5v39
h78v-39q0 -33 13.5 -58.5t49.5 -25.5q35 0 49 25.5t14 58.5v39h77v-39z" />
    <glyph glyph-name="arrowleft" unicode="&#x2190;"
d="M869 423h-498v-82l-268 110l268 120v-88h498v-60z" />
    <glyph glyph-name="arrowup" unicode="&#x2191;"
d="M610 581h-82v-499h-59v499h-88l120 267z" />
    <glyph glyph-name="arrowright" unicode="&#x2192;"
d="M889 451l-267 -110v82h-499v60h499v88z" />
    <glyph glyph-name="arrowdown" unicode="&#x2193;"
d="M610 330l-109 -267l-120 267h88v499h59v-499h82z" />
    <glyph glyph-name="arrowboth" unicode="&#x2194;"
d="M971 451l-270 -110v82h-379v-82l-270 110l270 120v-88h379v88z" />
    <glyph glyph-name="arrowupdn" unicode="&#x2195;"
d="M621 208l-108 -256l-117 256h88v342h-88l117 256l108 -256h-83v-342h83z" />
    <glyph glyph-name="uni2196" unicode="&#x2196;"
d="M774 213l-40 -39l-352 352l-67 -67l-91 266l259 -98l-61 -61z" />
    <glyph glyph-name="uni2197" unicode="&#x2197;"
d="M777 724l-98 -259l-62 62l-352 -352l-40 39l353 353l-67 66z" />
    <glyph glyph-name="uni2198" unicode="&#x2198;"
d="M776 170l-259 100l62 61l-353 352l40 40l352 -352l66 66z" />
    <glyph glyph-name="uni2199" unicode="&#x2199;"
d="M775 682l-352 -352l65 -66l-266 -91l99 259l62 -62l352 352z" />
    <glyph glyph-name="arrowdblright" unicode="&#x21d2;"
d="M937 369l-274 -228l-37 35l103 85h-553v52h617l67 56l-72 57h-612v54h548l-94 75l37 38z" />
    <glyph glyph-name="arrowdblboth" unicode="&#x21d4;"
d="M968 369l-276 -228l-37 35l104 85h-461l103 -85l-36 -35l-276 228l271 224l37 -38l-94 -75h451l-95 75l37 38zM891 369l-72 57h-581l-72 -57l67 -56h590z" />
    <glyph glyph-name="universal" unicode="&#x2200;"
d="M357 825h77v-258h120q15 0 23.5 8t12.5 21t5.5 27.5t1.5 27.5v174h78v-184q0 -52 -11.5 -87t-44.5 -56v-89q0 -79 -33 -118.5t-99 -39.5q-60 0 -95 35.5t-35 122.5v416zM434 401q0 -30 10.5 -50.5t43.5 -19.5q30 0 41 20t11 50v85h-106v-85z" />
    <glyph glyph-name="partialdiff" unicode="&#x2202;"
d="M681 307q0 -39 -15.5 -71t-39.5 -56q-25 -25 -57.5 -38.5t-67.5 -13.5q-36 0 -67.5 14t-55.5 38t-37.5 56t-13.5 71q0 35 13 68.5t37 60.5q23 26 55 42t69 16q30 0 59 -11.5t56 -34.5v246h-169v66h234v-453zM616 310q0 24 -8.5 44.5t-24.5 38.5q-17 18 -37 27t-43 9
q-24 0 -44.5 -9t-36.5 -27q-17 -18 -25 -38.5t-8 -44.5t8 -45t25 -39q16 -18 36.5 -26.5t44.5 -8.5q23 0 43 8.5t37 26.5q16 18 24.5 39t8.5 45z" />
    <glyph glyph-name="existential" unicode="&#x2203;"
d="M401 768v81h88q83 0 124.5 -42.5t41.5 -114.5v-284q0 -87 -40 -124t-124 -37h-83v80h89q42 0 61.5 25.5t19.5 58.5v92h-168v81h168v98q0 41 -24 62t-72 24h-81z" />
    <glyph glyph-name="gradient" unicode="&#x2207;"
d="M883 702l-363 -587l-358 587h721zM769 646h-498l248 -418z" />
    <glyph glyph-name="element" unicode="&#x2208;"
d="M784 259h-361q-52 0 -91 18.5t-66 49.5q-27 30 -39.5 69.5t-12.5 81.5q0 36 13.5 73t40.5 68q27 30 66.5 49.5t93.5 19.5h356v-54h-358q-28 0 -55 -9.5t-48 -26.5q-21 -18 -35 -42.5t-17 -54.5h513v-54h-514q3 -34 15.5 -59t35.5 -42q23 -18 48 -26t53 -8h362v-53z" />
    <glyph glyph-name="suchthat" unicode="&#x220b;"
d="M784 478q0 -42 -13.5 -81.5t-39.5 -69.5q-27 -31 -66 -49.5t-90 -18.5h-361v53h363q27 0 52.5 8t46.5 26q21 17 35 42t17 59h-514v54h513q-3 30 -17.5 54.5t-35.5 42.5q-21 17 -48 26.5t-54 9.5h-358v54h356q53 0 93 -19.5t67 -49.5q27 -31 40.5 -68t13.5 -73z" />
    <glyph glyph-name="product" unicode="&#x220f;"
d="M246 839h532v-74h-124v-526h-76v526h-134v-526h-75v526h-123v74z" />
    <glyph glyph-name="summation" unicode="&#x2211;"
d="M421 314h277v-75h-371v75l198 234l-187 215l1 75h355v-74h-264l191 -216z" />
    <glyph glyph-name="radical" unicode="&#x221a;"
d="M869 760h-397l-111 -641h-94l-66 189h67q19 -60 30 -82.5t14 -8.5l51 289l57 316h449v-62z" />
    <glyph glyph-name="proportional" unicode="&#x221d;"
d="M802 642l-29 -52q-18 12 -40.5 18.5t-52.5 6.5q-24 -1 -44.5 -11t-35.5 -28q-16 -19 -31 -40.5t-28 -45.5q5 -11 11 -22.5t13 -22.5q6 -12 13.5 -22.5t16.5 -19.5q17 -19 39 -31t52 -12h19t19 2q10 3 22 8t27 16l29 -50q-27 -18 -59 -26t-62 -8q-34 0 -61 9.5t-48 27.5
q-21 17 -38.5 38.5t-29.5 45.5q-15 -24 -32 -46t-40 -39q-24 -18 -53.5 -27t-68.5 -9q-36 0 -68.5 10t-58.5 32q-25 21 -40.5 56t-15.5 83q0 45 16.5 81.5t43.5 60.5t60.5 37t69.5 13t64.5 -10.5t52.5 -27.5q21 -18 38.5 -39.5t32.5 -44.5q14 22 31.5 42.5t39.5 39.5
q21 18 47.5 28t59.5 10q27 0 56.5 -6.5t62.5 -24.5zM469 489q-15 27 -30.5 49.5t-32.5 41.5q-18 18 -42 28t-54 10q-27 0 -48.5 -10t-38.5 -30q-17 -21 -25 -45t-8 -52q0 -54 33 -89t81 -35q62 0 100 35.5t65 96.5z" />
    <glyph glyph-name="infinity" unicode="&#x221e;"
d="M831 482q0 -33 -10.5 -61t-30.5 -51q-21 -24 -49.5 -35t-64.5 -11q-64 0 -101.5 28t-64.5 70q-30 -48 -70.5 -72.5t-97.5 -24.5q-36 0 -64.5 13.5t-48.5 35.5q-21 23 -31.5 51t-10.5 58t11 58t33 49q21 21 52.5 34t71.5 13q47 0 86 -25t69 -73q26 41 63.5 69.5t98.5 28.5
q29 0 57 -11t52 -29q21 -21 35.5 -50t14.5 -65zM773 481q0 18 -7 35t-19 34q-13 17 -32 25.5t-44 8.5q-49 0 -77.5 -29.5t-51.5 -74.5q18 -42 49.5 -73t79.5 -31q42 0 72 27t30 78zM478 479q-33 62 -67 84t-61 22q-23 0 -41.5 -8t-32.5 -23q-15 -15 -22 -32.5t-7 -35.5
q0 -51 25.5 -80.5t70.5 -29.5q54 0 85.5 30.5t49.5 72.5z" />
    <glyph glyph-name="angle" unicode="&#x2220;"
d="M813 180h-570v36l432 543l47 -36l-385 -485h476v-58z" />
    <glyph glyph-name="uni2225" unicode="&#x2225;"
d="M627 193h-56v637h56v-637zM457 193h-57v637h57v-637z" />
    <glyph glyph-name="logicaland" unicode="&#x2227;"
d="M808 191l-54 -32l-246 527l-255 -522l-56 27l311 637z" />
    <glyph glyph-name="logicalor" unicode="&#x2228;"
d="M808 804l-300 -637l-301 637l56 27l245 -520l246 525z" />
    <glyph glyph-name="intersection" unicode="&#x2229;"
d="M733 196h-56v374q0 30 -13 59t-36 50q-22 21 -53 34t-64 13q-36 0 -66 -12.5t-53 -32.5q-24 -21 -36.5 -47t-12.5 -53v-385h-56v384q0 42 18 79t51 64q30 27 71 42t84 15q42 0 82 -16.5t71 -43.5q30 -27 49.5 -65t19.5 -82v-377z" />
    <glyph glyph-name="union" unicode="&#x222a;"
d="M733 408q0 -55 -21 -95t-54 -66q-33 -27 -73.5 -39.5t-79.5 -12.5q-42 0 -81.5 13t-69.5 40q-31 27 -49.5 67.5t-18.5 97.5v358h57v-352q0 -46 14.5 -78.5t38.5 -53.5q23 -21 51.5 -30.5t56.5 -9.5q27 0 58.5 9.5t56.5 30.5q24 21 41 53t17 77v354h56v-363z" />
    <glyph glyph-name="integral" unicode="&#x222b;"
d="M654 814l-102 -88v-474l-156 -102l-32 56l126 76v471l125 113z" />
    <glyph glyph-name="uni222C" unicode="&#x222c;"
d="M727 809l-106 -87v-474l-151 -115l-34 56l121 87v472l129 114zM594 814l-106 -88v-475l-159 -102l-35 57l131 75v471l129 114z" />
    <glyph glyph-name="uni222E" unicode="&#x222e;"
d="M482 443v136q-19 -9 -31.5 -27.5t-12.5 -41.5q0 -22 12.5 -40.5t31.5 -26.5zM547 576v-130q17 9 28 26t11 38t-11 39t-28 27zM547 653q47 -12 79 -52t32 -91t-32 -90.5t-79 -50.5l-1 -67v-69l-125 -103l-44 55l103 81v102q-49 9 -81.5 49.5t-32.5 92.5q0 53 32.5 92.5
t81.5 51.5v108l140 92l33 -63l-107 -66z" />
    <glyph glyph-name="therefore" unicode="&#x2234;"
d="M563 665q0 -16 -11.5 -31t-34.5 -15q-24 0 -35 15t-11 31q0 17 11 32t35 15q23 0 34.5 -15t11.5 -32zM752 304q0 -18 -12.5 -32t-33.5 -14q-24 0 -35.5 14t-11.5 32q0 15 11.5 30.5t35.5 15.5q21 0 33.5 -15.5t12.5 -30.5zM370 304q0 -18 -12.5 -32t-33.5 -14
q-24 0 -35 14t-11 32q0 15 11 30.5t35 15.5q21 0 33.5 -15.5t12.5 -30.5z" />
    <glyph glyph-name="uni2235" unicode="&#x2235;"
d="M752 666q0 -16 -12.5 -31.5t-33.5 -15.5q-24 0 -35.5 15.5t-11.5 31.5q0 15 11.5 30.5t35.5 15.5q21 0 33.5 -15.5t12.5 -30.5zM370 666q0 -16 -12.5 -31.5t-33.5 -15.5q-24 0 -35 14.5t-11 32.5q0 17 11 31.5t35 14.5q21 0 33.5 -15.5t12.5 -30.5zM563 304
q0 -18 -11.5 -32t-34.5 -14q-24 0 -35 14t-11 32q0 15 11 30.5t35 15.5q23 0 34.5 -15.5t11.5 -30.5z" />
    <glyph glyph-name="similar" unicode="&#x223c;"
d="M722 501h-334v-137h-62v201h331v140h65v-204z" />
    <glyph glyph-name="uni223D" unicode="&#x223d;"
d="M887 477q0 -45 -13.5 -79t-40.5 -58t-59 -36t-69 -12q-21 0 -38.5 2t-29.5 6q-13 4 -29.5 11t-34.5 16l35 51q23 -18 48 -25t50 -7q21 -1 42 7.5t39 24.5q17 17 28 42t11 58q0 32 -10 55.5t-30 39.5q-21 15 -43.5 23.5t-47.5 8.5q-49 0 -79.5 -30.5t-51.5 -66.5
q-11 -18 -21 -36.5t-21 -36.5q-10 -19 -21 -36.5t-23 -33.5q-27 -33 -61 -53t-84 -20q-37 0 -72.5 9.5t-62.5 31.5q-28 21 -45 57t-17 87q0 42 14.5 76t39.5 58q24 23 57 36t72 13q36 0 60.5 -6.5t60.5 -21.5l-29 -55q-24 12 -46 20.5t-46 8.5q-22 0 -44 -9t-39 -24
q-18 -16 -28.5 -40t-10.5 -56q0 -63 31 -94.5t97 -31.5q48 0 78 28t52 67l30 57q15 27 33.5 56t43.5 51q24 21 58 35.5t82 14.5q36 0 70.5 -12t59.5 -36q24 -24 39.5 -57.5t15.5 -77.5z" />
    <glyph glyph-name="uni2252" unicode="&#x2252;"
d="M827 521h-601v57h601v-57zM378 689q0 -18 -13 -34t-37 -16q-27 0 -38.5 16t-11.5 34q0 17 11.5 33.5t38.5 16.5q24 0 37 -16.5t13 -33.5zM777 255q0 -18 -13 -33.5t-37 -15.5q-25 0 -37.5 15.5t-12.5 33.5t11.5 34.5t38.5 16.5q24 0 37 -16.5t13 -34.5zM827 349h-601v57
h601v-57z" />
    <glyph glyph-name="notequal" unicode="&#x2260;"
d="M402 560l53 26l47 -105h173v-71h-143l31 -69h114v-71h-81l33 -74l-52 -27l-45 101h-185v71h153l-31 69h-120v71h89z" />
    <glyph glyph-name="equivalence" unicode="&#x2261;"
d="M827 594h-618v57h618v-57zM829 444h-618v57h618v-57zM828 295h-618v58h618v-58z" />
    <glyph glyph-name="lessequal" unicode="&#x2264;"
d="M781 180h-579v56h579v-56zM740 296l-510 214l512 242l21 -53l-392 -184l392 -166z" />
    <glyph glyph-name="greaterequal" unicode="&#x2265;"
d="M802 180h-580v56h580v-56zM273 296l-22 53l392 166l-392 184l20 53l512 -242z" />
    <glyph glyph-name="uni226A" unicode="&#x226a;"
d="M929 157h-92l-406 298l406 289h91l-405 -289zM768 157h-92l-406 298l406 289h91l-405 -289z" />
    <glyph glyph-name="uni226B" unicode="&#x226b;"
d="M758 455l-406 -298h-92l406 298l-405 289h91zM597 455l-406 -298h-92l406 298l-405 289h91z" />
    <glyph glyph-name="propersubset" unicode="&#x2282;"
d="M795 269h-372q-52 0 -91 19.5t-66 52.5t-39.5 72.5t-12.5 81.5q0 35 13 73t40 71q27 30 67 51.5t94 21.5h367v-53h-369q-30 0 -57 -13t-50 -34q-22 -22 -35.5 -52.5t-13.5 -66.5q0 -40 13 -72t35 -53q21 -24 48.5 -35t55.5 -11h373v-53z" />
    <glyph glyph-name="propersuperset" unicode="&#x2283;"
d="M805 492q0 -40 -12.5 -79.5t-36.5 -71.5q-25 -33 -64 -52.5t-92 -19.5h-379v53h373q68 0 109.5 44.5t41.5 125.5q0 74 -41 120.5t-112 46.5h-371v53h376q54 0 93.5 -21t64.5 -53q26 -33 38 -71.5t12 -74.5z" />
    <glyph glyph-name="reflexsubset" unicode="&#x2286;"
d="M759 370h-339q-81 0 -126 51t-45 129q0 33 10.5 64t34.5 55q21 24 54.5 38.5t76.5 14.5h334v-53h-336q-46 0 -82 -31t-36 -91q0 -30 8.5 -53.5t26.5 -38.5q17 -16 37 -23.5t42 -7.5h340v-54zM766 247h-507v54h507v-54z" />
    <glyph glyph-name="reflexsuperset" unicode="&#x2287;"
d="M766 550q0 -78 -45 -129t-126 -51h-339v54h340q21 0 40.5 7.5t37.5 23.5q18 15 27 38.5t9 53.5t-9.5 53t-27.5 38t-38.5 23t-42.5 8h-336v53h334q42 0 74 -14.5t56 -38.5q21 -24 33.5 -55t12.5 -64zM756 247h-507v54h507v-54z" />
    <glyph glyph-name="uni2299" unicode="&#x2299;"
d="M852 466q-1 -63 -22.5 -121.5t-63.5 -105.5q-42 -46 -105.5 -74.5t-147.5 -28.5q-82 0 -143.5 28.5t-102.5 74.5q-42 47 -62 105.5t-20 121.5q0 60 20 120t62 106q41 47 102.5 75.5t143.5 28.5q84 0 147.5 -28.5t105.5 -75.5q42 -46 64 -106t22 -120zM803 466
q0 54 -18 106.5t-54 92.5q-36 41 -89.5 66t-124.5 25q-72 0 -125.5 -25t-89.5 -66q-36 -42 -53.5 -94t-17.5 -106q0 -55 17.5 -107.5t53.5 -91.5q36 -42 89.5 -66t125.5 -24q71 0 124.5 24t89.5 66q35 39 53 92t19 108zM513 314q-39 0 -67.5 13t-46.5 34q-19 21 -28.5 48
t-9.5 57q0 29 9.5 56t28.5 49q18 21 46.5 34.5t67.5 13.5q38 0 66.5 -13.5t47.5 -34.5q18 -22 28 -49t10 -56q0 -30 -10 -57t-28 -48q-19 -21 -47.5 -34t-66.5 -13z" />
    <glyph glyph-name="perpendicular" unicode="&#x22a5;"
d="M806 180h-591v58h264v500h66v-500h261v-58z" />
    <glyph glyph-name="uni2312" unicode="&#x2312;"
d="M836 647h-73q-15 33 -40 60t-58 46q-34 18 -73.5 29t-80.5 11q-42 0 -82 -10.5t-73 -28.5q-34 -19 -59 -45.5t-37 -59.5h-70q15 48 46.5 86.5t76.5 63.5q42 26 93 39t105 13q51 0 102 -13t96 -39q44 -25 76.5 -63.5t50.5 -88.5z" />
    <glyph glyph-name="uni2460" unicode="&#x2460;"
d="M846 502q0 -64 -21 -123.5t-63 -104.5q-42 -46 -104.5 -73.5t-145.5 -27.5q-84 0 -146.5 27.5t-104.5 75.5q-42 45 -62.5 104t-20.5 122q0 60 20.5 120t62.5 106q42 47 104.5 75.5t146.5 28.5q83 0 145.5 -28.5t104.5 -75.5q42 -46 63 -106t21 -120zM796 502
q0 53 -18 103.5t-54 90.5q-36 39 -89.5 63.5t-122.5 24.5q-72 0 -125 -24.5t-88 -63.5q-36 -40 -53.5 -90.5t-17.5 -103.5q0 -54 17.5 -104.5t53.5 -89.5q35 -39 88 -63t125 -24q71 0 124 23.5t89 63.5q35 39 53 89.5t18 104.5zM542 305h-62v371h62v-371z" />
    <glyph glyph-name="uni2461" unicode="&#x2461;"
d="M846 502q0 -64 -21 -123.5t-63 -104.5q-42 -46 -104.5 -73.5t-145.5 -27.5q-84 0 -146.5 27.5t-104.5 75.5q-42 45 -62.5 104t-20.5 122q0 60 20.5 120t62.5 106q42 47 104.5 75.5t146.5 28.5q83 0 145.5 -28.5t104.5 -75.5q42 -46 63 -106t21 -120zM796 502
q0 53 -18 103.5t-54 90.5q-36 39 -89.5 63.5t-122.5 24.5q-72 0 -125 -24.5t-88 -63.5q-36 -40 -53.5 -90.5t-17.5 -103.5q0 -54 17.5 -104.5t53.5 -89.5q35 -39 88 -63t125 -24q71 0 124 23.5t89 63.5q35 39 53 89.5t18 104.5zM470 727q63 0 96 -32.5t36 -80.5
q1 -30 -5 -50.5t-16 -35.5t-22.5 -27.5t-24.5 -26.5q-31 -25 -44 -48t-13 -75l1 -12h122v-68h-181l-1 80q0 69 21.5 109t55.5 67q18 14 33 34t15 44q0 26 -20.5 40.5t-52.5 14.5h-36v67h36z" />
    <glyph glyph-name="uni2462" unicode="&#x2462;"
d="M846 502q0 -64 -21 -123.5t-63 -104.5q-42 -46 -104.5 -73.5t-145.5 -27.5q-84 0 -146.5 27.5t-104.5 75.5q-42 45 -62.5 104t-20.5 122q0 60 20.5 120t62.5 106q42 47 104.5 75.5t146.5 28.5q83 0 145.5 -28.5t104.5 -75.5q42 -46 63 -106t21 -120zM796 502
q0 53 -18 103.5t-54 90.5q-36 39 -89.5 63.5t-122.5 24.5q-72 0 -125 -24.5t-88 -63.5q-36 -40 -53.5 -90.5t-17.5 -103.5q0 -54 17.5 -104.5t53.5 -89.5q35 -39 88 -63t125 -24q71 0 124 23.5t89 63.5q35 39 53 89.5t18 104.5zM626 402q-3 -60 -38.5 -98t-125.5 -38h-30v68
h33q45 0 68 17.5t23 51.5q0 15 -5 27.5t-14 21.5t-30 13.5t-53 4.5h-11v66h11q28 0 46 5t27 16q8 11 12.5 23t4.5 25q0 24 -18 39.5t-66 15.5h-19v68h23q78 0 112.5 -29t35.5 -91q-1 -39 -8 -60t-31 -42q24 -12 37 -34t16 -70z" />
    <glyph glyph-name="uni2463" unicode="&#x2463;"
d="M846 502q0 -64 -21 -123.5t-63 -104.5q-42 -46 -104.5 -73.5t-145.5 -27.5q-84 0 -146.5 27.5t-104.5 75.5q-42 45 -62.5 104t-20.5 122q0 60 20.5 120t62.5 106q42 47 104.5 75.5t146.5 28.5q83 0 145.5 -28.5t104.5 -75.5q42 -46 63 -106t21 -120zM796 502
q0 53 -18 103.5t-54 90.5q-36 39 -89.5 63.5t-122.5 24.5q-72 0 -125 -24.5t-88 -63.5q-36 -40 -53.5 -90.5t-17.5 -103.5q0 -54 17.5 -104.5t53.5 -89.5q35 -39 88 -63t125 -24q71 0 124 23.5t89 63.5q35 39 53 89.5t18 104.5zM407 491v225h64v-225q0 -27 12.5 -41
t38.5 -16h39v205h64v-369h-64v96h-41q-55 0 -84 30.5t-29 94.5z" />
    <glyph glyph-name="uni2464" unicode="&#x2464;"
d="M846 502q0 -64 -21 -123.5t-63 -104.5q-42 -46 -104.5 -73.5t-145.5 -27.5q-84 0 -146.5 27.5t-104.5 75.5q-42 45 -62.5 104t-20.5 122q0 60 20.5 120t62.5 106q42 47 104.5 75.5t146.5 28.5q83 0 145.5 -28.5t104.5 -75.5q42 -46 63 -106t21 -120zM796 502
q0 53 -18 103.5t-54 90.5q-36 39 -89.5 63.5t-122.5 24.5q-72 0 -125 -24.5t-88 -63.5q-36 -40 -53.5 -90.5t-17.5 -103.5q0 -54 17.5 -104.5t53.5 -89.5q35 -39 88 -63t125 -24q71 0 124 23.5t89 63.5q35 39 53 89.5t18 104.5zM624 417q0 -73 -41 -113t-113 -40h-41v72h41
q38 0 61.5 22.5t23.5 55.5t-23.5 51t-73.5 18h-29v237h170v-68h-103v-97q63 -6 95.5 -43.5t32.5 -94.5z" />
    <glyph glyph-name="uni2465" unicode="&#x2465;"
d="M846 502q0 -64 -21 -123.5t-63 -104.5q-42 -46 -104.5 -73.5t-145.5 -27.5q-84 0 -146.5 27.5t-104.5 75.5q-42 45 -62.5 104t-20.5 122q0 60 20.5 120t62.5 106q42 47 104.5 75.5t146.5 28.5q83 0 145.5 -28.5t104.5 -75.5q42 -46 63 -106t21 -120zM796 502
q0 53 -18 103.5t-54 90.5q-36 39 -89.5 63.5t-122.5 24.5q-72 0 -125 -24.5t-88 -63.5q-36 -40 -53.5 -90.5t-17.5 -103.5q0 -54 17.5 -104.5t53.5 -89.5q35 -39 88 -63t125 -24q71 0 124 23.5t89 63.5q35 39 53 89.5t18 104.5zM503 559q57 0 91 -41.5t34 -98.5
q0 -63 -34 -105.5t-88 -42.5q-26 0 -48.5 12t-38.5 32q-16 21 -25 48.5t-7 58.5q0 17 3 34.5t13 50.5q11 33 34 87t65 148l56 -25l-74 -163q4 2 8.5 3.5t10.5 1.5zM508 341q26 0 43 21t17 55q0 30 -16.5 52t-43.5 22t-43.5 -22t-16.5 -52q0 -34 16.5 -55t43.5 -21z" />
    <glyph glyph-name="uni2466" unicode="&#x2466;"
d="M846 502q0 -64 -21 -123.5t-63 -104.5q-42 -46 -104.5 -73.5t-145.5 -27.5q-84 0 -146.5 27.5t-104.5 75.5q-42 45 -62.5 104t-20.5 122q0 60 20.5 120t62.5 106q42 47 104.5 75.5t146.5 28.5q83 0 145.5 -28.5t104.5 -75.5q42 -46 63 -106t21 -120zM796 502
q0 53 -18 103.5t-54 90.5q-36 39 -89.5 63.5t-122.5 24.5q-72 0 -125 -24.5t-88 -63.5q-36 -40 -53.5 -90.5t-17.5 -103.5q0 -54 17.5 -104.5t53.5 -89.5q35 -39 88 -63t125 -24q71 0 124 23.5t89 63.5q35 39 53 89.5t18 104.5zM551 703q37 0 51.5 -20t6.5 -59l-51 -196
q-10 -42 -22 -86t-26 -91l-62 17l95 366h-130v69h138z" />
    <glyph glyph-name="uni2467" unicode="&#x2467;"
d="M846 502q0 -64 -21 -123.5t-63 -104.5q-42 -46 -104.5 -73.5t-145.5 -27.5q-84 0 -146.5 27.5t-104.5 75.5q-42 45 -62.5 104t-20.5 122q0 60 20.5 120t62.5 106q42 47 104.5 75.5t146.5 28.5q83 0 145.5 -28.5t104.5 -75.5q42 -46 63 -106t21 -120zM796 502
q0 53 -18 103.5t-54 90.5q-36 39 -89.5 63.5t-122.5 24.5q-72 0 -125 -24.5t-88 -63.5q-36 -40 -53.5 -90.5t-17.5 -103.5q0 -54 17.5 -104.5t53.5 -89.5q35 -39 88 -63t125 -24q71 0 124 23.5t89 63.5q35 39 53 89.5t18 104.5zM592 505q18 -16 30.5 -45.5t12.5 -65.5
q0 -60 -34.5 -98t-91.5 -38q-54 0 -90 38t-36 98q0 36 12 65.5t33 45.5q-18 15 -26.5 37.5t-8.5 53.5q0 54 32 89.5t83 35.5q54 0 86.5 -35.5t32.5 -89.5q0 -30 -9 -53t-26 -38zM509 658q-24 0 -38 -18t-14 -45q0 -22 11 -42t41 -20q29 0 41.5 20t12.5 42q0 27 -13.5 45
t-40.5 18zM509 325q27 0 44.5 20t17.5 48q0 30 -16.5 52.5t-45.5 22.5q-30 0 -45 -21t-15 -54q0 -28 17.5 -48t42.5 -20z" />
    <glyph glyph-name="uni2468" unicode="&#x2468;"
d="M846 502q0 -64 -21 -123.5t-63 -104.5q-42 -46 -104.5 -73.5t-145.5 -27.5q-84 0 -146.5 27.5t-104.5 75.5q-42 45 -62.5 104t-20.5 122q0 60 20.5 120t62.5 106q42 47 104.5 75.5t146.5 28.5q83 0 145.5 -28.5t104.5 -75.5q42 -46 63 -106t21 -120zM796 502
q0 53 -18 103.5t-54 90.5q-36 39 -89.5 63.5t-122.5 24.5q-72 0 -125 -24.5t-88 -63.5q-36 -40 -53.5 -90.5t-17.5 -103.5q0 -54 17.5 -104.5t53.5 -89.5q35 -39 88 -63t125 -24q71 0 124 23.5t89 63.5q35 39 53 89.5t18 104.5zM625 572q0 -21 -3.5 -38.5t-12.5 -50.5
q-9 -34 -26 -91t-47 -144l-60 19l52 160l-20 -2q-25 0 -46.5 9.5t-38.5 30.5q-18 20 -26.5 44.5t-8.5 54.5q-1 32 6.5 59t23.5 49q16 21 38 32.5t50 11.5q56 0 87.5 -42t31.5 -102zM452 572q0 -30 17 -48.5t38 -18.5q23 0 40 18.5t17 48.5q0 24 -15.5 45.5t-41.5 21.5
q-24 0 -39.5 -21.5t-15.5 -45.5z" />
    <glyph glyph-name="uni2469" unicode="&#x2469;"
d="M846 502q0 -64 -21 -123.5t-63 -104.5q-42 -46 -104.5 -73.5t-145.5 -27.5q-84 0 -146.5 27.5t-104.5 75.5q-42 45 -62.5 104t-20.5 122q0 60 20.5 120t62.5 106q42 47 104.5 75.5t146.5 28.5q83 0 145.5 -28.5t104.5 -75.5q42 -46 63 -106t21 -120zM796 502
q0 53 -18 103.5t-54 90.5q-36 39 -89.5 63.5t-122.5 24.5q-72 0 -125 -24.5t-88 -63.5q-36 -40 -53.5 -90.5t-17.5 -103.5q0 -54 17.5 -104.5t53.5 -89.5q35 -39 88 -63t125 -24q71 0 124 23.5t89 63.5q35 39 53 89.5t18 104.5zM401 305h-60v371h60v-371zM565 299
q-51 0 -75.5 35.5t-24.5 92.5v124q0 24 5.5 47t18.5 41q12 18 31.5 29t46.5 11t46 -11t32 -29t19 -41t6 -47v-124q0 -57 -27 -92.5t-78 -35.5zM567 357q18 0 32.5 13t14.5 55v126q0 33 -13 50.5t-34 17.5t-33 -17.5t-12 -50.5v-126q0 -42 13.5 -55t31.5 -13z" />
    <glyph glyph-name="uni246A" unicode="&#x246a;"
d="M846 502q0 -64 -21 -123.5t-63 -104.5q-42 -46 -104.5 -73.5t-145.5 -27.5q-84 0 -146.5 27.5t-104.5 75.5q-42 45 -62.5 104t-20.5 122q0 60 20.5 120t62.5 106q42 47 104.5 75.5t146.5 28.5q83 0 145.5 -28.5t104.5 -75.5q42 -46 63 -106t21 -120zM796 502
q0 53 -18 103.5t-54 90.5q-36 39 -89.5 63.5t-122.5 24.5q-72 0 -125 -24.5t-88 -63.5q-36 -40 -53.5 -90.5t-17.5 -103.5q0 -54 17.5 -104.5t53.5 -89.5q35 -39 88 -63t125 -24q71 0 124 23.5t89 63.5q35 39 53 89.5t18 104.5zM639 305h-61v371h61v-371zM453 305h-62v371
h62v-371z" />
    <glyph glyph-name="uni246B" unicode="&#x246b;"
d="M846 502q0 -64 -21 -123.5t-63 -104.5q-42 -46 -104.5 -73.5t-145.5 -27.5q-84 0 -146.5 27.5t-104.5 75.5q-42 45 -62.5 104t-20.5 122q0 60 20.5 120t62.5 106q42 47 104.5 75.5t146.5 28.5q83 0 145.5 -28.5t104.5 -75.5q42 -46 63 -106t21 -120zM796 502
q0 53 -18 103.5t-54 90.5q-36 39 -89.5 63.5t-122.5 24.5q-72 0 -125 -24.5t-88 -63.5q-36 -40 -53.5 -90.5t-17.5 -103.5q0 -54 17.5 -104.5t53.5 -89.5q35 -39 88 -63t125 -24q71 0 124 23.5t89 63.5q35 39 53 89.5t18 104.5zM424 279h-62v372h62v-372zM535 736
q63 0 96 -32.5t36 -80.5q1 -30 -5 -50.5t-16 -35.5t-22.5 -27.5t-24.5 -26.5q-31 -25 -44 -48t-13 -75l1 -12h122v-68h-181l-1 80q0 69 21.5 109t55.5 67q18 14 33 34t15 44q0 26 -20.5 40.5t-52.5 14.5h-36v67h36z" />
    <glyph glyph-name="uni246C" unicode="&#x246c;"
d="M846 502q0 -64 -21 -123.5t-63 -104.5q-42 -46 -104.5 -73.5t-145.5 -27.5q-84 0 -146.5 27.5t-104.5 75.5q-42 45 -62.5 104t-20.5 122q0 60 20.5 120t62.5 106q42 47 104.5 75.5t146.5 28.5q83 0 145.5 -28.5t104.5 -75.5q42 -46 63 -106t21 -120zM796 502
q0 53 -18 103.5t-54 90.5q-36 39 -89.5 63.5t-122.5 24.5q-72 0 -125 -24.5t-88 -63.5q-36 -40 -53.5 -90.5t-17.5 -103.5q0 -54 17.5 -104.5t53.5 -89.5q35 -40 88 -63.5t125 -23.5q71 0 124 23.5t89 63.5q35 39 53 89.5t18 104.5zM424 279h-62v372h62v-372zM682 402
q-3 -60 -38.5 -98t-125.5 -38h-30v68h33q45 0 68 17.5t23 51.5q0 15 -5 27.5t-14 21.5t-30 13.5t-53 4.5h-11v66h11q28 0 46 5t27 16q8 11 12.5 23t4.5 25q0 24 -18 39.5t-66 15.5h-19v68h23q78 0 112.5 -29t35.5 -91q-1 -39 -8 -60t-31 -42q24 -12 37 -34t16 -70z" />
    <glyph glyph-name="uni246D" unicode="&#x246d;"
d="M846 502q0 -64 -21 -123.5t-63 -104.5q-42 -46 -104.5 -73.5t-145.5 -27.5q-84 0 -146.5 27.5t-104.5 75.5q-42 45 -62.5 104t-20.5 122q0 60 20.5 120t62.5 106q42 47 104.5 75.5t146.5 28.5q83 0 145.5 -28.5t104.5 -75.5q42 -46 63 -106t21 -120zM796 502
q0 53 -18 103.5t-54 90.5q-36 39 -89.5 63.5t-122.5 24.5q-72 0 -125 -24.5t-88 -63.5q-36 -40 -53.5 -90.5t-17.5 -103.5q0 -54 17.5 -104.5t53.5 -89.5q35 -39 88 -63t125 -24q56 0 100.5 15t78.5 42h-63v96h-41q-55 0 -84 30.5t-29 94.5v225h64v-225q0 -27 12.5 -41
t38.5 -16h39v205h64v-369q8 6 16.5 13.5t16.5 16.5q35 39 53 89.5t18 104.5zM401 279h-60v372h60v-372z" />
    <glyph glyph-name="uni246E" unicode="&#x246e;"
d="M846 502q0 -64 -21 -123.5t-63 -104.5q-42 -46 -104.5 -73.5t-145.5 -27.5q-84 0 -146.5 27.5t-104.5 75.5q-42 45 -62.5 104t-20.5 122q0 60 20.5 120t62.5 106q42 47 104.5 75.5t146.5 28.5q83 0 145.5 -28.5t104.5 -75.5q42 -46 63 -106t21 -120zM796 502
q0 53 -18 103.5t-54 90.5q-36 39 -89.5 63.5t-122.5 24.5q-72 0 -125 -24.5t-88 -63.5q-36 -40 -53.5 -90.5t-17.5 -103.5q0 -54 17.5 -104.5t53.5 -89.5q35 -39 88 -63t125 -24q71 0 124 23.5t89 63.5q35 39 53 89.5t18 104.5zM424 279h-62v372h62v-372zM701 417
q0 -73 -41 -113t-113 -40h-41v72h41q38 0 61.5 22.5t23.5 55.5t-23.5 51t-73.5 18h-29v237h170v-68h-103v-97q63 -6 95.5 -43.5t32.5 -94.5z" />
    <glyph glyph-name="uni2474" unicode="&#x2474;"
d="M854 502q0 -72 -22 -139.5t-64 -135.5l-50 27q39 63 60 124t21 124t-20.5 124t-56.5 125l47 27q42 -69 63.5 -137t21.5 -139zM543 306h-62v368h62v-368zM306 253l-50 -27q-43 68 -64.5 136t-21.5 140q0 69 21 138t64 138l47 -28q-39 -63 -57.5 -124.5t-18.5 -123.5
q0 -63 20.5 -124.5t59.5 -124.5z" />
    <glyph glyph-name="uni2475" unicode="&#x2475;"
d="M854 502q0 -72 -22 -139.5t-64 -135.5l-50 27q39 63 60 124t21 124t-20.5 124t-56.5 125l47 27q42 -69 63.5 -137t21.5 -139zM306 253l-50 -27q-43 68 -64.5 136t-21.5 140q0 69 21 138t64 138l47 -28q-39 -63 -57.5 -124.5t-18.5 -123.5q0 -63 20.5 -124.5t59.5 -124.5z
M481 727q63 0 96 -32.5t36 -80.5q1 -30 -5 -50.5t-16 -35.5t-22.5 -27.5t-24.5 -26.5q-31 -25 -44 -48t-13 -75l1 -12h122v-68h-181l-1 80q0 69 21.5 109t55.5 67q18 14 33 34t15 44q0 26 -20.5 40.5t-52.5 14.5h-36v67h36z" />
    <glyph glyph-name="uni2476" unicode="&#x2476;"
d="M854 502q0 -72 -22 -139.5t-64 -135.5l-50 27q39 63 60 124t21 124t-20.5 124t-56.5 125l47 27q42 -69 63.5 -137t21.5 -139zM306 253l-50 -27q-43 68 -64.5 136t-21.5 140q0 69 21 138t64 138l47 -28q-39 -63 -57.5 -124.5t-18.5 -123.5q0 -63 20.5 -124.5t59.5 -124.5z
M626 402q-3 -60 -38.5 -98t-125.5 -38h-30v68h33q45 0 68 17.5t23 51.5q0 15 -5 27.5t-14 21.5t-30 13.5t-53 4.5h-11v66h11q28 0 46 5t27 16q8 11 12.5 23t4.5 25q0 24 -18 39.5t-66 15.5h-19v68h23q78 0 112.5 -29t35.5 -91q-1 -39 -8 -60t-31 -42q24 -12 37 -34t16 -70z
" />
    <glyph glyph-name="uni2477" unicode="&#x2477;"
d="M854 502q0 -72 -22 -139.5t-64 -135.5l-50 27q39 63 60 124t21 124t-20.5 124t-56.5 125l47 27q42 -69 63.5 -137t21.5 -139zM306 253l-50 -27q-43 68 -64.5 136t-21.5 140q0 69 21 138t64 138l47 -28q-39 -63 -57.5 -124.5t-18.5 -123.5q0 -63 20.5 -124.5t59.5 -124.5z
M407 491v225h64v-225q0 -27 12.5 -41t38.5 -16h39v205h64v-369h-64v96h-41q-55 0 -84 30.5t-29 94.5z" />
    <glyph glyph-name="uni2478" unicode="&#x2478;"
d="M854 502q0 -72 -22 -139.5t-64 -135.5l-50 27q39 63 60 124t21 124t-20.5 124t-56.5 125l47 27q42 -69 63.5 -137t21.5 -139zM306 253l-50 -27q-43 68 -64.5 136t-21.5 140q0 69 21 138t64 138l47 -28q-39 -63 -57.5 -124.5t-18.5 -123.5q0 -63 20.5 -124.5t59.5 -124.5z
M626 417q0 -73 -41 -113t-113 -40h-41v72h41q38 0 61.5 22.5t23.5 55.5t-23.5 51t-73.5 18h-29v237h170v-68h-103v-97q63 -6 95.5 -43.5t32.5 -94.5z" />
    <glyph glyph-name="uni2479" unicode="&#x2479;"
d="M854 502q0 -72 -22 -139.5t-64 -135.5l-50 27q39 63 60 124t21 124t-20.5 124t-56.5 125l47 27q42 -69 63.5 -137t21.5 -139zM306 253l-50 -27q-43 68 -64.5 136t-21.5 140q0 69 21 138t64 138l47 -28q-39 -63 -57.5 -124.5t-18.5 -123.5q0 -63 20.5 -124.5t59.5 -124.5z
M506 559q57 0 91 -41.5t34 -98.5q0 -63 -34 -105.5t-88 -42.5q-26 0 -48.5 12t-38.5 32q-16 21 -25 48.5t-7 58.5q0 17 3 34.5t13 50.5q11 33 34 87t65 148l56 -25l-74 -163q4 2 8.5 3.5t10.5 1.5zM511 341q26 0 43 21t17 55q0 30 -16.5 52t-43.5 22t-43.5 -22t-16.5 -52
q0 -34 16.5 -55t43.5 -21z" />
    <glyph glyph-name="uni247A" unicode="&#x247a;"
d="M854 502q0 -72 -22 -139.5t-64 -135.5l-50 27q39 63 60 124t21 124t-20.5 124t-56.5 125l47 27q42 -69 63.5 -137t21.5 -139zM306 253l-50 -27q-43 68 -64.5 136t-21.5 140q0 69 21 138t64 138l47 -28q-39 -63 -57.5 -124.5t-18.5 -123.5q0 -63 20.5 -124.5t59.5 -124.5z
M551 703q37 0 51.5 -20t6.5 -59l-51 -196q-10 -42 -22 -86t-26 -91l-62 17l95 366h-130v69h138z" />
    <glyph glyph-name="uni247B" unicode="&#x247b;"
d="M854 502q0 -72 -22 -139.5t-64 -135.5l-50 27q39 63 60 124t21 124t-20.5 124t-56.5 125l47 27q42 -69 63.5 -137t21.5 -139zM306 253l-50 -27q-43 68 -64.5 136t-21.5 140q0 69 21 138t64 138l47 -28q-39 -63 -57.5 -124.5t-18.5 -123.5q0 -63 20.5 -124.5t59.5 -124.5z
M592 505q18 -16 30.5 -45.5t12.5 -65.5q0 -60 -34.5 -98t-91.5 -38q-54 0 -90 38t-36 98q0 36 12 65.5t33 45.5q-18 15 -26.5 37.5t-8.5 53.5q0 54 32 89.5t83 35.5q54 0 86.5 -35.5t32.5 -89.5q0 -30 -9 -53t-26 -38zM509 658q-24 0 -38 -18t-14 -45q0 -22 11 -42t41 -20
q29 0 41.5 20t12.5 42q0 27 -13.5 45t-40.5 18zM509 325q27 0 44.5 20t17.5 48q0 30 -16.5 52.5t-45.5 22.5q-30 0 -45 -21t-15 -54q0 -28 17.5 -48t42.5 -20z" />
    <glyph glyph-name="uni247C" unicode="&#x247c;"
d="M854 502q0 -72 -22 -139.5t-64 -135.5l-50 27q39 63 60 124t21 124t-20.5 124t-56.5 125l47 27q42 -69 63.5 -137t21.5 -139zM306 253l-50 -27q-43 68 -64.5 136t-21.5 140q0 69 21 138t64 138l47 -28q-39 -63 -57.5 -124.5t-18.5 -123.5q0 -63 20.5 -124.5t59.5 -124.5z
M625 572q0 -21 -3.5 -38.5t-12.5 -50.5q-9 -34 -26 -91t-47 -144l-60 19l52 160l-20 -2q-25 0 -46.5 9.5t-38.5 30.5q-18 20 -26.5 44.5t-8.5 54.5q-1 32 6.5 59t23.5 49q16 21 38 32.5t50 11.5q56 0 87.5 -42t31.5 -102zM452 572q0 -30 17 -48.5t38 -18.5q23 0 40 18.5
t17 48.5q0 24 -15.5 45.5t-41.5 21.5q-24 0 -39.5 -21.5t-15.5 -45.5z" />
    <glyph glyph-name="uni247D" unicode="&#x247d;"
d="M854 502q0 -72 -22 -139.5t-64 -135.5l-50 27q39 63 60 124t21 124t-20.5 124t-56.5 125l47 27q42 -69 63.5 -137t21.5 -139zM306 253l-50 -27q-43 68 -64.5 136t-21.5 140q0 69 21 138t64 138l47 -28q-39 -63 -57.5 -124.5t-18.5 -123.5q0 -63 20.5 -124.5t59.5 -124.5z
M417 305h-60v371h60v-371zM581 299q-51 0 -75.5 35.5t-24.5 92.5v124q0 24 5.5 47t18.5 41q12 18 31.5 29t46.5 11t46 -11t32 -29t19 -41t6 -47v-124q0 -57 -27 -92.5t-78 -35.5zM583 357q18 0 32.5 13t14.5 55v126q0 33 -13 50.5t-34 17.5t-33 -17.5t-12 -50.5v-126
q0 -42 13.5 -55t31.5 -13z" />
    <glyph glyph-name="uni247E" unicode="&#x247e;"
d="M854 502q0 -72 -22 -139.5t-64 -135.5l-50 27q39 63 60 124t21 124t-20.5 124t-56.5 125l47 27q42 -69 63.5 -137t21.5 -139zM640 306h-61v368h61v-368zM454 306h-62v368h62v-368zM306 253l-50 -27q-43 68 -64.5 136t-21.5 140q0 69 21 138t64 138l47 -28
q-39 -63 -57.5 -124.5t-18.5 -123.5q0 -63 20.5 -124.5t59.5 -124.5z" />
    <glyph glyph-name="uni247F" unicode="&#x247f;"
d="M854 502q0 -72 -22 -139.5t-64 -135.5l-50 27q39 63 60 124t21 124t-20.5 124t-56.5 125l47 27q42 -69 63.5 -137t21.5 -139zM306 253l-50 -27q-43 68 -64.5 136t-21.5 140q0 69 21 138t64 138l47 -28q-39 -63 -57.5 -124.5t-18.5 -123.5q0 -63 20.5 -124.5t59.5 -124.5z
M424 279h-62v372h62v-372zM535 736q63 0 96 -32.5t36 -80.5q1 -30 -5 -50.5t-16 -35.5t-22.5 -27.5t-24.5 -26.5q-31 -25 -44 -48t-13 -75l1 -12h122v-68h-181l-1 80q0 69 21.5 109t55.5 67q18 14 33 34t15 44q0 26 -20.5 40.5t-52.5 14.5h-36v67h36z" />
    <glyph glyph-name="uni2480" unicode="&#x2480;"
d="M854 502q0 -72 -22 -139.5t-64 -135.5l-50 27q39 63 60 124t21 124t-20.5 124t-56.5 125l47 27q42 -69 63.5 -137t21.5 -139zM306 253l-50 -27q-43 68 -64.5 136t-21.5 140q0 69 21 138t64 138l47 -28q-39 -63 -57.5 -124.5t-18.5 -123.5q0 -63 20.5 -124.5t59.5 -124.5z
M424 279h-62v372h62v-372zM682 402q-3 -60 -38.5 -98t-125.5 -38h-30v68h33q45 0 68 17.5t23 51.5q0 15 -5 27.5t-14 21.5t-30 13.5t-53 4.5h-11v66h11q28 0 46 5t27 16q8 11 12.5 23t4.5 25q0 24 -18 39.5t-66 15.5h-19v68h23q78 0 112.5 -29t35.5 -91q-1 -39 -8 -60
t-31 -42q24 -12 37 -34t16 -70z" />
    <glyph glyph-name="uni2481" unicode="&#x2481;"
d="M854 502q0 -72 -22 -139.5t-64 -135.5l-50 27q39 63 60 124t21 124t-20.5 124t-56.5 125l47 27q42 -69 63.5 -137t21.5 -139zM403 281h-61v369h61v-369zM306 253l-50 -27q-43 68 -64.5 136t-21.5 140q0 69 21 138t64 138l47 -28q-39 -63 -57.5 -124.5t-18.5 -123.5
q0 -63 20.5 -124.5t59.5 -124.5zM474 499v225h64v-225q0 -27 12.5 -41t38.5 -16h39v205h64v-369h-64v96h-41q-55 0 -84 30.5t-29 94.5z" />
    <glyph glyph-name="uni2482" unicode="&#x2482;"
d="M854 502q0 -72 -22 -139.5t-64 -135.5l-50 27q39 63 60 124t21 124t-20.5 124t-56.5 125l47 27q42 -69 63.5 -137t21.5 -139zM426 281h-61v369h61v-369zM306 253l-50 -27q-43 68 -64.5 136t-21.5 140q0 69 21 138t64 138l47 -28q-39 -63 -57.5 -124.5t-18.5 -123.5
q0 -63 20.5 -124.5t59.5 -124.5zM701 417q0 -73 -41 -113t-113 -40h-41v72h41q38 0 61.5 22.5t23.5 55.5t-23.5 51t-73.5 18h-29v237h170v-68h-103v-97q63 -6 95.5 -43.5t32.5 -94.5z" />
    <glyph glyph-name="uni249C" unicode="&#x249c;"
d="M854 502q0 -72 -22 -139.5t-64 -135.5l-50 27q39 63 60 124t21 124t-20.5 124t-56.5 125l47 27q42 -69 63.5 -137t21.5 -139zM306 253l-50 -27q-43 68 -64.5 136t-21.5 140q0 69 21 138t64 138l47 -28q-39 -63 -57.5 -124.5t-18.5 -123.5q0 -63 20.5 -124.5t59.5 -124.5z
M490 641q57 0 85 -23t28 -86v-191h-90q-64 0 -92 32t-24 74q5 51 37.5 70t83.5 19h28q0 30 -19.5 39t-46.5 9h-37v57h47zM547 398v81h-34q-21 0 -40 -8t-21 -25q-2 -14 2.5 -23.5t16.5 -14.5q11 -6 21 -8t20 -2h35z" />
    <glyph glyph-name="uni249D" unicode="&#x249d;"
d="M854 502q0 -72 -22 -139.5t-64 -135.5l-50 27q39 63 60 124t21 124t-20.5 124t-56.5 125l47 27q42 -69 63.5 -137t21.5 -139zM306 253l-50 -27q-43 68 -64.5 136t-21.5 140q0 69 21 138t64 138l47 -28q-39 -63 -57.5 -124.5t-18.5 -123.5q0 -63 20.5 -124.5t59.5 -124.5z
M507 587q30 0 54.5 -11t40.5 -29q15 -18 24 -52t9 -58q0 -27 -8.5 -61t-23.5 -52q-15 -19 -39 -30t-57 -11h-82v444h53v-140h29zM487 342q47 -1 70.5 20t23.5 75q0 45 -24 68.5t-66 23.5h-14v-187h10z" />
    <glyph glyph-name="uni249E" unicode="&#x249e;"
d="M854 502q0 -72 -22 -139.5t-64 -135.5l-50 27q39 63 60 124t21 124t-20.5 124t-56.5 125l47 27q42 -69 63.5 -137t21.5 -139zM306 253l-50 -27q-43 68 -64.5 136t-21.5 140q0 69 21 138t64 138l47 -28q-39 -63 -57.5 -124.5t-18.5 -123.5q0 -63 20.5 -124.5t59.5 -124.5z
M585 645v-57h-40q-42 0 -62 -19.5t-22 -70.5q2 -54 22.5 -76t65.5 -22h37v-58h-55q-34 0 -58 11t-39 35q-15 23 -22 50t-7 60q0 63 30 105t96 42h54z" />
    <glyph glyph-name="uni249F" unicode="&#x249f;"
d="M854 502q0 -72 -22 -139.5t-64 -135.5l-50 27q39 63 60 124t21 124t-20.5 124t-56.5 125l47 27q42 -69 63.5 -137t21.5 -139zM306 253l-50 -27q-43 68 -64.5 136t-21.5 140q0 69 21 138t64 138l47 -28q-39 -63 -57.5 -124.5t-18.5 -123.5q0 -63 20.5 -124.5t59.5 -124.5z
M514 589h25v140h57v-443h-82q-33 0 -56 11.5t-38 30.5q-16 20 -25 52.5t-9 59.5q0 24 8.5 58t24.5 52q15 18 39.5 28.5t55.5 10.5zM534 345h6v186h-10q-43 2 -66.5 -22t-23.5 -69q0 -54 23 -75t71 -20z" />
    <glyph glyph-name="uni24A0" unicode="&#x24a0;"
d="M854 502q0 -72 -22 -139.5t-64 -135.5l-50 27q39 63 60 124t21 124t-20.5 124t-56.5 125l47 27q42 -69 63.5 -137t21.5 -139zM306 253l-50 -27q-43 68 -64.5 136t-21.5 140q0 69 21 138t64 138l47 -28q-39 -63 -57.5 -124.5t-18.5 -123.5q0 -63 20.5 -124.5t59.5 -124.5z
M524 394q9 -2 26.5 -2t43.5 2v-57q-24 -3 -41.5 -3.5t-28.5 1.5q-60 3 -96.5 46.5t-36.5 127.5q0 68 32.5 107t86.5 39q28 0 49 -10.5t35 -30.5q13 -21 20 -45t7 -51v-49h-171q0 -28 20.5 -50t53.5 -25zM509 599q-18 0 -30.5 -7t-18.5 -21q-7 -14 -10 -26t-3 -21h121
q0 9 -3 21t-9 26t-17.5 21t-29.5 7z" />
    <glyph glyph-name="uni24A1" unicode="&#x24a1;"
d="M854 502q0 -72 -22 -139.5t-64 -135.5l-50 27q39 63 60 124t21 124t-20.5 124t-56.5 125l47 27q42 -69 63.5 -137t21.5 -139zM306 253l-50 -27q-43 68 -64.5 136t-21.5 140q0 69 21 138t64 138l47 -28q-39 -63 -57.5 -124.5t-18.5 -123.5q0 -63 20.5 -124.5t59.5 -124.5z
M486 576h108v-57h-108v-248h-55v326q0 59 28.5 88.5t85.5 29.5h21v-57h-21q-30 0 -44.5 -19t-14.5 -40v-23z" />
    <glyph glyph-name="uni24A2" unicode="&#x24a2;"
d="M854 502q0 -72 -22 -139.5t-64 -135.5l-50 27q39 63 60 124t21 124t-20.5 124t-56.5 125l47 27q42 -69 63.5 -137t21.5 -139zM306 253l-50 -27q-43 68 -64.5 136t-21.5 140q0 69 21 138t64 138l47 -28q-39 -63 -57.5 -124.5t-18.5 -123.5q0 -63 20.5 -124.5t59.5 -124.5z
M607 712v-317q0 -63 -24.5 -96t-74.5 -33h-32v53h32q24 4 36.5 23t13.5 52v28h-28q-33 0 -56.5 13t-37.5 29q-13 17 -22.5 46t-9.5 60q0 29 9 54t27 46t39 31.5t45 10.5h83zM554 481v169l-24 2q-31 2 -52.5 -24t-21.5 -59q0 -39 20.5 -63.5t54.5 -24.5h23z" />
    <glyph glyph-name="uni24A3" unicode="&#x24a3;"
d="M854 502q0 -72 -22 -139.5t-64 -135.5l-50 27q39 63 60 124t21 124t-20.5 124t-56.5 125l47 27q42 -69 63.5 -137t21.5 -139zM306 253l-50 -27q-43 68 -64.5 136t-21.5 140q0 69 21 138t64 138l47 -28q-39 -63 -57.5 -124.5t-18.5 -123.5q0 -63 20.5 -124.5t59.5 -124.5z
M514 592q53 0 79.5 -29.5t26.5 -87.5v-194h-55v194q0 23 -11 39.5t-43 16.5q-24 -3 -34.5 -22t-10.5 -34v-194h-54v446h54v-157q11 12 22 16.5t26 5.5z" />
    <glyph glyph-name="uni24A4" unicode="&#x24a4;"
d="M854 502q0 -72 -22 -139.5t-64 -135.5l-50 27q39 63 60 124t21 124t-20.5 124t-56.5 125l47 27q42 -69 63.5 -137t21.5 -139zM306 253l-50 -27q-43 68 -64.5 136t-21.5 140q0 69 21 138t64 138l47 -28q-39 -63 -57.5 -124.5t-18.5 -123.5q0 -63 20.5 -124.5t59.5 -124.5z
M484 281v301h56v-301h-56zM484 719h56v-61h-56v61z" />
    <glyph glyph-name="uni24A5" unicode="&#x24a5;"
d="M854 502q0 -72 -22 -139.5t-64 -135.5l-50 27q39 63 60 124t21 124t-20.5 124t-56.5 125l47 27q42 -69 63.5 -137t21.5 -139zM306 253l-50 -27q-43 68 -64.5 136t-21.5 140q0 69 21 138t64 138l47 -28q-39 -63 -57.5 -124.5t-18.5 -123.5q0 -63 20.5 -124.5t59.5 -124.5z
M441 225v50h19q20 -3 30.5 13.5t11.5 50.5v282h48v-282q-1 -36 -6.5 -59.5t-16.5 -33.5q-12 -11 -28.5 -16t-37.5 -5h-20zM502 737h47v-52h-47v52z" />
    <glyph glyph-name="uni24A6" unicode="&#x24a6;"
d="M854 502q0 -72 -22 -139.5t-64 -135.5l-50 27q39 63 60 124t21 124t-20.5 124t-56.5 125l47 27q42 -69 63.5 -137t21.5 -139zM306 253l-50 -27q-43 68 -64.5 136t-21.5 140q0 69 21 138t64 138l47 -28q-39 -63 -57.5 -124.5t-18.5 -123.5q0 -63 20.5 -124.5t59.5 -124.5z
M539 465q39 -6 56.5 -32.5t17.5 -79.5v-68h-54v68q0 21 -12.5 37.5t-36.5 16.5t-35 -16.5t-11 -37.5v-68h-57v440h55v-262l112 126l42 -41z" />
    <glyph glyph-name="uni24A7" unicode="&#x24a7;"
d="M854 502q0 -72 -22 -139.5t-64 -135.5l-50 27q39 63 60 124t21 124t-20.5 124t-56.5 125l47 27q42 -69 63.5 -137t21.5 -139zM306 253l-50 -27q-43 68 -64.5 136t-21.5 140q0 69 21 138t64 138l47 -28q-39 -63 -57.5 -124.5t-18.5 -123.5q0 -63 20.5 -124.5t59.5 -124.5z
M487 282v440h54v-440h-54z" />
    <glyph glyph-name="uni24A8" unicode="&#x24a8;"
d="M854 502q0 -72 -22 -139.5t-64 -135.5l-50 27q39 63 60 124t21 124t-20.5 124t-56.5 125l47 27q42 -69 63.5 -137t21.5 -139zM306 253l-50 -27q-43 68 -64.5 136t-21.5 140q0 69 21 138t64 138l47 -28q-39 -63 -57.5 -124.5t-18.5 -123.5q0 -63 20.5 -124.5t59.5 -124.5z
M576 647q45 0 69 -31t24 -91v-183h-52v183q0 27 -10 44.5t-34 17.5q-21 0 -31 -18t-10 -44v-183h-54v187q0 23 -11 41.5t-32 18.5q-22 0 -31.5 -17.5t-9.5 -46.5v-183h-53v183q0 60 23.5 91t68.5 31q27 0 46 -13t26 -27q6 15 25 27.5t46 12.5z" />
    <glyph glyph-name="uni24A9" unicode="&#x24a9;"
d="M854 502q0 -72 -22 -139.5t-64 -135.5l-50 27q39 63 60 124t21 124t-20.5 124t-56.5 125l47 27q42 -69 63.5 -137t21.5 -139zM306 253l-50 -27q-43 68 -64.5 136t-21.5 140q0 69 21 138t64 138l47 -28q-39 -63 -57.5 -124.5t-18.5 -123.5q0 -63 20.5 -124.5t59.5 -124.5z
M418 526q0 51 22 80.5t67 29.5q44 0 65.5 -29.5t21.5 -80.5v-158h-47v157q0 21 -6.5 40.5t-33.5 19.5q-28 0 -35 -19.5t-7 -40.5v-157h-47v158z" />
    <glyph glyph-name="uni24AA" unicode="&#x24aa;"
d="M854 502q0 -72 -22 -139.5t-64 -135.5l-50 27q39 63 60 124t21 124t-20.5 124t-56.5 125l47 27q42 -69 63.5 -137t21.5 -139zM306 253l-50 -27q-43 68 -64.5 136t-21.5 140q0 69 21 138t64 138l47 -28q-39 -63 -57.5 -124.5t-18.5 -123.5q0 -63 20.5 -124.5t59.5 -124.5z
M606 474q0 -61 -24.5 -91t-72.5 -30q-51 0 -76.5 31.5t-25.5 89.5v51q0 48 26 80.5t77 32.5q47 0 71.5 -33t24.5 -80v-51zM558 521q0 30 -12.5 47t-38.5 17q-27 0 -40 -19t-13 -45v-51q0 -27 12.5 -47t40.5 -20q24 0 37.5 17.5t13.5 50.5v50z" />
    <glyph glyph-name="uni24AB" unicode="&#x24ab;"
d="M854 502q0 -72 -22 -139.5t-64 -135.5l-50 27q39 63 60 124t21 124t-20.5 124t-56.5 125l47 27q42 -69 63.5 -137t21.5 -139zM306 253l-50 -27q-43 68 -64.5 136t-21.5 140q0 69 21 138t64 138l47 -28q-39 -63 -57.5 -124.5t-18.5 -123.5q0 -63 20.5 -124.5t59.5 -124.5z
M492 696q69 0 95 -42.5t26 -102.5q1 -24 -4.5 -49.5t-19.5 -46.5q-15 -21 -39.5 -34.5t-60.5 -13.5h-16v-156h-50v445h69zM490 465q32 0 52 21t20 63q0 50 -20 67.5t-52 17.5h-16v-169h16z" />
    <glyph glyph-name="uni24AC" unicode="&#x24ac;"
d="M854 502q0 -72 -22 -139.5t-64 -135.5l-50 27q39 63 60 124t21 124t-20.5 124t-56.5 125l47 27q42 -69 63.5 -137t21.5 -139zM306 253l-50 -27q-43 68 -64.5 136t-21.5 140q0 69 21 138t64 138l47 -28q-39 -63 -57.5 -124.5t-18.5 -123.5q0 -63 20.5 -124.5t59.5 -124.5z
M523 696h69v-445h-50v156h-16q-37 0 -61.5 13.5t-39.5 34.5q-14 21 -19.5 46.5t-3.5 49.5q0 60 26 102.5t95 42.5zM525 465h16v169h-16q-33 0 -52.5 -17.5t-19.5 -67.5q0 -42 19.5 -63t52.5 -21z" />
    <glyph glyph-name="uni24AD" unicode="&#x24ad;"
d="M854 502q0 -72 -22 -139.5t-64 -135.5l-50 27q39 63 60 124t21 124t-20.5 124t-56.5 125l47 27q42 -69 63.5 -137t21.5 -139zM306 253l-50 -27q-43 68 -64.5 136t-21.5 140q0 69 21 138t64 138l47 -28q-39 -63 -57.5 -124.5t-18.5 -123.5q0 -63 20.5 -124.5t59.5 -124.5z
M446 344v171q0 63 26.5 94t86.5 31h41v-59h-40q-36 0 -48 -20t-12 -46v-171h-54z" />
    <glyph glyph-name="uni24AE" unicode="&#x24ae;"
d="M854 502q0 -72 -22 -139.5t-64 -135.5l-50 27q39 63 60 124t21 124t-20.5 124t-56.5 125l47 27q42 -69 63.5 -137t21.5 -139zM306 253l-50 -27q-43 68 -64.5 136t-21.5 140q0 69 21 138t64 138l47 -28q-39 -63 -57.5 -124.5t-18.5 -123.5q0 -63 20.5 -124.5t59.5 -124.5z
M562 646v-53h-57q-17 0 -21.5 -8t-4.5 -15q0 -13 21 -24t46 -27q24 -17 42 -41.5t11 -63.5q-8 -36 -31.5 -53.5t-62.5 -17.5h-67v55h54q15 0 27.5 2t18.5 13q14 27 -4 41.5t-44 28.5q-27 15 -51 36t-21 61q2 35 29 50.5t67 15.5h48z" />
    <glyph glyph-name="uni24AF" unicode="&#x24af;"
d="M854 502q0 -72 -22 -139.5t-64 -135.5l-50 27q39 63 60 124t21 124t-20.5 124t-56.5 125l47 27q42 -69 63.5 -137t21.5 -139zM306 253l-50 -27q-43 68 -64.5 136t-21.5 140q0 69 21 138t64 138l47 -28q-39 -63 -57.5 -124.5t-18.5 -123.5q0 -63 20.5 -124.5t59.5 -124.5z
M582 349v-66h-28q-64 0 -89.5 34t-25.5 109v305h61v-120h74v-64h-74v-115q0 -46 13 -64.5t41 -18.5h28z" />
    <glyph glyph-name="uni24B0" unicode="&#x24b0;"
d="M854 502q0 -72 -22 -139.5t-64 -135.5l-50 27q39 63 60 124t21 124t-20.5 124t-56.5 125l47 27q42 -69 63.5 -137t21.5 -139zM306 253l-50 -27q-43 68 -64.5 136t-21.5 140q0 69 21 138t64 138l47 -28q-39 -63 -57.5 -124.5t-18.5 -123.5q0 -63 20.5 -124.5t59.5 -124.5z
M619 463q0 -61 -28.5 -95t-79.5 -34t-79 34t-28 95v181h55v-180q0 -25 9.5 -46t42.5 -23q32 2 42.5 22t10.5 47v180h55v-181z" />
    <glyph glyph-name="uni24B1" unicode="&#x24b1;"
d="M854 502q0 -72 -22 -139.5t-64 -135.5l-50 27q39 63 60 124t21 124t-20.5 124t-56.5 125l47 27q42 -69 63.5 -137t21.5 -139zM306 253l-50 -27q-43 68 -64.5 136t-21.5 140q0 69 21 138t64 138l47 -28q-39 -63 -57.5 -124.5t-18.5 -123.5q0 -63 20.5 -124.5t59.5 -124.5z
M472 342h-50q-6 0 -6.5 3.5l-0.5 3.5v301h58v-232q3 1 3.5 1t1.5 1q2 1 6.5 5t17.5 14q27 27 41 53.5t14 67.5v90h61v-105q0 -40 -17.5 -75t-41.5 -62t-48.5 -44.5t-38.5 -21.5z" />
    <glyph glyph-name="uni24B2" unicode="&#x24b2;"
d="M854 502q0 -72 -22 -139.5t-64 -135.5l-50 27q39 63 60 124t21 124t-20.5 124t-56.5 125l47 27q42 -69 63.5 -137t21.5 -139zM306 253l-50 -27q-43 68 -64.5 136t-21.5 140q0 69 21 138t64 138l47 -28q-39 -63 -57.5 -124.5t-18.5 -123.5q0 -63 20.5 -124.5t59.5 -124.5z
M683 648v-185q0 -57 -23 -94.5t-80 -37.5q-24 0 -39.5 9t-30.5 28q-15 -19 -31 -28t-42 -9t-45.5 9.5t-31.5 29.5q-13 20 -19.5 43t-6.5 50v185h57v-185q0 -27 12 -48t36 -21q12 0 21 7t13 19q3 12 5.5 22.5t2.5 20.5v185h57v-185q0 -10 2 -20.5t5 -21.5q3 -12 11.5 -18.5
t21.5 -7.5q24 0 36 19t12 49v185h57z" />
    <glyph glyph-name="uni24B3" unicode="&#x24b3;"
d="M854 502q0 -72 -22 -139.5t-64 -135.5l-50 27q39 63 60 124t21 124t-20.5 124t-56.5 125l47 27q42 -69 63.5 -137t21.5 -139zM306 253l-50 -27q-43 68 -64.5 136t-21.5 140q0 69 21 138t64 138l47 -28q-39 -63 -57.5 -124.5t-18.5 -123.5q0 -63 20.5 -124.5t59.5 -124.5z
M609 603q0 -33 -6.5 -52t-26.5 -43q17 -18 25 -42t8 -60v-62h-56v62q0 24 -9.5 47.5t-36.5 23.5q-24 0 -35 -24.5t-11 -48.5v-60h-57v62q0 36 7.5 60t23.5 42q-21 21 -26 41.5t-5 53.5v43h57v-43q0 -24 9.5 -42.5t36.5 -18.5q24 0 35 18.5t11 42.5v43h56v-43z" />
    <glyph glyph-name="uni24B4" unicode="&#x24b4;"
d="M854 502q0 -72 -22 -139.5t-64 -135.5l-50 27q39 63 60 124t21 124t-20.5 124t-56.5 125l47 27q42 -69 63.5 -137t21.5 -139zM306 253l-50 -27q-43 68 -64.5 136t-21.5 140q0 69 21 138t64 138l47 -28q-39 -63 -57.5 -124.5t-18.5 -123.5q0 -63 20.5 -124.5t59.5 -124.5z
M602 707v-321q0 -63 -22 -94t-66 -31h-40v57h33q21 0 32 12t11 55v49q-13 -15 -21 -18t-26 -5q-49 0 -73 31.5t-24 94.5v170h52v-165q0 -31 9.5 -51t34.5 -19q21 -1 34.5 19t13.5 51v165h52z" />
    <glyph glyph-name="uni24B5" unicode="&#x24b5;"
d="M854 502q0 -72 -22 -139.5t-64 -135.5l-50 27q39 63 60 124t21 124t-20.5 124t-56.5 125l47 27q42 -69 63.5 -137t21.5 -139zM306 253l-50 -27q-43 68 -64.5 136t-21.5 140q0 69 21 138t64 138l47 -28q-39 -63 -57.5 -124.5t-18.5 -123.5q0 -63 20.5 -124.5t59.5 -124.5z
M538 643q22 0 35 -11.5t18 -28.5q4 -16 0.5 -34.5t-13.5 -31.5q-9 -12 -22 -24.5t-25 -24.5q-13 -12 -24.5 -22.5t-18.5 -18.5q-13 -17 -18.5 -32.5t20.5 -15.5h103v-55h-121q-24 0 -38.5 12t-20.5 29q-5 18 -1 37.5t18 34.5q12 14 24.5 26.5l24.5 24.5q11 11 21 20.5
t18 18.5q12 13 14.5 28t-22.5 15h-75v53h103z" />
    <glyph glyph-name="uni24D0" unicode="&#x24d0;"
d="M846 502q0 -64 -21 -123.5t-63 -104.5q-42 -46 -104.5 -73.5t-145.5 -27.5q-84 0 -146.5 27.5t-104.5 75.5q-42 45 -62.5 104t-20.5 122q0 60 20.5 120t62.5 106q42 47 104.5 75.5t146.5 28.5q83 0 145.5 -28.5t104.5 -75.5q42 -46 63 -106t21 -120zM796 502
q0 53 -18 103.5t-54 90.5q-36 39 -89.5 63.5t-122.5 24.5q-72 0 -125 -24.5t-88 -63.5q-36 -40 -53.5 -90.5t-17.5 -103.5q0 -54 17.5 -104.5t53.5 -89.5q35 -39 88 -63t125 -24q71 0 124 23.5t89 63.5q35 39 53 89.5t18 104.5zM490 641q57 0 85 -23t28 -86v-191h-90
q-64 0 -92 32t-24 74q5 51 37.5 70t83.5 19h28q0 30 -19.5 39t-46.5 9h-37v57h47zM547 398v81h-34q-21 0 -40 -8t-21 -25q-2 -14 2.5 -23.5t16.5 -14.5q11 -6 21 -8t20 -2h35z" />
    <glyph glyph-name="uni24D1" unicode="&#x24d1;"
d="M846 502q0 -64 -21 -123.5t-63 -104.5q-42 -46 -104.5 -73.5t-145.5 -27.5q-84 0 -146.5 27.5t-104.5 75.5q-42 45 -62.5 104t-20.5 122q0 60 20.5 120t62.5 106q42 47 104.5 75.5t146.5 28.5q83 0 145.5 -28.5t104.5 -75.5q42 -46 63 -106t21 -120zM796 502
q0 53 -18 103.5t-54 90.5q-36 39 -89.5 63.5t-122.5 24.5q-72 0 -125 -24.5t-88 -63.5q-36 -40 -53.5 -90.5t-17.5 -103.5q0 -54 17.5 -104.5t53.5 -89.5q35 -39 88 -63t125 -24q71 0 124 23.5t89 63.5q35 39 53 89.5t18 104.5zM516 587q30 0 54.5 -11t40.5 -29
q15 -18 24 -52t9 -58q0 -27 -8.5 -61t-23.5 -52q-15 -19 -39 -30t-57 -11h-82v444h53v-140h29zM496 342q47 -1 70.5 20t23.5 75q0 45 -24 68.5t-66 23.5h-14v-187h10z" />
    <glyph glyph-name="uni24D2" unicode="&#x24d2;"
d="M846 502q0 -64 -21 -123.5t-63 -104.5q-42 -46 -104.5 -73.5t-145.5 -27.5q-84 0 -146.5 27.5t-104.5 75.5q-42 45 -62.5 104t-20.5 122q0 60 20.5 120t62.5 106q42 47 104.5 75.5t146.5 28.5q83 0 145.5 -28.5t104.5 -75.5q42 -46 63 -106t21 -120zM796 502
q0 53 -18 103.5t-54 90.5q-36 39 -89.5 63.5t-122.5 24.5q-72 0 -125 -24.5t-88 -63.5q-36 -40 -53.5 -90.5t-17.5 -103.5q0 -54 17.5 -104.5t53.5 -89.5q35 -39 88 -63t125 -24q71 0 124 23.5t89 63.5q35 39 53 89.5t18 104.5zM585 645v-57h-40q-42 0 -62 -19.5t-22 -70.5
q2 -54 22.5 -76t65.5 -22h37v-58h-55q-34 0 -58 11t-39 35q-15 23 -22 50t-7 60q0 63 30 105t96 42h54z" />
    <glyph glyph-name="uni24D3" unicode="&#x24d3;"
d="M846 502q0 -64 -21 -123.5t-63 -104.5q-42 -46 -104.5 -73.5t-145.5 -27.5q-84 0 -146.5 27.5t-104.5 75.5q-42 45 -62.5 104t-20.5 122q0 60 20.5 120t62.5 106q42 47 104.5 75.5t146.5 28.5q83 0 145.5 -28.5t104.5 -75.5q42 -46 63 -106t21 -120zM796 502
q0 53 -18 103.5t-54 90.5q-36 39 -89.5 63.5t-122.5 24.5q-72 0 -125 -24.5t-88 -63.5q-36 -40 -53.5 -90.5t-17.5 -103.5q0 -54 17.5 -104.5t53.5 -89.5q35 -39 88 -63t125 -24q71 0 124 23.5t89 63.5q35 39 53 89.5t18 104.5zM514 589h25v140h57v-443h-82q-33 0 -56 11.5
t-38 30.5q-16 20 -25 52.5t-9 59.5q0 24 8.5 58t24.5 52q15 18 39.5 28.5t55.5 10.5zM534 345h6v186h-10q-43 2 -66.5 -22t-23.5 -69q0 -54 23 -75t71 -20z" />
    <glyph glyph-name="uni24D4" unicode="&#x24d4;"
d="M846 502q0 -64 -21 -123.5t-63 -104.5q-42 -46 -104.5 -73.5t-145.5 -27.5q-84 0 -146.5 27.5t-104.5 75.5q-42 45 -62.5 104t-20.5 122q0 60 20.5 120t62.5 106q42 47 104.5 75.5t146.5 28.5q83 0 145.5 -28.5t104.5 -75.5q42 -46 63 -106t21 -120zM796 502
q0 53 -18 103.5t-54 90.5q-36 39 -89.5 63.5t-122.5 24.5q-72 0 -125 -24.5t-88 -63.5q-36 -40 -53.5 -90.5t-17.5 -103.5q0 -54 17.5 -104.5t53.5 -89.5q35 -39 88 -63t125 -24q71 0 124 23.5t89 63.5q35 39 53 89.5t18 104.5zM524 394q9 -2 26.5 -2t43.5 2v-57
q-24 -3 -41.5 -3.5t-28.5 1.5q-60 3 -96.5 46.5t-36.5 127.5q0 68 32.5 107t86.5 39q28 0 49 -10.5t35 -30.5q13 -21 20 -45t7 -51v-49h-171q0 -28 20.5 -50t53.5 -25zM509 599q-18 0 -30.5 -7t-18.5 -21q-7 -14 -10 -26t-3 -21h121q0 9 -3 21t-9 26t-17.5 21t-29.5 7z" />
    <glyph glyph-name="uni24D5" unicode="&#x24d5;"
d="M846 502q0 -64 -21 -123.5t-63 -104.5q-42 -46 -104.5 -73.5t-145.5 -27.5q-84 0 -146.5 27.5t-104.5 75.5q-42 45 -62.5 104t-20.5 122q0 60 20.5 120t62.5 106q42 47 104.5 75.5t146.5 28.5q83 0 145.5 -28.5t104.5 -75.5q42 -46 63 -106t21 -120zM796 502
q0 53 -18 103.5t-54 90.5q-36 39 -89.5 63.5t-122.5 24.5q-72 0 -125 -24.5t-88 -63.5q-36 -40 -53.5 -90.5t-17.5 -103.5q0 -54 17.5 -104.5t53.5 -89.5q35 -39 88 -63t125 -24q71 0 124 23.5t89 63.5q35 39 53 89.5t18 104.5zM486 576h108v-57h-108v-248h-55v326
q0 59 28.5 88.5t85.5 29.5h21v-57h-21q-30 0 -44.5 -19t-14.5 -40v-23z" />
    <glyph glyph-name="uni24D6" unicode="&#x24d6;"
d="M846 502q0 -64 -21 -123.5t-63 -104.5q-42 -46 -104.5 -73.5t-145.5 -27.5q-84 0 -146.5 27.5t-104.5 75.5q-42 45 -62.5 104t-20.5 122q0 60 20.5 120t62.5 106q42 47 104.5 75.5t146.5 28.5q83 0 145.5 -28.5t104.5 -75.5q42 -46 63 -106t21 -120zM796 502
q0 53 -18 103.5t-54 90.5q-36 39 -89.5 63.5t-122.5 24.5q-72 0 -125 -24.5t-88 -63.5q-36 -40 -53.5 -90.5t-17.5 -103.5q0 -54 17.5 -104.5t53.5 -89.5q35 -39 88 -63t125 -24q71 0 124 23.5t89 63.5q35 39 53 89.5t18 104.5zM607 712v-317q0 -63 -24.5 -96t-74.5 -33h-32
v53h32q24 4 36.5 23t13.5 52v28h-28q-33 0 -56.5 13t-37.5 29q-13 17 -22.5 46t-9.5 60q0 29 9 54t27 46t39 31.5t45 10.5h83zM554 481v169l-24 2q-31 2 -52.5 -24t-21.5 -59q0 -39 20.5 -63.5t54.5 -24.5h23z" />
    <glyph glyph-name="uni24D7" unicode="&#x24d7;"
d="M846 502q0 -64 -21 -123.5t-63 -104.5q-42 -46 -104.5 -73.5t-145.5 -27.5q-84 0 -146.5 27.5t-104.5 75.5q-42 45 -62.5 104t-20.5 122q0 60 20.5 120t62.5 106q42 47 104.5 75.5t146.5 28.5q83 0 145.5 -28.5t104.5 -75.5q42 -46 63 -106t21 -120zM796 502
q0 53 -18 103.5t-54 90.5q-36 39 -89.5 63.5t-122.5 24.5q-72 0 -125 -24.5t-88 -63.5q-36 -40 -53.5 -90.5t-17.5 -103.5q0 -54 17.5 -104.5t53.5 -89.5q35 -39 88 -63t125 -24q71 0 124 23.5t89 63.5q35 39 53 89.5t18 104.5zM514 592q53 0 79.5 -29.5t26.5 -87.5v-194
h-55v194q0 23 -11 39.5t-43 16.5q-24 -3 -34.5 -22t-10.5 -34v-194h-54v446h54v-157q11 12 22 16.5t26 5.5z" />
    <glyph glyph-name="uni24D8" unicode="&#x24d8;"
d="M846 502q0 -64 -21 -123.5t-63 -104.5q-42 -46 -104.5 -73.5t-145.5 -27.5q-84 0 -146.5 27.5t-104.5 75.5q-42 45 -62.5 104t-20.5 122q0 60 20.5 120t62.5 106q42 47 104.5 75.5t146.5 28.5q83 0 145.5 -28.5t104.5 -75.5q42 -46 63 -106t21 -120zM796 502
q0 53 -18 103.5t-54 90.5q-36 39 -89.5 63.5t-122.5 24.5q-72 0 -125 -24.5t-88 -63.5q-36 -40 -53.5 -90.5t-17.5 -103.5q0 -54 17.5 -104.5t53.5 -89.5q35 -39 88 -63t125 -24q71 0 124 23.5t89 63.5q35 39 53 89.5t18 104.5zM484 281v301h56v-301h-56zM484 719h56v-61
h-56v61z" />
    <glyph glyph-name="uni24D9" unicode="&#x24d9;"
d="M846 502q0 -64 -21 -123.5t-63 -104.5q-42 -46 -104.5 -73.5t-145.5 -27.5q-84 0 -146.5 27.5t-104.5 75.5q-42 45 -62.5 104t-20.5 122q0 60 20.5 120t62.5 106q42 47 104.5 75.5t146.5 28.5q83 0 145.5 -28.5t104.5 -75.5q42 -46 63 -106t21 -120zM796 502
q0 53 -18 103.5t-54 90.5q-36 39 -89.5 63.5t-122.5 24.5q-72 0 -125 -24.5t-88 -63.5q-36 -40 -53.5 -90.5t-17.5 -103.5q0 -54 17.5 -104.5t53.5 -89.5q35 -39 88 -63t125 -24q71 0 124 23.5t89 63.5q35 39 53 89.5t18 104.5zM441 247v50h19q20 -3 30.5 13.5t11.5 50.5
v282h48v-282q-1 -36 -6.5 -59.5t-16.5 -33.5q-12 -11 -28.5 -16t-37.5 -5h-20zM502 759h47v-52h-47v52z" />
    <glyph glyph-name="uni24DA" unicode="&#x24da;"
d="M846 502q0 -64 -21 -123.5t-63 -104.5q-42 -46 -104.5 -73.5t-145.5 -27.5q-84 0 -146.5 27.5t-104.5 75.5q-42 45 -62.5 104t-20.5 122q0 60 20.5 120t62.5 106q42 47 104.5 75.5t146.5 28.5q83 0 145.5 -28.5t104.5 -75.5q42 -46 63 -106t21 -120zM796 502
q0 53 -18 103.5t-54 90.5q-36 39 -89.5 63.5t-122.5 24.5q-72 0 -125 -24.5t-88 -63.5q-36 -40 -53.5 -90.5t-17.5 -103.5q0 -54 17.5 -104.5t53.5 -89.5q35 -39 88 -63t125 -24q71 0 124 23.5t89 63.5q35 39 53 89.5t18 104.5zM553 468q39 -6 56.5 -32.5t17.5 -79.5v-68
h-54v68q0 21 -12.5 37.5t-36.5 16.5t-35 -16.5t-11 -37.5v-68h-57v440h55v-262l112 126l42 -41z" />
    <glyph glyph-name="uni24DB" unicode="&#x24db;"
d="M846 502q0 -64 -21 -123.5t-63 -104.5q-42 -46 -104.5 -73.5t-145.5 -27.5q-84 0 -146.5 27.5t-104.5 75.5q-42 45 -62.5 104t-20.5 122q0 60 20.5 120t62.5 106q42 47 104.5 75.5t146.5 28.5q83 0 145.5 -28.5t104.5 -75.5q42 -46 63 -106t21 -120zM796 502
q0 53 -18 103.5t-54 90.5q-36 39 -89.5 63.5t-122.5 24.5q-72 0 -125 -24.5t-88 -63.5q-36 -40 -53.5 -90.5t-17.5 -103.5q0 -54 17.5 -104.5t53.5 -89.5q35 -39 88 -63t125 -24q71 0 124 23.5t89 63.5q35 39 53 89.5t18 104.5zM480 282v440h54v-440h-54z" />
    <glyph glyph-name="uni24DC" unicode="&#x24dc;"
d="M846 502q0 -64 -21 -123.5t-63 -104.5q-42 -46 -104.5 -73.5t-145.5 -27.5q-84 0 -146.5 27.5t-104.5 75.5q-42 45 -62.5 104t-20.5 122q0 60 20.5 120t62.5 106q42 47 104.5 75.5t146.5 28.5q83 0 145.5 -28.5t104.5 -75.5q42 -46 63 -106t21 -120zM796 502
q0 53 -18 103.5t-54 90.5q-36 39 -89.5 63.5t-122.5 24.5q-72 0 -125 -24.5t-88 -63.5q-36 -40 -53.5 -90.5t-17.5 -103.5q0 -54 17.5 -104.5t53.5 -89.5q35 -39 88 -63t125 -24q71 0 124 23.5t89 63.5q35 39 53 89.5t18 104.5zM576 647q45 0 69 -31t24 -91v-183h-52v183
q0 27 -10 44.5t-34 17.5q-21 0 -31 -18t-10 -44v-183h-54v187q0 23 -11 41.5t-32 18.5q-22 0 -31.5 -17.5t-9.5 -46.5v-183h-53v183q0 60 23.5 91t68.5 31q27 0 46 -13t26 -27q6 15 25 27.5t46 12.5z" />
    <glyph glyph-name="uni24DD" unicode="&#x24dd;"
d="M846 502q0 -64 -21 -123.5t-63 -104.5q-42 -46 -104.5 -73.5t-145.5 -27.5q-84 0 -146.5 27.5t-104.5 75.5q-42 45 -62.5 104t-20.5 122q0 60 20.5 120t62.5 106q42 47 104.5 75.5t146.5 28.5q83 0 145.5 -28.5t104.5 -75.5q42 -46 63 -106t21 -120zM796 502
q0 53 -18 103.5t-54 90.5q-36 39 -89.5 63.5t-122.5 24.5q-72 0 -125 -24.5t-88 -63.5q-36 -40 -53.5 -90.5t-17.5 -103.5q0 -54 17.5 -104.5t53.5 -89.5q35 -39 88 -63t125 -24q71 0 124 23.5t89 63.5q35 39 53 89.5t18 104.5zM418 526q0 51 22 80.5t67 29.5
q44 0 65.5 -29.5t21.5 -80.5v-158h-47v157q0 21 -6.5 40.5t-33.5 19.5q-28 0 -35 -19.5t-7 -40.5v-157h-47v158z" />
    <glyph glyph-name="uni24DE" unicode="&#x24de;"
d="M846 502q0 -64 -21 -123.5t-63 -104.5q-42 -46 -104.5 -73.5t-145.5 -27.5q-84 0 -146.5 27.5t-104.5 75.5q-42 45 -62.5 104t-20.5 122q0 60 20.5 120t62.5 106q42 47 104.5 75.5t146.5 28.5q83 0 145.5 -28.5t104.5 -75.5q42 -46 63 -106t21 -120zM796 502
q0 53 -18 103.5t-54 90.5q-36 39 -89.5 63.5t-122.5 24.5q-72 0 -125 -24.5t-88 -63.5q-36 -40 -53.5 -90.5t-17.5 -103.5q0 -54 17.5 -104.5t53.5 -89.5q35 -39 88 -63t125 -24q71 0 124 23.5t89 63.5q35 39 53 89.5t18 104.5zM612 474q0 -61 -24.5 -91t-72.5 -30
q-51 0 -76.5 31.5t-25.5 89.5v51q0 48 26 80.5t77 32.5q47 0 71.5 -33t24.5 -80v-51zM564 521q0 30 -12.5 47t-38.5 17q-27 0 -40 -19t-13 -45v-51q0 -27 12.5 -47t40.5 -20q24 0 37.5 17.5t13.5 50.5v50z" />
    <glyph glyph-name="uni24DF" unicode="&#x24df;"
d="M846 502q0 -64 -21 -123.5t-63 -104.5q-42 -46 -104.5 -73.5t-145.5 -27.5q-84 0 -146.5 27.5t-104.5 75.5q-42 45 -62.5 104t-20.5 122q0 60 20.5 120t62.5 106q42 47 104.5 75.5t146.5 28.5q83 0 145.5 -28.5t104.5 -75.5q42 -46 63 -106t21 -120zM796 502
q0 53 -18 103.5t-54 90.5q-36 39 -89.5 63.5t-122.5 24.5q-72 0 -125 -24.5t-88 -63.5q-36 -40 -53.5 -90.5t-17.5 -103.5q0 -54 17.5 -104.5t53.5 -89.5q35 -39 88 -63t125 -24q71 0 124 23.5t89 63.5q35 39 53 89.5t18 104.5zM509 709q69 0 95 -42.5t26 -102.5
q1 -24 -4.5 -49.5t-19.5 -46.5q-15 -21 -39.5 -34.5t-60.5 -13.5h-16v-156h-50v445h69zM507 478q32 0 52 21t20 63q0 50 -20 67.5t-52 17.5h-16v-169h16z" />
    <glyph glyph-name="uni24E0" unicode="&#x24e0;"
d="M846 502q0 -64 -21 -123.5t-63 -104.5q-42 -46 -104.5 -73.5t-145.5 -27.5q-84 0 -146.5 27.5t-104.5 75.5q-42 45 -62.5 104t-20.5 122q0 60 20.5 120t62.5 106q42 47 104.5 75.5t146.5 28.5q83 0 145.5 -28.5t104.5 -75.5q42 -46 63 -106t21 -120zM796 502
q0 53 -18 103.5t-54 90.5q-36 39 -89.5 63.5t-122.5 24.5q-72 0 -125 -24.5t-88 -63.5q-36 -40 -53.5 -90.5t-17.5 -103.5q0 -54 17.5 -104.5t53.5 -89.5q35 -39 88 -63t125 -24q71 0 124 23.5t89 63.5q35 39 53 89.5t18 104.5zM510 706h69v-445h-50v156h-16
q-37 0 -61.5 13.5t-39.5 34.5q-14 21 -19.5 46.5t-3.5 49.5q0 60 26 102.5t95 42.5zM512 475h16v169h-16q-33 0 -52.5 -17.5t-19.5 -67.5q0 -42 19.5 -63t52.5 -21z" />
    <glyph glyph-name="uni24E1" unicode="&#x24e1;"
d="M846 502q0 -64 -21 -123.5t-63 -104.5q-42 -46 -104.5 -73.5t-145.5 -27.5q-84 0 -146.5 27.5t-104.5 75.5q-42 45 -62.5 104t-20.5 122q0 60 20.5 120t62.5 106q42 47 104.5 75.5t146.5 28.5q83 0 145.5 -28.5t104.5 -75.5q42 -46 63 -106t21 -120zM796 502
q0 53 -18 103.5t-54 90.5q-36 39 -89.5 63.5t-122.5 24.5q-72 0 -125 -24.5t-88 -63.5q-36 -40 -53.5 -90.5t-17.5 -103.5q0 -54 17.5 -104.5t53.5 -89.5q35 -39 88 -63t125 -24q71 0 124 23.5t89 63.5q35 39 53 89.5t18 104.5zM446 344v171q0 63 26.5 94t86.5 31h41v-59
h-40q-36 0 -48 -20t-12 -46v-171h-54z" />
    <glyph glyph-name="uni24E2" unicode="&#x24e2;"
d="M846 502q0 -64 -21 -123.5t-63 -104.5q-42 -46 -104.5 -73.5t-145.5 -27.5q-84 0 -146.5 27.5t-104.5 75.5q-42 45 -62.5 104t-20.5 122q0 60 20.5 120t62.5 106q42 47 104.5 75.5t146.5 28.5q83 0 145.5 -28.5t104.5 -75.5q42 -46 63 -106t21 -120zM796 502
q0 53 -18 103.5t-54 90.5q-36 39 -89.5 63.5t-122.5 24.5q-72 0 -125 -24.5t-88 -63.5q-36 -40 -53.5 -90.5t-17.5 -103.5q0 -54 17.5 -104.5t53.5 -89.5q35 -39 88 -63t125 -24q71 0 124 23.5t89 63.5q35 39 53 89.5t18 104.5zM562 646v-53h-57q-17 0 -21.5 -8t-4.5 -15
q0 -13 21 -24t46 -27q24 -17 42 -41.5t11 -63.5q-8 -36 -31.5 -53.5t-62.5 -17.5h-67v55h54q15 0 27.5 2t18.5 13q14 27 -4 41.5t-44 28.5q-27 15 -51 36t-21 61q2 35 29 50.5t67 15.5h48z" />
    <glyph glyph-name="uni24E3" unicode="&#x24e3;"
d="M846 502q0 -64 -21 -123.5t-63 -104.5q-42 -46 -104.5 -73.5t-145.5 -27.5q-84 0 -146.5 27.5t-104.5 75.5q-42 45 -62.5 104t-20.5 122q0 60 20.5 120t62.5 106q42 47 104.5 75.5t146.5 28.5q83 0 145.5 -28.5t104.5 -75.5q42 -46 63 -106t21 -120zM796 502
q0 53 -18 103.5t-54 90.5q-36 39 -89.5 63.5t-122.5 24.5q-72 0 -125 -24.5t-88 -63.5q-36 -40 -53.5 -90.5t-17.5 -103.5q0 -54 17.5 -104.5t53.5 -89.5q35 -39 88 -63t125 -24q71 0 124 23.5t89 63.5q35 39 53 89.5t18 104.5zM582 349v-66h-28q-64 0 -89.5 34t-25.5 109
v305h61v-120h74v-64h-74v-115q0 -46 13 -64.5t41 -18.5h28z" />
    <glyph glyph-name="uni24E4" unicode="&#x24e4;"
d="M846 502q0 -64 -21 -123.5t-63 -104.5q-42 -46 -104.5 -73.5t-145.5 -27.5q-84 0 -146.5 27.5t-104.5 75.5q-42 45 -62.5 104t-20.5 122q0 60 20.5 120t62.5 106q42 47 104.5 75.5t146.5 28.5q83 0 145.5 -28.5t104.5 -75.5q42 -46 63 -106t21 -120zM796 502
q0 53 -18 103.5t-54 90.5q-36 39 -89.5 63.5t-122.5 24.5q-72 0 -125 -24.5t-88 -63.5q-36 -40 -53.5 -90.5t-17.5 -103.5q0 -54 17.5 -104.5t53.5 -89.5q35 -39 88 -63t125 -24q71 0 124 23.5t89 63.5q35 39 53 89.5t18 104.5zM619 463q0 -61 -28.5 -95t-79.5 -34t-79 34
t-28 95v181h55v-180q0 -25 9.5 -46t42.5 -23q32 2 42.5 22t10.5 47v180h55v-181z" />
    <glyph glyph-name="uni24E5" unicode="&#x24e5;"
d="M846 502q0 -64 -21 -123.5t-63 -104.5q-42 -46 -104.5 -73.5t-145.5 -27.5q-84 0 -146.5 27.5t-104.5 75.5q-42 45 -62.5 104t-20.5 122q0 60 20.5 120t62.5 106q42 47 104.5 75.5t146.5 28.5q83 0 145.5 -28.5t104.5 -75.5q42 -46 63 -106t21 -120zM796 502
q0 53 -18 103.5t-54 90.5q-36 39 -89.5 63.5t-122.5 24.5q-72 0 -125 -24.5t-88 -63.5q-36 -40 -53.5 -90.5t-17.5 -103.5q0 -54 17.5 -104.5t53.5 -89.5q35 -39 88 -63t125 -24q71 0 124 23.5t89 63.5q35 39 53 89.5t18 104.5zM472 342h-50q-6 0 -6.5 3.5l-0.5 3.5v301h58
v-232q3 1 3.5 1t1.5 1q2 1 6.5 5t17.5 14q27 27 41 53.5t14 67.5v90h61v-105q0 -40 -17.5 -75t-41.5 -62t-48.5 -44.5t-38.5 -21.5z" />
    <glyph glyph-name="uni24E6" unicode="&#x24e6;"
d="M846 502q0 -64 -21 -123.5t-63 -104.5q-42 -46 -104.5 -73.5t-145.5 -27.5q-84 0 -146.5 27.5t-104.5 75.5q-42 45 -62.5 104t-20.5 122q0 60 20.5 120t62.5 106q42 47 104.5 75.5t146.5 28.5q83 0 145.5 -28.5t104.5 -75.5q42 -46 63 -106t21 -120zM796 502
q0 53 -18 103.5t-54 90.5q-36 39 -89.5 63.5t-122.5 24.5q-72 0 -125 -24.5t-88 -63.5q-36 -40 -53.5 -90.5t-17.5 -103.5q0 -54 17.5 -104.5t53.5 -89.5q35 -39 88 -63t125 -24q71 0 124 23.5t89 63.5q35 39 53 89.5t18 104.5zM683 648v-185q0 -57 -23 -94.5t-80 -37.5
q-24 0 -39.5 9t-30.5 28q-15 -19 -31 -28t-42 -9t-45.5 9.5t-31.5 29.5q-13 20 -19.5 43t-6.5 50v185h57v-185q0 -27 12 -48t36 -21q12 0 21 7t13 19q3 12 5.5 22.5t2.5 20.5v185h57v-185q0 -10 2 -20.5t5 -21.5q3 -12 11.5 -18.5t21.5 -7.5q24 0 36 19t12 49v185h57z" />
    <glyph glyph-name="uni24E7" unicode="&#x24e7;"
d="M846 502q0 -64 -21 -123.5t-63 -104.5q-42 -46 -104.5 -73.5t-145.5 -27.5q-84 0 -146.5 27.5t-104.5 75.5q-42 45 -62.5 104t-20.5 122q0 60 20.5 120t62.5 106q42 47 104.5 75.5t146.5 28.5q83 0 145.5 -28.5t104.5 -75.5q42 -46 63 -106t21 -120zM796 502
q0 53 -18 103.5t-54 90.5q-36 39 -89.5 63.5t-122.5 24.5q-72 0 -125 -24.5t-88 -63.5q-36 -40 -53.5 -90.5t-17.5 -103.5q0 -54 17.5 -104.5t53.5 -89.5q35 -39 88 -63t125 -24q71 0 124 23.5t89 63.5q35 39 53 89.5t18 104.5zM609 603q0 -33 -6.5 -52t-26.5 -43
q17 -18 25 -42t8 -60v-62h-56v62q0 24 -9.5 47.5t-36.5 23.5q-24 0 -35 -24.5t-11 -48.5v-60h-57v62q0 36 7.5 60t23.5 42q-21 21 -26 41.5t-5 53.5v43h57v-43q0 -24 9.5 -42.5t36.5 -18.5q24 0 35 18.5t11 42.5v43h56v-43z" />
    <glyph glyph-name="uni24E8" unicode="&#x24e8;"
d="M846 502q0 -64 -21 -123.5t-63 -104.5q-42 -46 -104.5 -73.5t-145.5 -27.5q-84 0 -146.5 27.5t-104.5 75.5q-42 45 -62.5 104t-20.5 122q0 60 20.5 120t62.5 106q42 47 104.5 75.5t146.5 28.5q83 0 145.5 -28.5t104.5 -75.5q42 -46 63 -106t21 -120zM796 502
q0 53 -18 103.5t-54 90.5q-36 39 -89.5 63.5t-122.5 24.5q-72 0 -125 -24.5t-88 -63.5q-36 -40 -53.5 -90.5t-17.5 -103.5q0 -54 17.5 -104.5t53.5 -89.5q35 -39 88 -63t125 -24q71 0 124 23.5t89 63.5q35 39 53 89.5t18 104.5zM602 707v-321q0 -63 -22 -94t-66 -31h-40v57
h33q21 0 32 12t11 55v49q-13 -15 -21 -18t-26 -5q-49 0 -73 31.5t-24 94.5v170h52v-165q0 -31 9.5 -51t34.5 -19q21 -1 34.5 19t13.5 51v165h52z" />
    <glyph glyph-name="uni24E9" unicode="&#x24e9;"
d="M846 502q0 -64 -21 -123.5t-63 -104.5q-42 -46 -104.5 -73.5t-145.5 -27.5q-84 0 -146.5 27.5t-104.5 75.5q-42 45 -62.5 104t-20.5 122q0 60 20.5 120t62.5 106q42 47 104.5 75.5t146.5 28.5q83 0 145.5 -28.5t104.5 -75.5q42 -46 63 -106t21 -120zM796 502
q0 53 -18 103.5t-54 90.5q-36 39 -89.5 63.5t-122.5 24.5q-72 0 -125 -24.5t-88 -63.5q-36 -40 -53.5 -90.5t-17.5 -103.5q0 -54 17.5 -104.5t53.5 -89.5q35 -39 88 -63t125 -24q71 0 124 23.5t89 63.5q35 39 53 89.5t18 104.5zM538 643q22 0 35 -11.5t18 -28.5
q4 -16 0.5 -34.5t-13.5 -31.5q-9 -12 -22 -24.5t-25 -24.5q-13 -12 -24.5 -22.5t-18.5 -18.5q-13 -17 -18.5 -32.5t20.5 -15.5h103v-55h-121q-24 0 -38.5 12t-20.5 29q-5 18 -1 37.5t18 34.5q12 14 24.5 26.5l24.5 24.5q11 11 21 20.5t18 18.5q12 13 14.5 28t-22.5 15h-75
v53h103z" />
    <glyph glyph-name="SF100000" unicode="&#x2500;"
d="M113 405v39h827v-39h-827z" />
    <glyph glyph-name="uni2501" unicode="&#x2501;"
d="M102 386v67h848v-67h-848z" />
    <glyph glyph-name="SF110000" unicode="&#x2502;"
d="M0 4v827h39v-827h-39z" />
    <glyph glyph-name="uni2503" unicode="&#x2503;"
d="M0 77v777h72v-777h-72z" />
    <glyph glyph-name="SF010000" unicode="&#x250c;"
d="M58 388v-362h-58v418h419v-56h-361z" />
    <glyph glyph-name="uni250D" unicode="&#x250d;"
d="M58 379v-384h-58v468h460v-84h-402z" />
    <glyph glyph-name="uni250E" unicode="&#x250e;"
d="M88 387v-402h-88v459h470v-57h-382z" />
    <glyph glyph-name="uni250F" unicode="&#x250f;"
d="M88 379v-384h-88v468h470v-84h-382z" />
    <glyph glyph-name="SF030000" unicode="&#x2510;"
d="M371 26v362h-361v56h419v-418h-58z" />
    <glyph glyph-name="uni2511" unicode="&#x2511;"
d="M391 6v373h-391v84h450v-457h-59z" />
    <glyph glyph-name="uni2512" unicode="&#x2512;"
d="M382 -5v392h-382v57h471v-449h-89z" />
    <glyph glyph-name="uni2513" unicode="&#x2513;"
d="M392 -5v384h-382v84h471v-468h-89z" />
    <glyph glyph-name="SF020000" unicode="&#x2514;"
d="M0 405v419h58v-363h361v-56h-419z" />
    <glyph glyph-name="uni2515" unicode="&#x2515;"
d="M0 396v469h58v-384h392v-85h-450z" />
    <glyph glyph-name="uni2516" unicode="&#x2516;"
d="M0 405v460h88v-404h372v-56h-460z" />
    <glyph glyph-name="uni2517" unicode="&#x2517;"
d="M0 386v468h88v-384h382v-84h-470z" />
    <glyph glyph-name="SF040000" unicode="&#x2518;"
d="M10 405v56h361v363h58v-419h-419z" />
    <glyph glyph-name="uni2519" unicode="&#x2519;"
d="M0 396v85h401v384h59v-469h-460z" />
    <glyph glyph-name="uni251A" unicode="&#x251a;"
d="M0 405v56h382v404h89v-460h-471z" />
    <glyph glyph-name="uni251B" unicode="&#x251b;"
d="M10 386v84h382v384h89v-468h-471z" />
    <glyph glyph-name="SF080000" unicode="&#x251c;"
d="M58 396v-370h-58v798h58v-371h361v-57h-361z" />
    <glyph glyph-name="uni251D" unicode="&#x251d;"
d="M58 387v-381h-58v848h58v-381h392v-86h-392z" />
    <glyph glyph-name="uni251E" unicode="&#x251e;"
d="M83 396v-411h-58v430h-15v450h88v-412h382v-57h-397z" />
    <glyph glyph-name="uni251F" unicode="&#x251f;"
d="M98 396v-411h-88v450h15v430h58v-411h397v-58h-382z" />
    <glyph glyph-name="uni2520" unicode="&#x2520;"
d="M88 396v-401h-88v859h88v-401h382v-57h-382z" />
    <glyph glyph-name="uni2521" unicode="&#x2521;"
d="M73 387v-392h-59v425h-14v445h88v-392h382v-86h-397z" />
    <glyph glyph-name="uni2522" unicode="&#x2522;"
d="M88 387v-392h-88v445h14v425h59v-392h397v-86h-382z" />
    <glyph glyph-name="uni2523" unicode="&#x2523;"
d="M88 381v-365h-88v818h88v-367h351v-86h-351z" />
    <glyph glyph-name="SF090000" unicode="&#x2524;"
d="M381 27v388h-372v61h372v378h56v-827h-56z" />
    <glyph glyph-name="uni2525" unicode="&#x2525;"
d="M391 7v380h-391v86h391v381h59v-847h-59z" />
    <glyph glyph-name="uni2526" unicode="&#x2526;"
d="M507 415v-430h-60v411h-396v57h382v412h89v-450h-15z" />
    <glyph glyph-name="uni2527" unicode="&#x2527;"
d="M433 -15v411h-382v57h396v412h60v-430h15v-450h-89z" />
    <glyph glyph-name="uni2528" unicode="&#x2528;"
d="M392 -5v401h-382v57h382v401h89v-859h-89z" />
    <glyph glyph-name="uni2529" unicode="&#x2529;"
d="M507 420v-424h-60v391h-396v86h382v392h89v-445h-15z" />
    <glyph glyph-name="uni252A" unicode="&#x252a;"
d="M590 -5v392h-383v86h396v392h60v-425h15v-445h-88z" />
    <glyph glyph-name="uni252B" unicode="&#x252b;"
d="M350 16v365h-350v86h350v367h89v-818h-89z" />
    <glyph glyph-name="SF060000" unicode="&#x252c;"
d="M521 387v-371h-60v371h-369v57h828v-57h-399z" />
    <glyph glyph-name="uni252D" unicode="&#x252d;"
d="M544 393v-398h-61v384h-409v84h450v-13h449v-57h-429z" />
    <glyph glyph-name="uni252E" unicode="&#x252e;"
d="M556 379v-384h-60v398h-409v57h429v13h450v-84h-410z" />
    <glyph glyph-name="uni252F" unicode="&#x252f;"
d="M520 379v-373h-59v373h-400v84h859v-84h-400z" />
    <glyph glyph-name="uni2530" unicode="&#x2530;"
d="M529 387v-392h-89v392h-379v57h847v-57h-379z" />
    <glyph glyph-name="uni2531" unicode="&#x2531;"
d="M554 393v-398h-90v384h-389v84h444v-13h424v-57h-389z" />
    <glyph glyph-name="uni2532" unicode="&#x2532;"
d="M574 379v-384h-90v398h-390v57h425v13h444v-84h-389z" />
    <glyph glyph-name="uni2533" unicode="&#x2533;"
d="M536 379v-373h-91v373h-384v84h859v-84h-384z" />
    <glyph glyph-name="SF070000" unicode="&#x2534;"
d="M102 405v56h379v372h60v-372h389v-56h-828z" />
    <glyph glyph-name="uni2535" unicode="&#x2535;"
d="M524 409v-13h-449v85h409v383h60v-398h409v-57h-429z" />
    <glyph glyph-name="uni2536" unicode="&#x2536;"
d="M504 396v13h-430v57h409v398h60v-383h409v-85h-448z" />
    <glyph glyph-name="uni2537" unicode="&#x2537;"
d="M61 396v85h400v384h59v-384h400v-85h-859z" />
    <glyph glyph-name="uni2538" unicode="&#x2538;"
d="M61 456v56h380v342h100v-342h379v-56h-859z" />
    <glyph glyph-name="uni2539" unicode="&#x2539;"
d="M527 409v-13h-445v85h390v384h90v-399h388v-57h-423z" />
    <glyph glyph-name="uni253A" unicode="&#x253a;"
d="M497 396v13h-425v57h390v450h90v-435h388v-85h-443z" />
    <glyph glyph-name="uni253B" unicode="&#x253b;"
d="M77 396v85h384v373h90v-373h384v-85h-858z" />
    <glyph glyph-name="SF050000" unicode="&#x253c;"
d="M520 396v-401h-59v401h-400v57h400v401h59v-401h400v-57h-400z" />
    <glyph glyph-name="uni253D" unicode="&#x253d;"
d="M543 405v-410h-61v392h-409v90h409v388h61v-407h408v-53h-408z" />
    <glyph glyph-name="uni253E" unicode="&#x253e;"
d="M546 387v-392h-60v406h-409v57h409v407h60v-392h409v-86h-409z" />
    <glyph glyph-name="uni253F" unicode="&#x253f;"
d="M520 387v-402h-59v402h-420v86h420v402h59v-402h420v-86h-420z" />
    <glyph glyph-name="uni2540" unicode="&#x2540;"
d="M536 396v-411h-61v411h-404v57h390v412h90v-412h388v-57h-403z" />
    <glyph glyph-name="uni2541" unicode="&#x2541;"
d="M558 396v-411h-90v411h-390v57h404v412h60v-412h404v-57h-388z" />
    <glyph glyph-name="uni2542" unicode="&#x2542;"
d="M531 396v-421h-91v421h-399v57h399v422h91v-422h399v-57h-399z" />
    <glyph glyph-name="uni2543" unicode="&#x2543;"
d="M549 396v-396h-61v381h-403v87h389v392h90v-407h389v-57h-404z" />
    <glyph glyph-name="uni2544" unicode="&#x2544;"
d="M531 381v-391h-60v406h-403v57h389v407h90v-393h389v-86h-405z" />
    <glyph glyph-name="uni2545" unicode="&#x2545;"
d="M565 396v-406h-90v391h-394v86h409v393h60v-407h409v-57h-394z" />
    <glyph glyph-name="uni2546" unicode="&#x2546;"
d="M563 381v-396h-90v411h-394v57h408v412h61v-398h409v-86h-394z" />
    <glyph glyph-name="uni2547" unicode="&#x2547;"
d="M541 387v-392h-61v392h-408v86h394v392h90v-392h394v-86h-409z" />
    <glyph glyph-name="uni2548" unicode="&#x2548;"
d="M556 387v-392h-90v392h-394v86h408v392h61v-392h409v-86h-394z" />
    <glyph glyph-name="uni2549" unicode="&#x2549;"
d="M551 396v-411h-90v396h-389v86h389v398h90v-412h389v-57h-389z" />
    <glyph glyph-name="uni254A" unicode="&#x254a;"
d="M561 381v-396h-90v411h-389v57h389v412h90v-398h389v-86h-389z" />
    <glyph glyph-name="uni254B" unicode="&#x254b;"
d="M530 387v-392h-90v392h-399v86h399v392h90v-392h390v-86h-390z" />
    <glyph glyph-name="shade" unicode="&#x2592;"
d="M828 133h-634v628h634v-628zM782 174v545h-543v-545h543zM734 652q-15 0 -22 8t-7 20q0 11 7 20t22 9q14 0 21.5 -9t7.5 -20q0 -12 -7.5 -20t-21.5 -8zM763 509q6 0 10.5 1.5t8.5 5.5q4 3 6.5 9t2.5 13q0 5 -2.5 10.5t-6.5 10.5q-4 3 -8.5 5.5t-10.5 2.5q-15 0 -22 -10
t-7 -19q0 -12 7 -20.5t22 -8.5zM587 652q-15 0 -22 8t-7 20q0 11 7 20t22 9q14 0 21 -9t7 -20q0 -12 -7 -20t-21 -8zM641 508q-15 0 -22.5 8.5t-7.5 20.5q0 11 7.5 20.5t22.5 9.5q14 0 21.5 -9.5t7.5 -20.5q0 -12 -7.5 -20.5t-21.5 -8.5zM440 653q-15 0 -22.5 8t-7.5 20
q0 11 7.5 20t22.5 9q14 0 21 -9t7 -20q0 -12 -7 -20t-21 -8zM730 352q-15 0 -21.5 8t-6.5 20q0 9 6.5 18.5t21.5 9.5q14 0 21 -9.5t7 -18.5q0 -12 -7 -20t-21 -8zM513 508q-15 0 -22 8.5t-7 20.5q0 11 7 20.5t22 9.5q14 0 21 -9.5t7 -20.5q0 -12 -7 -20.5t-21 -8.5zM302 653
q-15 0 -22 8t-7 20q0 11 7 20t22 9q14 0 21.5 -9t7.5 -20q0 -12 -7.5 -20t-21.5 -8zM763 192q6 0 10.5 1.5t8.5 4.5t6.5 9t2.5 13q0 6 -2.5 11.5t-6.5 9.5q-4 3 -8.5 5.5t-10.5 2.5q-15 0 -22 -9t-7 -20q0 -12 7 -20t22 -8zM587 349q-15 0 -22 8.5t-7 20.5q0 9 7 19t22 10
q14 0 21 -10t7 -19q0 -12 -7 -20.5t-21 -8.5zM375 510q-15 0 -22.5 8t-7.5 20q0 11 7.5 20t22.5 9q14 0 21.5 -9t7.5 -20q0 -12 -7.5 -20t-21.5 -8zM641 191q-15 0 -22.5 8.5t-7.5 20.5q0 9 7.5 19t22.5 10q14 0 21.5 -10t7.5 -19q0 -12 -7.5 -20.5t-21.5 -8.5zM440 351
q-15 0 -22 8t-7 20q0 11 7 20t22 9q14 0 21.5 -9t7.5 -20q0 -12 -7.5 -20t-21.5 -8zM259 510q14 0 21.5 8t7.5 20q0 11 -7.5 20t-21.5 9q-7 0 -12 -2.5t-8 -5.5q-6 -4 -8 -9.5t-2 -11.5q0 -7 2 -13t8 -9q3 -3 8 -4.5t12 -1.5zM513 191q-15 0 -22 8.5t-7 20.5q0 9 7 19t22 10
q14 0 21 -10t7 -19q0 -12 -7 -20.5t-21 -8.5zM302 351q-15 0 -21.5 8t-6.5 20q0 11 6.5 20t21.5 9q14 0 21.5 -9t7.5 -20q0 -12 -7.5 -20t-21.5 -8zM375 193q-15 0 -22.5 8t-7.5 20q0 9 7.5 18.5t22.5 9.5q14 0 21.5 -9.5t7.5 -18.5q0 -12 -7.5 -20t-21.5 -8zM259 193
q14 0 21.5 8t7.5 20q0 9 -7.5 18.5t-21.5 9.5q-7 0 -12 -2.5t-8 -5.5q-6 -4 -8 -9.5t-2 -10.5q0 -7 2 -13t8 -9q3 -3 8 -4.5t12 -1.5z" />
    <glyph glyph-name="filledbox" unicode="&#x25a0;"
d="M766 203h-508v507h508v-507z" />
    <glyph glyph-name="H22073" unicode="&#x25a1;"
d="M769 200h-514v513h514v-513zM718 252v409h-412v-409h412z" />
    <glyph glyph-name="uni25A3" unicode="&#x25a3;"
d="M828 128h-634v628h634v-628zM782 171v542h-542v-542h542zM690 260h-359v362h359v-362z" />
    <glyph glyph-name="uni25A4" unicode="&#x25a4;"
d="M828 133h-634v628h634v-628zM782 622v97h-543v-97h543zM782 473v109h-543v-109h543zM782 316v117h-543v-117h543zM782 174v101h-543v-101h543z" />
    <glyph glyph-name="uni25A5" unicode="&#x25a5;"
d="M828 133h-634v628h634v-628zM782 174v545h-102v-545h102zM636 174v545h-100v-545h100zM492 174v546h-104v-546h104zM343 174v545h-104v-545h104z" />
    <glyph glyph-name="uni25A6" unicode="&#x25a6;"
d="M828 133h-634v628h634v-628zM782 611v108h-102v-108h102zM637 611v108h-101v-108h101zM782 461v108h-102v-108h102zM489 611v108h-102v-108h102zM782 319v101h-102v-101h102zM637 461v108h-101v-108h101zM782 174v102h-102v-102h102zM343 611v108h-104v-108h104zM637 319
v100h-101v-100h101zM489 461v107h-102v-107h102zM637 174v102h-101v-102h101zM489 319v100h-102v-100h102zM343 461v107h-105v-107h105zM489 175v101h-102v-101h102zM343 319v100h-104v-100h104zM343 174v102h-104v-102h104z" />
    <glyph glyph-name="uni25A7" unicode="&#x25a7;"
d="M828 133h-634v628h634v-628zM782 487v232h-232zM782 208v218l-293 293h-220zM754 174l-515 517v-225l292 -292h223zM472 175l-233 232v-233z" />
    <glyph glyph-name="uni25A8" unicode="&#x25a8;"
d="M828 133h-634v628h634v-628zM754 719h-223l-292 -293v-222zM470 719h-231v-231zM782 463v225l-513 -514l224 1zM782 174v228l-228 -228h228z" />
    <glyph glyph-name="uni25A9" unicode="&#x25a9;"
d="M828 133h-634v628h634v-628zM754 719h-205l102 -101zM782 487v198l-99 -99zM760 448l-108 107l-111 -110l108 -108zM621 587l-108 108l-113 -111l109 -108zM782 204v205l-102 -102zM474 719h-210l105 -104zM338 584l-99 101v-199zM750 174l-102 101l-100 -101h202z
M616 307l-107 107l-110 -108l110 -109zM478 445l-109 107l-110 -108l110 -109zM338 305l-100 101v-119l1 -82zM470 174l-102 101l-103 -101h205z" />
    <glyph glyph-name="triagup" unicode="&#x25b2;"
d="M849 210h-660l331 554z" />
    <glyph glyph-name="uni25B3" unicode="&#x25b3;"
d="M849 200h-660l331 554zM753 249l-234 399l-235 -399h469z" />
    <glyph glyph-name="uni25B6" unicode="&#x25b6;"
d="M743 469l-496 -316v637z" />
    <glyph glyph-name="uni25B7" unicode="&#x25b7;"
d="M751 469l-512 -325v655zM672 468l-388 251v-497z" />
    <glyph glyph-name="triagdn" unicode="&#x25bc;"
d="M849 731l-329 -554l-331 554h660z" />
    <glyph glyph-name="uni25BD" unicode="&#x25bd;"
d="M849 731l-329 -554l-331 554h660zM753 681h-469l235 -398z" />
    <glyph glyph-name="uni25C0" unicode="&#x25c0;"
d="M734 153l-496 316l496 321v-637z" />
    <glyph glyph-name="uni25C1" unicode="&#x25c1;"
d="M742 144l-512 325l512 330v-655zM697 222v497l-388 -251z" />
    <glyph glyph-name="uni25C6" unicode="&#x25c6;"
d="M846 451l-339 -338l-338 337l337 339z" />
    <glyph glyph-name="uni25C7" unicode="&#x25c7;"
d="M863 482l-356 -356l-355 355l354 356zM782 482l-275 276l-275 -276l275 -275z" />
    <glyph glyph-name="uni25C8" unicode="&#x25c8;"
d="M891 447l-373 -372l-370 371l373 373zM829 447l-309 310l-312 -312l310 -310zM752 445l-234 -233l-230 231l233 233z" />
    <glyph glyph-name="circle" unicode="&#x25cb;"
d="M823 455q0 -60 -19.5 -115t-58.5 -97q-39 -43 -96.5 -68.5t-134.5 -25.5q-78 0 -135.5 26.5t-95.5 69.5q-39 42 -58 97.5t-19 112.5t19 111.5t58 97.5q38 42 95.5 69t135.5 27q77 0 134.5 -27t96.5 -69q39 -43 58.5 -97.5t19.5 -111.5zM760 454q0 45 -15.5 89t-45.5 78
q-31 33 -77.5 54.5t-106.5 21.5q-63 0 -109 -21.5t-76 -54.5q-31 -34 -46 -78t-15 -89q0 -46 15 -90t46 -77q30 -34 76 -54.5t109 -20.5q60 0 106.5 20.5t77.5 54.5q30 33 45.5 77t15.5 90z" />
    <glyph glyph-name="uni25CE" unicode="&#x25ce;"
d="M828 455q0 -60 -20 -116t-59 -100q-39 -43 -98 -69t-137 -26q-79 0 -137.5 26t-97.5 71q-39 44 -58.5 100t-19.5 114q0 57 19.5 113t58.5 99q39 44 97.5 71t137.5 27q78 0 137 -27t98 -71q39 -43 59 -99t20 -113zM775 454q0 48 -16.5 94.5t-49.5 82.5t-82 58.5t-112 22.5
q-66 0 -115 -22.5t-81 -58.5q-33 -36 -49 -82.5t-16 -94.5q0 -49 16 -95t49 -82q32 -36 81 -58t115 -22q63 0 112 21.5t82 57.5t49.5 82.5t16.5 95.5zM744 457q0 -42 -14.5 -83t-43.5 -71q-28 -33 -71 -51.5t-100 -18.5t-99.5 18.5t-69.5 51.5q-28 30 -42 71t-14 83
q0 41 14 81.5t42 71.5q27 32 69.5 51.5t99.5 19.5t100 -20t71 -50q29 -33 43.5 -72.5t14.5 -81.5zM687 457q0 30 -11 61t-32 55t-53 38.5t-74 14.5q-43 0 -75 -14.5t-53 -38.5t-31.5 -55t-10.5 -61q0 -33 10 -63t31 -54t52.5 -38t76.5 -14q42 0 74 14t53 38t32 54t11 63z
" />
    <glyph glyph-name="H18533" unicode="&#x25cf;"
d="M806 464q0 -54 -18.5 -105.5t-54.5 -92.5q-37 -40 -91.5 -64.5t-126.5 -24.5q-73 0 -128 24.5t-91 64.5q-37 41 -55 92.5t-18 105.5t18 106t55 92q36 41 91 66t128 25q72 0 126.5 -25t91.5 -66q36 -40 54.5 -92t18.5 -106z" />
    <glyph glyph-name="uni25D0" unicode="&#x25d0;"
d="M852 436q0 -63 -22 -122t-64 -106q-43 -46 -108 -74.5t-149 -28.5q-81 0 -141.5 28.5t-101.5 74.5q-40 47 -60.5 106t-20.5 122q0 60 20.5 119t60.5 107q41 45 101.5 74t141.5 29q84 0 149 -29t108 -74q42 -48 64 -107t22 -119zM806 436q0 53 -18.5 104t-54.5 93
q-36 41 -90 65.5t-123 27.5v-582q69 0 123 25.5t90 67.5q36 41 54.5 92.5t18.5 106.5z" />
    <glyph glyph-name="uni25D1" unicode="&#x25d1;"
d="M852 446q0 -63 -22 -122t-64 -106q-42 -46 -105.5 -74.5t-147.5 -28.5q-82 0 -143.5 28.5t-102.5 74.5q-42 47 -62 106t-20 122q0 60 20 120t62 106q41 47 102.5 75.5t143.5 28.5q84 0 147.5 -28.5t105.5 -75.5q42 -46 64 -106t22 -120zM501 153v584q-64 -3 -115 -29
t-84 -65q-36 -42 -53.5 -93t-17.5 -105t17.5 -106t53.5 -93q33 -40 84 -66.5t115 -26.5z" />
    <glyph glyph-name="uni2605" unicode="&#x2605;"
d="M906 559l-243 -184l101 -295l-256 191l-249 -182l95 292l-236 178h297l93 276l96 -276h302z" />
    <glyph glyph-name="uni2606" unicode="&#x2606;"
d="M894 536l-237 -176l99 -287l-248 185l-241 -177l92 283l-229 172h288l91 274l92 -274h293zM734 487h-174l-50 155l-51 -155h-172l137 -107l-54 -158l137 103l141 -105l-56 158z" />
    <glyph glyph-name="uni260E" unicode="&#x260e;"
d="M881 522q3 -42 -13 -56t-43 -11q-24 0 -49 5.5t-46 15.5q-22 9 -38 21t-16 27q0 9 2 16t5 13l9 26q-3 6 -11.5 10.5t-20.5 4.5q-1 -36 3 -60.5t14 -44.5q9 -21 24 -39.5t39 -39.5q30 -30 42 -54.5t15 -44.5l4 -35q1 -5 2 -9l2 -8q2 -4 4 -7.5t5 -6.5q9 -13 7 -27t-13 -23
q-10 -12 -26 -18t-34 -6h-522q-15 3 -22 13t-9 25q-3 12 0.5 26t12.5 23q2 2 3.5 6.5t1.5 11.5q1 6 2 14t3 17q3 18 13 40.5t34 47.5q9 9 18.5 18t18.5 18l16 18t15 19q12 18 19.5 42t7.5 57l-1 34q-9 -3 -16.5 -10.5t-9.5 -18.5q-1 -3 -0.5 -5.5t1.5 -4.5q1 -3 2.5 -5
t3.5 -4q3 -6 5 -12t2 -15q0 -14 -10.5 -26t-33.5 -23q-24 -11 -51 -18t-59 -10q-24 -3 -41 11.5t-13 56.5q3 35 24 68t64 60q42 27 111 43t171 16q95 0 164 -12t113 -36q43 -24 67 -58t28 -76zM596 576v37q-57 -9 -97.5 -7t-73.5 8v-40q0 -12 8 -17t29 -5h89q29 0 37 6t8 18
zM508 229q36 0 63 11.5t45 30.5q18 20 27 44t9 51q0 24 -9 48.5t-27 45.5q-18 18 -45 30.5t-63 12.5t-61.5 -12.5t-43.5 -30.5q-18 -21 -26 -45.5t-8 -48.5q0 -27 8 -51t26 -44q18 -19 43.5 -30.5t61.5 -11.5z" />
    <glyph glyph-name="uni260F" unicode="&#x260f;"
d="M870 523q3 -40 -11 -52.5t-40 -9.5q-24 0 -48.5 5.5t-45.5 14.5t-36 20.5t-15 24.5l1 15q0 3 1 6t4 6q0 3 1.5 6.5t4.5 7.5l3 15q-3 9 -13.5 15t-28.5 6q-3 -39 2 -66.5t15 -48.5q9 -21 25 -41t40 -41q30 -30 40.5 -54.5t14.5 -44.5q0 -10 1 -19t4 -17q0 -9 4 -17t11 -16
q6 -15 2.5 -27t-12.5 -21q-10 -9 -24.5 -14t-29.5 -5h-528q-12 3 -18 12.5t-8 21.5q-1 12 1 24t11 21q3 3 5 10t3 13l1 15l3 18q3 18 12 39.5t33 45.5l19 19q2 1 4.5 3.5l4.5 4.5q2 3 4.5 5.5l5.5 5.5l33 37q12 20 19.5 44t7.5 60l-1 40q-18 -3 -31 -18t-4 -30
q1 -3 2.5 -5.5t2.5 -4.5l2 -4t2 -3q2 -4 3 -8t1 -10q0 -12 -11 -23t-32 -21q-22 -11 -49 -18t-60 -10q-21 -3 -37 10t-12 52q3 33 23 67t63 61q42 26 111.5 42t172.5 17q96 0 164 -12t113 -35q44 -24 66 -58t28 -76zM836 541q-6 36 -36 62t-75 42q-46 15 -103.5 23t-117.5 8
q-55 0 -114 -8t-107 -26q-49 -18 -83 -47t-39 -71q-3 -27 2.5 -35t17.5 -8l48 9q11 2 20 4.5t18 5.5q18 6 26.5 14.5t5.5 20.5q-3 3 -4.5 6.5t-1.5 6.5q-3 3 -5.5 7.5t-2.5 8.5q-1 1 -1.5 3.5t-0.5 4.5v5t2 6q3 21 24.5 35t45.5 17q17 0 24 -18.5t4 -69.5
q-3 -31 -11.5 -54.5t-22.5 -41.5q-7 -10 -15 -19.5t-17 -18.5l-5.5 -5.5l-4.5 -4.5l-4.5 -4.5t-3.5 -4.5q-6 -4 -10.5 -9t-7.5 -10q-24 -24 -31.5 -40.5t-9.5 -31.5l-4 -29q-2 -5 -3 -9l-2 -8t-3 -8.5t-4 -8.5q-2 -5 -3.5 -8t-2.5 -7q-2 -3 -2.5 -7t-0.5 -8q0 -6 2.5 -8.5
t8.5 -2.5l20 1h472q36 0 47 5.5t11 17.5l-8 24q-3 6 -6.5 13.5t-3.5 16.5l-3 15l-2 18q-3 15 -13.5 35t-34.5 45q-30 27 -48.5 52t-26.5 49q-9 23 -12 48t-2 52q0 30 17 38t63 -10q13 -8 18.5 -16t6.5 -17q0 -9 -3 -19t-7 -22q-3 -3 -4 -6t-1 -6q-1 -4 0 -8.5t5 -7.5
q12 -12 45 -20.5t61 -8.5q15 -1 19.5 9.5t-0.5 43.5zM602 571q0 -24 -15.5 -31.5t-44.5 -7.5h-91q-21 0 -37 7.5t-16 29.5v66q44 -9 88 -11.5t104 7.5h12v-60zM660 364q0 -30 -10.5 -58.5t-30.5 -51.5q-21 -22 -51.5 -35.5t-69.5 -13.5q-42 0 -72.5 13.5t-50.5 35.5
q-21 23 -30.5 51.5t-9.5 58.5q0 29 9.5 58t30.5 51q20 23 50.5 37t72.5 14q39 0 69.5 -14t51.5 -37q20 -22 30.5 -51t10.5 -58zM570 573v30q-33 -6 -69 -6t-72 9v-27q0 -13 6.5 -16.5t18.5 -3.5h91l14 1q3 0 7 3t4 10zM629 365q0 24 -9 48.5t-24 43.5q-18 18 -42 30t-56 12
q-33 0 -58 -12t-42 -30q-18 -19 -25.5 -43.5t-7.5 -48.5q-1 -27 6.5 -51t25.5 -42q15 -19 40.5 -30.5t59.5 -11.5q33 0 57 11.5t42 30.5q15 18 24 42t9 51z" />
    <glyph glyph-name="uni261C" unicode="&#x261c;"
d="M893 331h-92v24q-12 -3 -21 -5t-18 -5l-34 -14q-24 -9 -55 -16t-79 -10q-19 -1 -35 1t-33 11q-12 -3 -22 -4.5t-24 -0.5q-31 0 -51.5 13.5t-17.5 34.5q-27 3 -41.5 11.5t-20.5 20.5q-6 8 -6 16.5t6 17.5q-27 12 -35.5 35.5t12.5 45.5l-65 1l-68 3q-30 0 -44.5 12
t-14.5 25q-3 14 8.5 26t35.5 15q86 11 179.5 20.5t186.5 10.5q66 0 100.5 -5.5t55.5 -14.5l20 -11q2 -2 4.5 -3.5t4.5 -2.5q2 -2 5 -3l6 -2q9 -6 22.5 -11.5t32.5 -11.5h6v33h92v-257zM866 355v209h-38v-209h38zM604 458l-9 17q-3 3 -3 4v4h-4h-5t-6.5 -0.5t-7.5 -1.5
q9 -4 14 -7.5t14 -10.5zM801 378v152q-18 3 -31 6t-24 9l-43 22q-6 2 -11.5 4.5t-11.5 4.5t-12.5 4.5t-13.5 4.5v-17l-105 -7q-18 -3 -27.5 -6.5t-18.5 -8.5q-7 -5 -13 -9l-12 -8l-12 -8l-12 -8l-47 -34q-12 -6 -14.5 -12t6.5 -9q5 -3 13 -3.5t14 2.5q8 0 16 3t15 9
q8 3 15 7.5t14 10.5q14 9 26 15t25 6q6 -3 14.5 -4.5t17.5 -1.5q4 -1 8.5 -1h8.5h8t9 2q15 3 20.5 -4t-0.5 -16q9 -24 33.5 -45.5t64.5 -30.5l-2 -20q-33 6 -64.5 25.5t-58.5 59.5v1l1 -10q2 -13 1.5 -20.5t-2.5 -12.5q12 -10 16 -22.5t-2 -24.5q-6 -13 -20.5 -27t-38.5 -29
l23 -1l21 2q51 3 78.5 10.5t46.5 16.5q21 9 37.5 14.5t43.5 8.5zM631 589q-9 1 -19 2.5t-21 1.5q-48 0 -93.5 -2t-93.5 -5q-24 -2 -50 -4.5t-53 -5.5q-28 -3 -58 -6t-62 -6q-6 -1 -10 -2.5t-6 -3.5q-3 -3 -2.5 -6t3.5 -5q3 -6 13.5 -8.5t23.5 -2.5l201 -6q3 0 6 -0.5t6 -1.5
q3 0 6 -0.5t6 -0.5q4 2 8 5l8 6l8 6t9 6q6 6 14.5 11t17.5 9q16 6 45.5 10.5t92.5 8.5zM538 480q-2 1 -5 1.5t-7 -0.5q-8 -5 -14.5 -10t-12.5 -9q-7 -4 -12.5 -7.5t-11.5 -6.5q-12 -7 -26 -12t-32 -5l-7 -1l24 -3q21 -1 49.5 12t46.5 28q2 3 3.5 5t2.5 3q1 2 1.5 2.5
t0.5 2.5zM386 437q-16 9 -15 30t40 43l-17 -3h-7q-24 -4 -37.5 -14.5t-10.5 -19.5q0 -15 14.5 -24t32.5 -12zM572 451q0 3 -5 5t-11 -1q-33 -27 -61.5 -38t-55.5 -14q-18 0 -31 2.5t-25 8.5q-6 0 -9 -1t-2 -7q6 -13 29 -20t44 -7q45 5 78.5 23t48.5 45v4zM588 403q0 6 -4 6
t-7 -2q-18 -13 -50.5 -30.5t-73.5 -19.5h-7l-4 1q-3 0 -4.5 -1t-0.5 -4q3 -6 17 -12.5t38 -5.5q30 0 58 20.5t37 41.5z" />
    <glyph glyph-name="uni261E" unicode="&#x261e;"
d="M891 543q-3 -16 -23.5 -27t-50.5 -11l-116 -2q21 -22 13 -43t-29 -33q5 -27 -11 -45t-49 -24q-7 -33 -40 -46t-80 5q-51 -12 -88.5 -12t-67.5 9q-8 1 -15 3t-14 5q-6 2 -12.5 4.5t-12.5 4.5l-48 18l-20 1v-21h-91v257h91v-33l36 13q9 3 16.5 6.5t16.5 9.5q15 9 36.5 18.5
t60.5 16.5q87 5 197 -3.5t254 -25.5q24 -3 37 -15.5t10 -29.5zM665 443q18 9 22.5 19t-0.5 19q-6 8 -17.5 14.5t-23.5 9.5h-16q15 -12 21.5 -25t4.5 -24q-3 -12 -14.5 -20t-31.5 -5v-6q15 0 29 4.5t26 13.5zM861 545q2 3 1.5 8.5t-12.5 11.5l-153 17q-26 1 -53.5 3t-57.5 4
t-62 3.5t-66 3.5q-28 0 -48.5 -2.5t-35.5 -5.5q46 0 73 -1t46 -3q17 -3 30.5 -9t25.5 -12q6 -4 11.5 -8t11.5 -8l12 -10t14 -9h212q21 0 33 5.5t18 11.5zM371 588q-15 -4 -26 -9t-20 -9l-24 -14l-21 -11q-12 -6 -24 -9t-29 -6v-155l28 -4q3 -2 6 -3t7 -2q3 -1 6 -1.5t7 -0.5
q3 -2 6 -3l6 -2l6 -2t7 -2q3 -2 6 -3l6 -2l6 -2t7 -2q24 -9 56.5 -14t80.5 1q-24 15 -34.5 29t-13.5 26q-4 12 0.5 22t16.5 16q-7 12 -7.5 21.5t6.5 18.5l-4 3q-18 -36 -47 -53.5t-67 -28.5l-12 16q27 9 58 28t46 52q-13 8 -16 13t0 8q2 2 10 2.5t23 -2.5l30 -1l40 2
q6 0 11.5 -2t11.5 -5t12 -7t14 -8q6 -6 12.5 -10t13.5 -7q6 -4 13.5 -7.5t16.5 -3.5q11 -3 18.5 -0.5t10.5 5.5t2 7t-4 8l-104 73q-12 6 -30.5 9.5t-38.5 6.5q-11 1 -21 1.5t-20 0.5q-9 1 -17.5 1t-14.5 1zM563 438q-15 6 -30.5 15t-27.5 21l-9 4q0 -2 0.5 -2.5l1.5 -1.5
l1.5 -1.5t1.5 -0.5q15 -13 31 -22t31 -12zM666 414l-26 -9q-6 -3 -10.5 -3h-7.5q-46 -6 -84 11.5t-62 42.5q-6 3 -13.5 1.5t-6.5 -7.5q3 -13 14.5 -24.5t29.5 -22.5q18 -12 36.5 -18.5t38.5 -8.5h9q9 0 21.5 1t24.5 5q12 3 20 9t8 10q0 2 0.5 3.5t0.5 2.5l2.5 2.5zM454 478
l-1 5l-14 -7zM438 475l-5 -5l4 -3zM597 352q-1 2 -3.5 2.5l-2.5 0.5l-7 -1q-34 0 -68 15t-55 34q-9 6 -14.5 0.5t-2.5 -8.5q6 -22 33.5 -41t64.5 -22h5q17 -3 28 2t18 12q2 0 3 1.5t1 4.5zM201 353v209h-38v-209h38z" />
    <glyph glyph-name="female" unicode="&#x2640;"
d="M765 370h-221v-273h-63v273h-215v59h214v79q-30 5 -52.5 20t-34.5 36q-15 21 -21 46t-6 50q0 27 9.5 52.5t27.5 46.5q18 20 46 32.5t64 12.5t65 -12.5t50 -32.5q20 -21 30.5 -46.5t10.5 -52.5t-8 -51t-23 -47q-15 -24 -38.5 -37.5t-54.5 -17.5v-78h220v-59zM608 654
q0 36 -23.5 65t-68.5 29t-67.5 -29t-22.5 -64q0 -36 22 -65t67 -29t69 28.5t24 64.5z" />
    <glyph glyph-name="male" unicode="&#x2642;"
d="M718 546l-39 -46l-139 178v-279q30 -6 52 -20.5t36 -37.5t21 -47t7 -49q0 -27 -11 -52.5t-29 -45.5q-21 -21 -48.5 -32t-63.5 -11t-63 12t-45 33q-18 20 -27 46t-9 53q0 51 29.5 95t89.5 56v277l-129 -171l-48 40l208 269zM597 251q0 35 -22.5 64t-67.5 29
q-42 0 -64 -28.5t-22 -64.5t22 -64.5t64 -28.5q45 0 67.5 28.5t22.5 64.5z" />
    <glyph glyph-name="spade" unicode="&#x2660;"
d="M798 340q0 -64 -38.5 -103t-92.5 -39q-34 0 -71 19.5t-55 70.5q-1 2 -2.5 1.5t-0.5 -0.5q3 -21 10 -46.5t16 -49.5q9 -25 21 -47.5t27 -34.5v-27h-214v24q12 12 25 34.5t23 49.5q9 24 17 49t12 46v6l-3 -6q-22 -49 -54.5 -69t-71.5 -20q-21 0 -43 7t-40 25
q-19 17 -31.5 43.5t-12.5 63.5q0 39 23 93.5t62 114.5t90.5 123.5t108.5 126.5q63 -66 117 -129.5t93 -122.5q39 -60 62 -112t23 -91z" />
    <glyph glyph-name="uni2661" unicode="&#x2661;"
d="M819 610q0 -70 -29 -141t-73 -137q-45 -69 -99 -131.5t-104 -116.5q-54 54 -107.5 118t-97.5 133q-43 69 -70 142t-27 146q0 35 9.5 65t30.5 55q20 24 47.5 36.5t62.5 12.5q36 0 61.5 -9.5t43.5 -24.5q17 -16 28 -38.5t20 -48.5q21 57 53.5 89t99.5 32q29 0 56 -11
t48 -34q21 -22 34 -57t13 -80zM762 595q0 62 -24.5 101t-78.5 39q-24 0 -40.5 -12t-28.5 -30t-19 -40.5t-10 -40.5q-6 -24 -19 -36t-27 -12q-15 -1 -28.5 10t-19.5 35q-3 8 -6 18t-6 21q-3 10 -7 20.5t-8 20.5q-10 18 -25.5 32t-38.5 14q-55 0 -81 -32.5t-26 -94.5
q0 -60 24.5 -122.5t61.5 -119.5q36 -60 79 -110.5t80 -86.5l1 -1q33 36 75 88t81 110q38 57 64.5 116t26.5 113z" />
    <glyph glyph-name="club" unicode="&#x2663;"
d="M852 392q0 -30 -10.5 -58t-28.5 -49q-21 -22 -49.5 -35.5t-67.5 -13.5q-61 0 -103 35t-50 92q-6 -3 -7 -14t2 -37q6 -58 27.5 -102.5t45.5 -77.5v-25h-207v29q24 33 44.5 77t29.5 102q3 21 1.5 32.5t-4.5 14.5q-12 -64 -56.5 -95t-97.5 -31q-39 0 -68.5 13t-47.5 35
q-21 21 -30 49t-8 58q0 29 10 57t29 50q20 21 49.5 35t69.5 14q36 0 64 -13t43 -28q3 0 5 2.5t3 5.5q-25 9 -43.5 26.5t-29.5 42.5q-12 24 -16 49t0 51q3 24 14.5 46.5t31.5 42.5q20 19 48.5 29t67.5 10q36 0 63 -10t46 -30q18 -20 29.5 -42.5t15.5 -47.5q3 -26 -1.5 -51.5
t-16.5 -49.5q-12 -25 -31 -42.5t-44 -26.5q0 -3 2.5 -5.5t5.5 -2.5q7 6 17 13.5t24 14.5q14 6 32.5 11t42.5 5q38 0 67 -14t48 -35q18 -22 28.5 -50.5t10.5 -55.5z" />
    <glyph glyph-name="uni2664" unicode="&#x2664;"
d="M798 346q0 -63 -38.5 -95.5t-97.5 -32.5q-19 0 -40 5.5t-44 18.5q3 -33 14 -61.5t32 -64.5v-30h-222v27q15 30 27.5 63t16.5 63q-27 -15 -50.5 -23t-44.5 -8q-15 -1 -36.5 5t-41.5 24q-21 17 -36 45t-15 71q0 35 13.5 70t46.5 84q15 23 36 51.5t48 63.5q27 36 61.5 79
t76.5 96q42 -52 77 -94.5t64 -78.5t51.5 -65.5t39.5 -54.5q33 -51 47.5 -87t14.5 -71zM740 354q0 27 -22 68.5t-55 89.5q-34 45 -74.5 96t-82.5 103q-10 -14 -19.5 -27t-19.5 -26t-19.5 -25t-18.5 -24l-71 -91q-34 -46 -56 -87t-22 -74q0 -42 20.5 -67t50.5 -27
q11 -3 25.5 2.5t29.5 12.5l52 31q24 2 34 -9.5t10 -40.5q-3 -30 -10 -57.5t-19 -57.5v-4h80v6q-15 27 -23.5 56.5t-8.5 57.5q-1 24 10 36.5t29 12.5q3 -1 8 -3.5l9 -4.5q2 -2 4.5 -3.5t4.5 -3.5q3 -1 5 -2t4 -1q11 -6 27 -12t37 -9q9 -3 23 0.5t27 13.5q12 9 21.5 26t9.5 44
z" />
    <glyph glyph-name="heart" unicode="&#x2665;"
d="M838 603q0 -57 -32.5 -126t-80.5 -140q-49 -72 -106 -138.5t-105 -114.5q-51 48 -106.5 115t-102.5 140q-48 72 -78.5 144t-30.5 135q0 36 12.5 67.5t34.5 55.5q23 23 54 37t70 14q33 0 58 -9t43 -23q17 -15 27.5 -32t19.5 -34q8 18 19.5 35t29.5 32q18 12 42 21.5
t58 9.5q33 0 65 -12t56 -36t38.5 -59t14.5 -82z" />
    <glyph glyph-name="uni2667" unicode="&#x2667;"
d="M859 379q0 -36 -12.5 -67t-33.5 -52q-21 -24 -47.5 -36t-55.5 -12q-33 0 -62.5 11.5t-50.5 30.5q-9 6 -10.5 1.5t-1.5 -10.5q0 -8 0.5 -14t1.5 -12t2.5 -11.5t3.5 -10.5q3 -12 6.5 -22.5t9.5 -22.5l7 -24v-31h-200v30q0 6 2 13t5 13l10 26q2 7 4.5 14.5t4.5 16.5
q2 8 4.5 17t5.5 20q0 11 -6 11t-11 -5q-27 -24 -52 -34.5t-58 -10.5q-30 0 -57.5 10t-48.5 31t-33.5 51t-12.5 69q0 32 10 61t29 51q18 21 45.5 34.5t63.5 13.5q13 0 25.5 -3t25.5 -7q12 -5 26 -10.5t29 -11.5q6 -3 9 -1.5t-3 10.5q-30 24 -54.5 59t-24.5 89q0 24 9.5 50.5
t30.5 47.5q20 21 50 34.5t72 13.5q36 0 65.5 -13.5t50.5 -34.5t32.5 -48.5t11.5 -54.5q0 -28 -6 -50t-18 -37q-12 -16 -25 -30t-25 -26q-6 -9 -0.5 -10.5t11.5 2.5q20 15 48 26t59 11q36 0 61.5 -14t43.5 -37q17 -22 25.5 -50t8.5 -55zM802 376q0 51 -25 79t-61 28
q-15 0 -28 -4.5t-25 -10.5l-48 -26q-16 -9 -33 -5t-28 16q-12 11 -14.5 29t9.5 42l49 52q9 14 16 30t7 40q0 19 -8 36.5t-23 32.5t-33 23t-38 8q-42 0 -74.5 -24t-32.5 -68q0 -28 8 -47t21 -34q6 -8 12.5 -15t14.5 -15q7 -7 14.5 -15t15.5 -17q6 -18 2.5 -33.5t-12.5 -26.5
q-9 -12 -23.5 -16.5t-29.5 1.5q-9 1 -16 4t-14 7q-6 3 -11.5 6.5t-11.5 7.5q-12 6 -26.5 11t-34.5 5q-37 0 -64 -29.5t-27 -76.5q0 -58 30 -82.5t66 -24.5q30 0 57.5 16t57.5 43t44 16t17 -46q0 -30 -5.5 -65t-17.5 -83h72q-2 2 -3 7t-2 12t-2.5 15.5t-2.5 18.5
q-3 18 -5.5 40.5t-1.5 41.5q0 20 2.5 35.5t11.5 22.5q8 6 21.5 1.5t34.5 -22.5q26 -25 48.5 -37t55.5 -12q15 0 31 6.5t32 20.5q15 14 23 34t8 47z" />
    <glyph glyph-name="uni2668" unicode="&#x2668;"
d="M686 413q0 -8 -1 -14l-2 -12l13 20q27 -7 55 -19t52 -29q23 -18 37.5 -39t14.5 -45q0 -78 -84.5 -127.5t-251.5 -49.5q-69 0 -131 10t-107 31q-46 20 -72.5 51.5t-26.5 74.5q0 27 15.5 50.5t42.5 42.5q26 18 61 32.5t74 23.5l8 -27q-25 -10 -47 -22.5t-40 -26.5
q-18 -15 -27 -28.5t-9 -26.5q0 -18 11.5 -33t41.5 -27q29 -12 77 -19t120 -7q57 0 107 7t87 20q36 12 57 29.5t21 38.5q0 14 -10.5 26.5t-25.5 24.5q-8 5 -16 9.5t-16 9.5q-9 4 -17 8t-15 9q-3 -21 -10.5 -37t-15.5 -31q-5 -8 -8.5 -14.5t-6.5 -12.5t-5.5 -11.5t-3.5 -10.5
q-6 -12 -9 -25.5t-5 -28.5h-24q-12 26 -11.5 51.5t6.5 50.5q2 13 5 25.5t6 25.5t5 25.5t2 26.5q0 11 -1.5 21t-2.5 20q-2 9 -4.5 19t-5.5 21q-6 18 -11 38t-5 50q0 18 3.5 32.5t9.5 29.5l27 57q3 9 7.5 21t7.5 30h23q9 -24 9 -44t-3 -40q-2 -11 -4 -21t-3 -20
q-2 -10 -3 -20.5t-1 -20.5q0 -24 5.5 -45t12.5 -42q3 -11 6 -21.5t6 -21.5l4 -22t2 -21zM584 413q0 -15 -3.5 -29t-9.5 -27q-5 -14 -11.5 -26t-12.5 -24l-27 -51q-6 -12 -9.5 -25t-5.5 -28h-28q-9 33 -5.5 58t9.5 49q3 10 6.5 21t6.5 23t5 25t2 28q0 17 -4 35t-9 36
q-3 9 -6 17.5t-5 17.5q-3 9 -5.5 18t-3.5 18q-10 42 -3.5 71t27.5 68q15 27 21 47t7 56l28 -4q9 -24 12.5 -42t3.5 -36q-1 -9 -2.5 -17.5t-2.5 -17.5q-2 -9 -4.5 -19t-3.5 -20q-3 -12 -4 -21.5t-1 -21.5q0 -24 4.5 -42.5t13.5 -39.5q1 -5 2.5 -9.5t3.5 -9.5q2 -6 3.5 -11
t3.5 -11q3 -12 5 -25.5t2 -30.5zM468 403q0 -30 -9.5 -53.5t-21.5 -41.5q-8 -14 -14 -25.5t-10 -22.5q-5 -11 -8 -23t-4 -28h-24q-12 24 -11.5 50t6.5 51q3 12 6 24.5t6 25.5t5 26t2 27q0 9 -1.5 19.5t-3.5 20.5l-10 39q-2 4 -3.5 9.5t-3.5 11.5q-1 5 -2.5 11t-2.5 13
q-3 12 -4 25.5t-1 29.5q0 17 4 31t10 27l6 12t7 12t7.5 13t6.5 15l7 21t7 30h24q9 -24 9 -44t-3 -40q-2 -11 -4 -21t-3 -20q-2 -10 -3 -20.5t-1 -20.5q0 -24 5 -47t12 -46q6 -22 12 -45t6 -46z" />
    <glyph glyph-name="uni2669" unicode="&#x2669;"
d="M589 125q0 -27 -13.5 -56.5t-34.5 -55.5q-21 -25 -49.5 -42t-58.5 -17q-45 0 -61 23.5t-7 56.5q5 20 18 39t31 34q17 14 37.5 23t41.5 10l12 -1h13q9 0 11.5 1.5t2.5 10.5v667h57v-693z" />
    <glyph glyph-name="musicalnote" unicode="&#x266a;"
d="M685 578q51 -60 54.5 -120.5t-22.5 -114.5q-27 -55 -72.5 -100.5t-92.5 -69.5l-22 19q23 18 47 43.5t43 53.5q18 27 31 54.5t13 51.5q0 38 -21 67.5t-51 53.5q-15 12 -31.5 23t-31.5 23q-16 11 -30.5 22.5t-26.5 23.5v-460q0 -31 -15 -62.5t-39 -57.5
q-24 -27 -53.5 -42.5t-58.5 -15.5q-46 0 -62 22.5t-6 55.5q6 20 18.5 38t32.5 33q19 15 39.5 23.5t42.5 11.5l26 -2q6 0 13 1t7 7v663h25q24 -43 54 -73.5t61 -57.5q16 -14 32 -27t32 -27q15 -14 31 -29t33 -31z" />
    <glyph glyph-name="uni266C" unicode="&#x266c;"
d="M805 266q0 -24 -14.5 -54.5t-35.5 -57.5q-24 -28 -51.5 -47t-56.5 -19q-27 0 -49 15t-25 43q-4 21 7.5 45.5t30.5 46.5q18 21 41.5 37t44.5 22q4 1 8.5 1.5t9.5 0.5q4 0 8.5 0.5t9.5 2.5q9 0 15 3.5t6 12.5v219l-407 -91v-260q0 -36 -13.5 -72.5t-39.5 -66.5
q-25 -30 -61 -49t-81 -19q-31 0 -46.5 21.5t-9.5 51.5q3 23 19.5 44t37.5 37q21 17 45.5 27.5t48.5 16.5q4 1 9 1.5t9 1.5q5 0 9 1t7 3q6 3 10 10.5t4 22.5v504l510 111v-566zM754 665v31l-407 -92v-35z" />
    <glyph glyph-name="uni266D" unicode="&#x266d;"
d="M677 425q0 -55 -20.5 -107.5t-59.5 -97.5t-98 -79t-134 -49v664h53v-262q36 36 81 48t85 3q39 -12 66 -42t27 -78zM575 394q0 45 -19 71t-43 26q-30 0 -53.5 -19t-41.5 -43v-273q30 15 58.5 40t49.5 56q21 32 35 67.5t14 74.5z" />
    <glyph glyph-name="uni3001" unicode="&#x3001;"
d="M181 -69l-85 188l50 2l114 -188z" />
    <glyph glyph-name="uni3002" unicode="&#x3002;"
d="M215 128q-31 0 -46 -20t-15 -43q0 -24 15 -44t46 -20q30 0 46.5 20t16.5 44q0 23 -16.5 43t-46.5 20zM215 172q27 0 47.5 -8.5t34.5 -25.5t21 -35t7 -38q0 -42 -28 -75t-82 -33q-55 0 -81 33t-26 75q0 20 6.5 38t19.5 35q12 17 32.5 25.5t48.5 8.5z" />
    <glyph glyph-name="uni3003" unicode="&#x3003;"
d="M552 389h-53l79 342h77zM401 389h-53l80 342h77z" />
    <glyph glyph-name="uni3008" unicode="&#x3008;"
d="M665 504l190 263h83l-187 -263l189 -269h-85z" />
    <glyph glyph-name="uni3009" unicode="&#x3009;"
d="M377 505l-191 -270h-84l190 270l-188 262h82z" />
    <glyph glyph-name="uni300A" unicode="&#x300a;"
d="M717 504l152 263h67l-151 -263l152 -269h-68zM594 504l151 263h67l-149 -263l151 -269h-69z" />
    <glyph glyph-name="uni300B" unicode="&#x300b;"
d="M325 504l-152 -269h-69l152 269l-150 263h67zM449 504l-153 -269h-68l152 269l-150 263h66z" />
    <glyph glyph-name="uni300C" unicode="&#x300c;"
d="M935 859v-65h-133v-300h-67v365h200z" />
    <glyph glyph-name="uni300D" unicode="&#x300d;"
d="M89 -121v64h134v300h67v-364h-201z" />
    <glyph glyph-name="uni300E" unicode="&#x300e;"
d="M951 763h-133v-211h-100v310h233v-99zM919 797v32h-167v-244h32v212h135z" />
    <glyph glyph-name="uni300F" unicode="&#x300f;"
d="M91 -29h133v211h101v-310h-234v99zM124 -63v-31h167v243h-33v-212h-134z" />
    <glyph glyph-name="uni3010" unicode="&#x3010;"
d="M759 218v610h199v-17q-36 -19 -61 -50.5t-42 -69.5q-18 -39 -25.5 -83t-7.5 -89t8 -88.5t26 -81.5q17 -37 43 -67t60 -45l-1 -19h-199z" />
    <glyph glyph-name="uni3011" unicode="&#x3011;"
d="M300 218h-201l1 18q33 15 58 44t43 68q17 36 26 80.5t9 89.5t-9 89t-26 83q-18 39 -43.5 70.5t-58.5 50.5v17h201v-610z" />
    <glyph glyph-name="uni3013" unicode="&#x3013;"
d="M886 587h-713v55h713v-55zM886 333h-713v55h713v-55z" />
    <glyph glyph-name="uni3014" unicode="&#x3014;"
d="M757 275v475l181 95v-73l-118 -56v-408l118 -58v-70z" />
    <glyph glyph-name="uni3015" unicode="&#x3015;"
d="M289 275l-181 -95v70l117 58v408l-117 56v73l181 -95v-475z" />
    <glyph glyph-name="uni3041" unicode="&#x3041;" horiz-adv-x="708"
d="M198 195q15 3 30.5 7.5t30.5 13.5l-2 95q-22 -15 -41 -34.5t-28 -40.5q-6 -15 -5.5 -28.5t15.5 -12.5zM387 346q-15 0 -26.5 -1.5t-23.5 -3.5l-1 -65q7 7 13.5 15.5t13.5 17.5l12 18t12 19zM257 390v57l-44 -7q-13 -2 -23.5 -3t-21.5 -1q-10 0 -21 1.5t-24 6.5l-14 69
q18 -6 41.5 -7.5t51.5 2.5l55 9v107h80v-94l147 23q9 -34 0 -53.5t-35 -23.5l-112 -17v-45q18 3 38.5 4t42.5 -1q1 4 2.5 8t2.5 8t2 7.5t2 8.5l74 -26l-9 -23q1 -1 2 -1t3 -1q1 0 2 -0.5l3 -1.5q51 -24 77 -61t26 -91q0 -32 -13 -59.5t-39 -50.5q-26 -24 -60.5 -35
t-77.5 -11l-68 64q5 -3 16 -3.5t28 0.5q17 0 31.5 3t26.5 9q30 12 50 35.5t20 54.5q0 29 -16 50.5t-42 31.5q-21 -39 -50 -75.5t-71 -66.5q1 -5 1.5 -8.5t1.5 -6.5t2 -5.5t3 -3.5l-67 -11q-19 -9 -40.5 -16t-45.5 -12q-15 -3 -30 -0.5t-31 9.5t-24 22t-8 37q0 33 12 63
t37 55q24 24 50.5 43.5t55.5 32.5z" />
    <glyph glyph-name="uni3042" unicode="&#x3042;" horiz-adv-x="856"
d="M224 227q20 2 39.5 7t40.5 17l-2 133q-33 -21 -62.5 -51.5t-37.5 -66.5q-3 -19 2 -27.5t20 -11.5zM397 423v-14q0 -11 -0.5 -22.5t-0.5 -22.5v-23.5t1 -21.5q24 23 44.5 51t38.5 61q-24 0 -45 -2.5t-38 -5.5zM302 480v81l-62 -10q-33 -6 -59.5 -6t-59.5 12l-19 80
q23 -6 53.5 -9t69.5 3l77 12v144h95v-128l199 31q11 -40 -1.5 -63t-48.5 -29l-149 -23v-65q26 3 55 5t62 -1l11 41l92 -32l-11 -32q3 0 6.5 -1.5t6.5 -3.5q68 -30 101 -80t33 -118q0 -42 -17 -78t-50 -66q-34 -31 -79 -46.5t-102 -15.5l-88 76q8 -4 24.5 -5t41.5 0
q24 1 45 5.5t37 12.5q39 18 65 48.5t26 75.5q0 39 -23.5 69.5t-59.5 46.5q-27 -54 -68 -106.5t-103 -93.5q2 -12 5 -21.5t6 -15.5l-94 -16l-3 8q-25 -9 -52 -17t-57 -11q-15 -3 -31.5 1t-34.5 13t-27 26.5t-9 44.5q0 44 15.5 82.5t46.5 72.5q30 33 64 58.5t71 43.5z" />
    <glyph glyph-name="uni3043" unicode="&#x3043;" horiz-adv-x="726"
d="M130 585l77 -34q-12 -30 -18 -72.5t-6 -96.5q0 -55 10.5 -99.5t32.5 -77.5q8 -13 20.5 -20t28.5 2q24 11 40 32.5t25 40.5q2 -16 10 -39t20 -37q-5 -11 -14 -22.5t-23 -23.5q-15 -13 -28.5 -21.5t-26.5 -11.5q-19 -6 -37 -3.5t-33 12.5q-27 15 -45.5 37.5t-28.5 52.5
q-11 30 -17.5 59.5t-9.5 59.5q-4 28 -4 62t4 73q3 39 8.5 71t14.5 56zM418 438l58 38q53 -33 94 -90t53 -122l-75 -30q-12 54 -44.5 106t-85.5 98z" />
    <glyph glyph-name="uni3044" unicode="&#x3044;" horiz-adv-x="901"
d="M140 738l88 -42q-16 -49 -24 -110.5t-8 -135.5q0 -75 13.5 -132.5t41.5 -96.5q18 -27 37.5 -31t43.5 2q15 5 29.5 15t26.5 26q12 15 21.5 29.5t16.5 27.5q3 -27 13 -49.5t19 -37.5q-6 -15 -18 -30t-30 -31q-19 -16 -37 -26.5t-36 -15.5q-25 -6 -49 -3.5t-45 14.5
q-36 20 -60 49t-38 68q-14 38 -23 78t-14 82q-5 39 -5 84.5t6 97.5q5 51 12.5 93t18.5 75zM540 542l68 46q27 -21 56.5 -51t59.5 -70t48.5 -81t25.5 -82l-91 -33q-16 72 -63 142.5t-104 128.5z" />
    <glyph glyph-name="uni3045" unicode="&#x3045;" horiz-adv-x="504"
d="M161 567l53 60q41 0 84.5 -13t79.5 -45l-48 -62q-37 33 -76 46.5t-93 13.5zM102 438l119 33q21 3 43 1t34 -5q45 -15 74 -52.5t29 -87.5q0 -90 -53.5 -153t-137.5 -84l-84 47q41 3 73.5 17t57.5 38q24 24 38.5 51.5t18.5 57.5q2 21 -0.5 36.5t-14.5 30.5t-28 21.5
t-40 4.5l-97 -27z" />
    <glyph glyph-name="uni3046" unicode="&#x3046;" horiz-adv-x="605"
d="M193 731l61 69q56 0 112 -21t102 -63l-54 -73q-48 51 -99 69t-122 19zM102 543l151 44q27 9 60.5 6.5t51.5 -8.5q60 -18 98.5 -69.5t38.5 -120.5q0 -59 -18 -109t-53 -92q-36 -42 -81.5 -70.5t-101.5 -42.5l-92 51q50 9 92.5 29.5t77.5 53.5q35 32 54.5 69t24.5 79
q3 27 -2 53.5t-22 50.5q-15 21 -44.5 31t-55.5 7q-18 -3 -37.5 -9t-37.5 -12q-19 -6 -36 -12.5t-30 -10.5z" />
    <glyph glyph-name="uni3047" unicode="&#x3047;" horiz-adv-x="713"
d="M287 234l-139 -147l-44 64l241 262l-213 -17l-30 72l353 29l38 -46l-145 -152h13q27 -1 44 -18.5t17 -38.5l-2 -32q0 -13 5.5 -20.5t17.5 -10.5q11 -3 21.5 -3.5t22.5 -0.5q32 0 65.5 4.5t57.5 19.5l-31 -89q-31 -6 -59.5 -9t-64.5 -2l-31 2l-31 4q-24 6 -40 20t-16 38
v38q0 12 -9 24t-21 12q-4 0 -7 -0.5t-5 -1.5q-2 0 -4.5 -0.5t-3.5 -0.5zM199 615h256v-79h-211z" />
    <glyph glyph-name="uni3048" unicode="&#x3048;" horiz-adv-x="851"
d="M374 299h-6h-5q-3 0 -5.5 -0.5t-5.5 -1.5l-192 -203l-41 79l337 359l-324 -29l-30 81l454 39l50 -59l-186 -197l21 -1q27 -4 43 -21.5t20 -41.5q0 -13 -1.5 -30.5t-3.5 -29.5q-3 -21 6 -31t25 -13q51 -10 112 -4.5t106 26.5l-32 -98q-40 -9 -76.5 -12.5t-84.5 -2.5l-40 3
l-39 7q-28 9 -50 27t-22 46q0 7 1 15.5t1 16.5q1 9 1.5 17t0.5 16q0 15 -8 27.5t-26 15.5zM225 776h331v-82h-280z" />
    <glyph glyph-name="uni3049" unicode="&#x3049;" horiz-adv-x="731"
d="M436 478l35 56q54 0 94 -25.5t61 -52.5l-46 -65q-24 39 -63 61.5t-81 25.5zM256 164v103q-18 -12 -31.5 -25t-19.5 -27q-6 -12 -1 -24t17 -18q4 -3 8.5 -5t8.5 -3q5 0 9 -0.5t9 -0.5zM256 497v122h84v-109q24 5 44 13t32 17v-86q-13 -12 -34 -18t-42 -9v-44q38 9 89 11.5
t99 -14.5q54 -19 76.5 -58t20.5 -80q-1 -34 -15.5 -60.5t-41.5 -45.5q-28 -20 -58 -25t-62 4q-27 7 -47 23t-32 41q-13 24 -17 49t2 50l75 20q-5 -19 -4 -37.5t8 -35.5q6 -18 19.5 -26.5t32.5 -8.5q18 0 36 16t18 44q0 21 -14.5 41t-47.5 26q-30 6 -62.5 3t-74.5 -15v-217
q-9 -1 -27 -1.5t-45 0.5q-28 0 -51 6t-41 18q-33 20 -48 43t-8 65q2 18 12.5 36.5t31.5 37.5q20 18 43 34t49 28v64l-139 -8l-15 80q24 0 66 1t88 5z" />
    <glyph glyph-name="uni304A" unicode="&#x304a;" horiz-adv-x="885"
d="M537 606l39 68q80 -4 126.5 -38t74.5 -76l-53 -73q-33 51 -83.5 82t-103.5 37zM248 194q11 -6 24 -10.5t28 -4.5v157q-27 -15 -48 -35.5t-27 -41.5q-7 -21 0.5 -38.5t22.5 -26.5zM300 621v165h99v-150q33 8 62.5 19.5t47.5 27.5v-94q-21 -15 -51 -25.5t-59 -16.5v-74
q24 6 53 9.5t64 6.5q35 2 68 -2.5t64 -15.5q72 -27 102.5 -78t28.5 -102q-1 -44 -19.5 -78.5t-54.5 -58.5q-37 -25 -75.5 -32.5t-79.5 4.5q-36 9 -62 30t-41 55q-16 33 -19 64.5t6 61.5l88 26q-5 -25 -5 -49.5t5 -48.5q4 -24 20.5 -38t44.5 -19q16 -3 32 2t31 17t22.5 30
t7.5 42q0 33 -23.5 61t-71.5 38q-42 9 -86 5t-100 -24v-289q-16 -3 -40.5 -2.5t-57.5 3.5t-59.5 11t-45.5 21q-42 27 -61.5 55.5t-12.5 76.5q3 27 18 53.5t42 50.5q26 24 55.5 43.5t62.5 35.5v99l-184 -12l-14 86l49 1l92 4q6 0 12.5 0.5t14.5 0.5q7 1 14.5 1.5t15.5 2.5z
" />
    <glyph glyph-name="uni304B" unicode="&#x304b;" horiz-adv-x="901"
d="M550 547l72 36q42 -21 74 -54.5t54 -80.5q21 -48 33 -82.5t15 -55.5l-82 -54q-6 41 -20 81.5t-35 80.5q-22 39 -50 71.5t-61 57.5zM284 593l62 190l84 -36l-49 -154h35q21 0 40.5 -8t37.5 -23q18 -16 27 -36.5t9 -44.5q0 -29 -2.5 -63t-5.5 -73q-4 -40 -11.5 -77.5
t-18.5 -72.5q-10 -33 -43 -63.5t-78 -36.5l-61 68q23 0 50.5 16.5t40.5 43.5q11 26 17.5 58t9.5 71q2 38 3 68t1 53q0 14 -10 26t-25 12h-43l-140 -427l-90 18l134 409h-126l-30 82h182z" />
    <glyph glyph-name="uni304C" unicode="&#x304c;" horiz-adv-x="927"
d="M579 699l47 31q15 -6 31.5 -17t34.5 -27q17 -17 29.5 -32t21.5 -28l-51 -46q-6 13 -17.5 29.5t-29.5 36.5q-19 19 -35.5 32.5t-30.5 20.5zM659 751l47 32q15 -6 31.5 -17t34.5 -27q17 -16 30 -31t22 -29l-52 -45q-6 12 -17.5 28.5t-29.5 36.5q-19 20 -35.5 33t-30.5 19z
M525 539l70 36q41 -21 72 -54t52 -79q21 -47 32.5 -80.5t14.5 -53.5l-80 -51q-6 39 -19 78.5t-34 78.5q-21 38 -48 69.5t-60 55.5zM278 583l61 185l82 -35l-49 -150h35q21 0 39.5 -7.5t36.5 -22.5q17 -15 26 -34.5t9 -43.5q0 -28 -2.5 -61t-5.5 -71q-4 -39 -11.5 -75.5
t-17.5 -71.5q-6 -16 -17 -31t-26 -30q-16 -15 -35.5 -23.5t-40.5 -10.5l-59 65q23 0 49.5 16.5t38.5 41.5t18.5 56.5t8.5 68.5q2 36 3 66t1 52q0 12 -9.5 24.5t-24.5 12.5h-42l-135 -414l-88 17l130 397h-122l-29 79h176z" />
    <glyph glyph-name="uni304D" unicode="&#x304d;" horiz-adv-x="774"
d="M407 527l-16 70l-192 -16l-44 85q27 -3 57.5 -2t69.5 4l88 8l-27 110h98l26 -102l128 12l11 -81l-119 -10l16 -70l154 12l14 -80q-2 0 -14 -1.5t-32 -3.5q-20 -1 -46 -3.5t-55 -3.5l34 -130l-35 -34q-24 14 -56.5 21.5t-71.5 10.5q-40 2 -72 -4.5t-55 -20.5
q-12 -9 -24.5 -24t-12.5 -33q0 -19 11.5 -36t33.5 -26q35 -12 79.5 -16.5t98.5 -0.5q54 3 89 10t52 17l17 -84q-19 -6 -41.5 -10.5t-48.5 -6.5q-27 -3 -46 -4t-31 -1l-74 2q-27 1 -52.5 4.5t-48.5 9.5q-57 15 -94.5 49.5t-37.5 89.5q0 54 38 89.5t93 53.5q41 14 85 16.5
t86 -2.5l-13 52l-158 -12q-37 -4 -66.5 -4.5t-59.5 8.5l-41 86q24 -9 58.5 -12t73.5 0z" />
    <glyph glyph-name="uni304E" unicode="&#x304e;" horiz-adv-x="915"
d="M567 707l47 31q15 -6 31.5 -17t34.5 -27q17 -16 29.5 -31t21.5 -29l-51 -46q-6 13 -17.5 29.5t-29.5 36.5q-19 20 -35.5 33t-30.5 20zM647 759l47 32q15 -6 31.5 -17t34.5 -27q17 -16 30 -31t22 -29l-52 -45q-6 12 -17.5 28.5t-29.5 36.5q-19 20 -35.5 33t-30.5 19z
M231 507l171 15q-6 27 -11.5 47l-5.5 20l-188 -15l-43 82q26 -3 55.5 -2t68.5 5l88 8l-27 108h95l25 -100l125 11l12 -79l-118 -10l18 -68l149 12l13 -79l-143 -12l33 -127l-34 -34q-24 14 -55.5 21.5t-70.5 10.5q-40 2 -71 -4.5t-52 -20.5q-13 -9 -24.5 -23.5t-11.5 -32.5
t10 -34.5t34 -24.5q33 -12 76.5 -16.5t96.5 -1.5q52 3 86.5 10t51.5 17l18 -83q-19 -6 -41 -10.5t-48 -6.5q-26 -3 -44.5 -4t-30.5 -1l-73 3q-27 1 -51.5 4.5t-47.5 9.5q-57 14 -93 47.5t-36 87.5t36 88.5t93 52.5q39 12 83 15t86 -2l-13 51l-156 -12q-36 -3 -65 -3.5
t-59 8.5l-40 83q24 -7 57 -10.5t72 -0.5z" />
    <glyph glyph-name="uni304F" unicode="&#x304f;" horiz-adv-x="564"
d="M461 729l-228 -282q80 -78 133.5 -157t92.5 -145l-74 -58q-28 47 -62 96.5t-73 102.5q-40 52 -77 91t-71 66l278 340z" />
    <glyph glyph-name="uni3050" unicode="&#x3050;" horiz-adv-x="808"
d="M461 666l47 31q15 -6 31 -17t34 -27q18 -17 30.5 -32t21.5 -28l-52 -46q-6 13 -17.5 29.5t-29.5 36.5q-19 19 -35 32.5t-30 20.5zM541 719l47 31q15 -6 31.5 -17t34.5 -27q17 -16 29.5 -31t21.5 -29l-51 -45q-6 12 -18 28.5t-30 36.5q-19 20 -35 33t-30 20zM454 724
l-224 -275q78 -78 130.5 -154t91.5 -142l-72 -57q-27 45 -60 94t-72 101q-39 51 -76 89.5t-70 63.5l272 334z" />
    <glyph glyph-name="uni3051" unicode="&#x3051;" horiz-adv-x="875"
d="M519 519h-221v82h221v185h97v-185h156v-82h-156v-176q0 -48 -13 -88.5t-39 -75.5q-27 -35 -59 -56t-70 -28l-84 49q34 6 63.5 24t54.5 47q24 28 37 64t13 80v160zM127 786l94 -15l-14 -189q-7 -88 -8 -150t5 -98q4 6 8.5 16t10.5 21q5 11 11.5 22t14.5 20
q-16 -60 -22.5 -137t6.5 -161l-92 13q-6 19 -12 47.5t-13 67.5q-8 38 -11 78.5t0 85.5z" />
    <glyph glyph-name="uni3052" unicode="&#x3052;" horiz-adv-x="955"
d="M125 759l92 -14l-14 -183q-7 -86 -8 -146t5 -95q4 7 8.5 17t10.5 20q5 11 11 21.5t14 18.5q-16 -58 -22 -132.5t7 -158.5l-88 15q-6 18 -13 46t-13 65q-7 36 -10 76t0 84zM606 723l47 31q15 -6 32 -17t35 -27q17 -16 29.5 -31t21.5 -29l-51 -45q-6 12 -18 28.5t-30 36.5
q-19 20 -35.5 33t-30.5 20zM687 776l46 31q15 -6 32 -16.5t35 -26.5q17 -17 30 -32t22 -29l-52 -44q-6 12 -18 28t-30 36t-34.5 33t-30.5 20zM505 500h-213v79h213v180h95v-180h151v-79h-151v-170q0 -46 -13 -86.5t-38 -73.5q-25 -34 -56.5 -54t-67.5 -26l-82 48
q33 6 61.5 22.5t52.5 44.5q24 27 36 62.5t12 77.5v155z" />
    <glyph glyph-name="uni3053" unicode="&#x3053;" horiz-adv-x="840"
d="M213 634l-31 82q13 -6 31.5 -10.5t42.5 -7.5q23 -3 41.5 -4t31.5 -1h328v-82h-292l-75 3q-24 1 -43 6t-34 14zM102 363l79 49q-1 -53 12.5 -87.5t40.5 -51.5q27 -18 56 -26t60 -8h343q15 0 26 1t18 4v-87h-363q-27 0 -68 3t-74 15q-24 6 -46 22t-43 41q-21 24 -31 55.5
t-10 69.5z" />
    <glyph glyph-name="uni3054" unicode="&#x3054;" horiz-adv-x="969"
d="M702 751l46 32q15 -6 32 -17t35 -27q17 -16 29.5 -31t21.5 -29l-51 -45q-6 12 -18 28.5t-30 36.5q-19 20 -35 33t-30 19zM621 699l47 31q15 -6 31.5 -17t34.5 -27q17 -17 30 -32t22 -28l-52 -46q-6 13 -17.5 29.5t-29.5 36.5q-19 19 -35.5 32.5t-30.5 20.5zM211 601
l-31 81q12 -6 30 -10.5t42 -7.5q23 -3 41 -4t31 -1h322v-81h-287l-73 3q-24 1 -42.5 6t-32.5 14zM102 335l77 48q-1 -51 12 -85t40 -50q27 -17 55.5 -25t58.5 -8h336q15 0 26 1t17 3v-85h-356q-25 0 -65.5 2.5t-73.5 14.5q-23 6 -44.5 22t-41.5 41q-21 24 -31 54.5t-10 66.5
z" />
    <glyph glyph-name="uni3055" unicode="&#x3055;" horiz-adv-x="788"
d="M297 582l91 24q-15 45 -23.5 90.5t-10.5 90.5h91q2 -39 9 -79t22 -79l180 47l29 -81l-179 -46q24 -54 56 -100t69 -79l-43 -71q-43 24 -82 35t-74 9q-36 -2 -58.5 -4.5t-33.5 -5.5q-9 -3 -18.5 -8.5t-21.5 -13.5q-12 -9 -18 -20t-6 -26q-1 -36 14 -53.5t42 -26.5
q36 -12 71.5 -16.5t69.5 -1.5t59.5 8t41.5 12l38 -74q-20 -8 -37.5 -12t-34.5 -7q-16 -3 -31.5 -4t-28.5 -2q-10 -1 -28 -0.5t-42 3.5q-25 2 -48.5 5.5t-46.5 9.5q-60 15 -94.5 53t-36.5 92q0 51 30.5 91.5t97.5 64.5q38 12 83 14t82 -4q-18 26 -33 54t-27 56l-101 -25
q-16 -4 -37 -8t-45 -7q-25 -4 -48 -3t-43 7l-41 83q15 -5 37 -6.5t51 -0.5q29 0 55.5 4t51.5 11z" />
    <glyph glyph-name="uni3056" unicode="&#x3056;" horiz-adv-x="939"
d="M591 731l47 32q15 -6 31.5 -17.5t34.5 -27.5q17 -16 30 -31t22 -28l-52 -46q-6 12 -17.5 28.5t-29.5 36.5q-19 20 -35.5 33t-30.5 20zM671 784l47 31q15 -6 32 -16.5t35 -26.5q17 -17 29.5 -32t21.5 -29l-51 -44q-6 12 -18 28.5t-30 36.5q-19 19 -35.5 32t-30.5 20z
M292 557l90 23q-15 45 -24 90t-9 87h89q0 -39 8 -77.5t20 -76.5l178 46l29 -80l-176 -44q24 -54 55.5 -98.5t67.5 -77.5l-42 -70l-5 4q-21 13 -48 23t-62 16q-36 6 -68 3.5t-61 -13.5q-7 -2 -16 -7t-21 -13q-12 -9 -18.5 -20.5t-6.5 -25.5q-1 -36 13 -53t41 -26
q36 -12 70.5 -16t68.5 -1q33 3 57.5 7.5t40.5 11.5l37 -72q-36 -13 -69 -18t-60 -7q-10 -1 -26.5 -0.5t-40.5 3.5q-24 2 -47.5 6t-46.5 10q-57 14 -91.5 51t-36.5 89q0 51 30 91t96 64q36 12 79 13.5t82 -4.5q-18 26 -32.5 53t-26.5 55l-98 -25q-16 -4 -36.5 -7.5
t-44.5 -6.5q-25 -3 -47 -2.5t-42 5.5l-40 82q15 -5 36.5 -6.5t49.5 -0.5q28 0 54 4t50 11z" />
    <glyph glyph-name="uni3057" unicode="&#x3057;" horiz-adv-x="732"
d="M102 771h97v-540q0 -21 12 -32.5t25 -11.5q68 0 127.5 14t110.5 42q51 27 89.5 59t65.5 68v-115q-28 -29 -66.5 -56t-86.5 -51q-49 -25 -114.5 -37t-146.5 -12q-25 0 -45.5 8t-35.5 25q-16 17 -24 37t-8 44v558z" />
    <glyph glyph-name="uni3058" unicode="&#x3058;" horiz-adv-x="770"
d="M503 751l47 32q15 -6 31.5 -17t34.5 -27q17 -16 29.5 -31t21.5 -29l-51 -45q-6 12 -18 28.5t-30 36.5q-19 20 -35 33t-30 19zM423 699l46 31q15 -6 31.5 -17t34.5 -27q18 -17 30.5 -32t21.5 -28l-52 -46q-6 13 -17.5 29.5t-29.5 36.5q-19 19 -35 32.5t-30 20.5zM102 755
h94v-531q0 -18 12 -30t25 -12q66 0 124.5 13.5t109.5 40.5q50 27 88 58.5t65 67.5v-115q-28 -28 -65.5 -54t-85.5 -50t-112.5 -36t-144.5 -12q-49 0 -79.5 32t-30.5 80v548z" />
    <glyph glyph-name="uni3059" unicode="&#x3059;" horiz-adv-x="862"
d="M406 572h-304v82h304v132h98v-132h255v-82h-255v-134q9 -12 15 -28t9 -34q6 -25 5.5 -58.5t-9.5 -66.5q-9 -34 -25 -61.5t-39 -48.5q-24 -22 -42.5 -35.5t-32.5 -18.5l-94 32q21 6 40.5 19.5t38.5 33.5q18 19 30 37t16 34q-34 -8 -65.5 -2.5t-59.5 23.5q-29 18 -43 44
t-14 60q0 32 10 57t31 43t44 27.5t50 11.5q6 0 18 -1t19 -3v69zM372 324q9 0 18 3.5t16 10.5v72q-7 6 -16 10t-18 4q-21 0 -36.5 -14.5t-15.5 -35.5t15.5 -35.5t36.5 -14.5z" />
    <glyph glyph-name="uni305A" unicode="&#x305a;" horiz-adv-x="908"
d="M367 311q8 0 17 3.5t15 9.5v71q-6 6 -15 9.5t-17 3.5q-21 0 -36.5 -14t-15.5 -35t15.5 -34.5t36.5 -13.5zM496 634h171q-9 13 -21 28t-28 32q-17 17 -31.5 28t-26.5 17l47 32q15 -6 31.5 -17.5t34.5 -26.5q17 -16 29.5 -31t21.5 -29l-37 -33h74v-81h-265v-130
q9 -12 14 -28t9 -33q6 -27 5.5 -59t-9.5 -64q-9 -33 -24 -60t-38 -48q-24 -21 -42 -34.5t-32 -19.5l-92 32q20 6 39.5 19.5t38.5 32.5q18 18 29 36t15 34q-34 -8 -65 -2.5t-58 23.5q-28 18 -41.5 43.5t-13.5 58.5q0 30 9.5 54.5t30.5 42.5q20 18 43 27.5t49 11.5q6 0 18 -1
t18 -4v68h-297v81h297v129h97v-129zM640 792l47 31q15 -6 31.5 -16.5t34.5 -26.5q17 -17 30 -32t22 -29l-52 -44q-6 12 -17.5 28.5t-29.5 36.5q-19 19 -35.5 32t-30.5 20z" />
    <glyph glyph-name="uni305B" unicode="&#x305b;" horiz-adv-x="897"
d="M352 490v-250q0 -16 11 -29.5t29 -13.5h210q27 0 59.5 1.5t50.5 10.5v-94h-344q-49 0 -81.5 34t-32.5 83v246l-140 -16l-12 84l152 18v208l98 -19v-178l191 23v181l99 -9v-162l52 7v24q21 -9 48.5 -13t51.5 2v-86l-152 -18v-117q0 -52 -28 -80t-72 -40q-9 -3 -20.5 -4.5
t-26.5 -1.5q-16 -1 -28 0.5t-21 5.5l-41 82q18 -9 43.5 -9t41.5 3q29 3 41 19t12 41v89z" />
    <glyph glyph-name="uni305C" unicode="&#x305c;" horiz-adv-x="977"
d="M348 488v-244q0 -16 10 -29t29 -13h206q27 0 58 2t49 9v-91h-337q-48 0 -80 33t-32 81v240l-136 -15l-13 82l149 18v205l97 -19v-175l187 23v176l96 -9v-157l52 6v24q20 -9 47.5 -13t49.5 2v-85l-149 -17v-114q0 -51 -28 -78.5t-69 -38.5q-8 -3 -19.5 -4.5t-26.5 -1.5
q-15 -1 -27.5 0.5t-21.5 5.5l-40 80q18 -9 43 -9t41 3q27 3 39.5 18.5t12.5 39.5v87zM629 764l46 31q15 -6 32 -17t35 -27q17 -16 30 -31t22 -29l-52 -45q-6 12 -18 28.5t-30 36.5t-34.5 33t-30.5 20zM709 817l46 31q15 -6 32 -16.5t35 -26.5q17 -17 30 -32t22 -29l-52 -45
q-6 12 -18 28.5t-30 36.5t-34.5 33t-30.5 20z" />
    <glyph glyph-name="uni305D" unicode="&#x305d;" horiz-adv-x="908"
d="M275 483l217 213h-241l-37 83h351l64 -74l-207 -195l340 61l43 -76l-274 -52q-13 -6 -25 -14t-23 -20q-19 -19 -32 -47t-13 -52q0 -31 13 -55.5t37 -39.5q24 -18 51.5 -27t58.5 -11t53 -0.5t34 7.5l-40 -93l-75 6q-28 3 -53.5 9.5t-48.5 16.5q-66 29 -95 76t-29 107
q0 27 9 56t30 53l-255 -47l-26 90q10 -1 24.5 0t32.5 4z" />
    <glyph glyph-name="uni305E" unicode="&#x305e;" horiz-adv-x="951"
d="M271 474l213 209h-236l-36 81h344l62 -73l-202 -191l332 61l42 -75l-268 -50q-13 -6 -24.5 -14.5t-23.5 -19.5q-18 -19 -30.5 -46t-12.5 -51q0 -30 13.5 -54.5t34.5 -39.5q24 -17 51.5 -26t58.5 -11q30 -2 51 0t33 8l-39 -92l-73 6q-28 3 -53 9.5t-47 16.5
q-64 29 -93.5 75t-29.5 104q0 26 10 54t29 53l-250 -46l-25 87q9 -1 23.5 0t32.5 4zM603 747l47 32q15 -6 31.5 -17t34.5 -27q17 -16 30 -31t22 -29l-52 -45q-6 12 -17.5 28t-29.5 37q-19 20 -35.5 33t-30.5 19zM683 801l47 31q15 -6 32 -17t35 -27q17 -17 29.5 -32
t21.5 -28l-51 -45q-6 12 -18 28.5t-30 36.5q-19 19 -35.5 32.5t-30.5 20.5z" />
    <glyph glyph-name="uni305F" unicode="&#x305f;" horiz-adv-x="897"
d="M366 231l15 106q12 -36 34 -62t52 -43q30 -18 61 -26t64 -8h194l-40 -82h-158q-78 0 -136.5 29t-85.5 86zM519 542l41 62q69 6 132 -20t102 -65l-55 -67q-45 45 -101 64.5t-119 25.5zM357 543l-153 -446l-83 54l133 386h-124l-28 82h180l58 168l91 -28l-45 -129
q29 6 54.5 15.5t49.5 25.5l-27 -96q-21 -12 -49 -20.5t-57 -11.5z" />
    <glyph glyph-name="uni3060" unicode="&#x3060;" horiz-adv-x="920"
d="M359 231l16 104q27 -69 85.5 -102.5t121.5 -33.5h191l-41 -80h-154q-75 0 -133.5 27.5t-85.5 84.5zM511 535l40 62q33 3 66 -2t64 -18q30 -13 55 -29.5t44 -34.5l-53 -65q-45 44 -99 62.5t-117 24.5zM351 536l-149 -437l-82 54l131 378h-121l-28 80h177l56 164l89 -26
l-44 -128q27 6 52.5 16t49.5 25l-26 -93q-21 -13 -49.5 -21.5t-55.5 -11.5zM572 723l47 31q15 -6 31.5 -17t34.5 -27q17 -16 29.5 -31t21.5 -29l-51 -45q-6 12 -17.5 28.5t-29.5 36.5q-19 20 -35.5 33t-30.5 20zM652 776l47 31q15 -6 31.5 -16.5t34.5 -26.5q17 -17 30 -32
t22 -29l-52 -44q-6 12 -17.5 28t-29.5 36q-19 20 -35.5 33t-30.5 20z" />
    <glyph glyph-name="uni3061" unicode="&#x3061;" horiz-adv-x="855"
d="M420 627l113 33q23 6 49.5 18.5t38.5 28.5l43 -78q-9 -7 -22.5 -14.5t-31.5 -15.5q-19 -8 -37 -14t-35 -10l-121 -35l-3 -105q36 15 80.5 25.5t99.5 7.5q29 -2 54.5 -12.5t46.5 -28.5q21 -19 33.5 -42t15.5 -50q6 -60 -17.5 -98.5t-65.5 -70.5q-42 -30 -86.5 -47
t-70.5 -23l-80 -11q-27 -3 -52.5 -1.5t-49.5 7.5l-61 76q57 -7 110 -5.5t104 12.5q50 10 88 30.5t64 50.5q4 6 8.5 13t8.5 16q3 9 4.5 19.5t0.5 22.5q-6 27 -22 41.5t-42 18.5q-63 8 -129.5 -19t-125.5 -74l-39 40q9 24 16.5 51t10.5 58q2 15 3 32.5t1 38.5l-8 -2
q-10 -4 -27.5 -8t-43.5 -8q-26 -5 -50.5 -3.5t-47.5 10.5l-43 81q27 -9 55.5 -11t58.5 3t50 9t32 7l28 8l5 188h95z" />
    <glyph glyph-name="uni3062" unicode="&#x3062;" horiz-adv-x="934"
d="M415 620l109 32q24 6 49.5 18.5t37.5 28.5l41 -77q-15 -13 -51.5 -28.5t-72.5 -24.5l-116 -34l-4 -103q36 15 80 25.5t96 7.5q59 -3 100 -40t47 -90q6 -58 -17 -97.5t-65 -69.5q-39 -30 -84 -46t-69 -22q-13 -3 -32.5 -5.5t-45.5 -4.5q-27 -3 -52 -2t-49 7l-59 74
q56 -7 108.5 -5t101.5 12t86 30t62 50q4 5 8.5 12t8.5 16t5.5 19t0.5 22q-6 27 -22.5 41t-40.5 17q-63 9 -127.5 -18t-121.5 -72l-39 39q9 24 16 50.5t10 56.5q1 7 1.5 15.5t0.5 17.5q1 9 1 18t1 19l-7 -2q-10 -4 -27.5 -8t-42.5 -8q-25 -5 -49.5 -3.5t-47.5 10.5l-42 80
q27 -9 54.5 -11t57.5 3q29 4 49 8t32 7l27 9q2 54 4 105t2 78h92zM586 739l47 32q15 -6 31.5 -17.5t34.5 -26.5q18 -16 30.5 -31t21.5 -29l-52 -46q-6 12 -18 28.5t-30 37.5q-18 20 -34.5 33t-30.5 19zM667 792l46 31q15 -6 31.5 -16.5t34.5 -26.5q18 -17 30.5 -32t21.5 -29
l-51 -44q-6 12 -18 28.5t-30 36.5q-19 19 -35 32t-30 20z" />
    <glyph glyph-name="uni3063" unicode="&#x3063;" horiz-adv-x="743"
d="M102 457l109 69q23 14 50 27.5t60 25.5q32 12 67.5 17t74.5 2q80 -7 128.5 -57.5t48.5 -122.5q0 -54 -23 -93.5t-68 -65.5t-94.5 -35t-103.5 -1l-72 72q83 -9 135.5 0.5t80.5 30.5q27 18 40 43.5t13 61.5q0 32 -26.5 58t-64.5 29q-43 2 -82 -7t-75 -29q-36 -21 -73 -43.5
t-74 -46.5z" />
    <glyph glyph-name="uni3064" unicode="&#x3064;" horiz-adv-x="909"
d="M102 506l144 90q30 19 66 37t78 34t88 22t97 2q52 -4 94 -23t74 -52q31 -33 47 -73.5t16 -87.5q0 -69 -30 -121t-89 -85q-60 -34 -124.5 -46t-133.5 -3l-82 80q59 -6 104.5 -5.5t78.5 6.5q32 6 57.5 16.5t46.5 25.5q38 27 55.5 59.5t17.5 83.5q0 24 -10.5 46.5
t-30.5 43.5q-21 21 -43.5 33.5t-48.5 15.5q-60 6 -114.5 -5.5t-103.5 -39.5q-49 -29 -99 -60t-100 -64z" />
    <glyph glyph-name="uni3065" unicode="&#x3065;" horiz-adv-x="970"
d="M702 816l46 31q15 -6 31.5 -16.5t34.5 -26.5q18 -17 31 -32t22 -29l-52 -44q-6 12 -18 28t-30 36t-34.5 33t-30.5 20zM622 763l46 31q15 -6 31.5 -17t34.5 -27t30.5 -31t21.5 -29l-51 -45q-6 12 -18 28.5t-30 36.5q-19 20 -35 33t-30 20zM102 505l141 89q29 18 64 35.5
t77 33.5q41 15 86 21t95 2q51 -4 92 -22.5t72 -50.5q30 -33 46 -72.5t16 -85.5q0 -69 -29.5 -119t-86.5 -83q-58 -33 -121 -45t-131 -3l-81 79q58 -6 103 -6t76 6q30 5 55.5 15.5t46.5 25.5q38 27 55 58.5t17 82.5q0 23 -10 45t-30 43q-21 21 -43.5 33t-48.5 15
q-58 5 -111 -6.5t-101 -38.5q-48 -28 -97 -58t-99 -63z" />
    <glyph glyph-name="uni3066" unicode="&#x3066;" horiz-adv-x="866"
d="M763 687l-78 -9q-57 -7 -105.5 -31t-87.5 -65q-40 -42 -59.5 -86.5t-19.5 -92.5q0 -66 19.5 -111.5t59.5 -72.5q39 -27 89 -39t110 -9l-41 -78q-75 -3 -135 17t-104 62q-45 41 -67 95t-22 121q0 42 11 81t33 75q21 35 44.5 62t48.5 45l-246 -32q-12 -2 -22.5 -3.5
t-21.5 -3.5q-10 -2 -20.5 -4.5t-20.5 -6.5l-26 89l647 78z" />
    <glyph glyph-name="uni3067" unicode="&#x3067;" horiz-adv-x="911"
d="M643 579l47 32q15 -6 31.5 -17t34.5 -27q17 -16 30 -31t22 -29l-52 -45q-6 12 -17.5 28.5t-29.5 36.5q-19 20 -35.5 33t-30.5 19zM563 527l47 31q15 -6 31.5 -17t34.5 -27q17 -17 29.5 -32t21.5 -28l-51 -46q-6 13 -17.5 29.5t-29.5 36.5q-19 19 -35.5 32.5t-30.5 20.5z
M763 687l-78 -9q-57 -7 -105.5 -31t-87.5 -65q-40 -42 -59.5 -86.5t-19.5 -92.5q0 -66 19.5 -111.5t59.5 -72.5q39 -27 89 -39t110 -9l-41 -78q-75 -3 -135 17t-104 62q-45 41 -67 95t-22 121q0 42 11 81t33 75q21 35 44.5 62t48.5 45l-246 -32q-12 -2 -22.5 -3.5
t-21.5 -3.5q-10 -2 -20.5 -4.5t-20.5 -6.5l-26 89l647 78z" />
    <glyph glyph-name="uni3068" unicode="&#x3068;" horiz-adv-x="753"
d="M263 444l25 11q-9 29 -15.5 65t-6.5 72v187h98v-184q0 -28 4 -56t11 -51l217 83l43 -82l-376 -144q-6 -3 -15 -9t-21 -16t-18 -22.5t-6 -26.5q0 -30 19.5 -45t37.5 -21q35 -13 79.5 -19.5t98.5 -5.5q54 0 100 7.5t85 21.5l27 -89q-19 -7 -48 -12.5t-67 -8.5
q-39 -4 -69.5 -5.5t-53.5 -1.5q-24 0 -70.5 5t-94.5 18q-60 17 -102.5 56t-42.5 96q0 30 11 56.5t35 49.5q23 23 52 40.5t63 30.5z" />
    <glyph glyph-name="uni3069" unicode="&#x3069;" horiz-adv-x="799"
d="M532 751l47 32q15 -6 31.5 -17t34.5 -27q17 -16 29.5 -31t21.5 -29l-51 -45q-6 12 -18 28.5t-30 36.5q-19 20 -35 33t-30 19zM452 699l47 31q15 -6 31.5 -17t34.5 -27q17 -17 29.5 -32t21.5 -28l-51 -46q-6 13 -18 29.5t-30 36.5q-19 19 -35 32.5t-30 20.5zM260 435
l27 10q-12 30 -17.5 65.5t-5.5 69.5v185h97v-182q0 -27 4 -54t11 -50l213 81l43 -81l-371 -141q-6 -3 -14.5 -9t-20.5 -16t-18 -22.5t-6 -26.5q0 -28 19.5 -43t37.5 -21q33 -13 76.5 -19t97.5 -5q53 0 98.5 7t84.5 21l27 -88q-19 -7 -47.5 -12t-66.5 -8q-39 -4 -69 -5.5
t-52 -1.5q-24 0 -70 4.5t-93 17.5q-30 8 -55 21.5t-46 33.5t-31.5 43.5t-10.5 51.5q0 30 11 56.5t35 48.5q23 22 51 39.5t61 29.5z" />
    <glyph glyph-name="uni306A" unicode="&#x306a;" horiz-adv-x="877"
d="M428 167q48 0 66 21.5t18 66.5q-24 5 -49 4t-46 -15q-12 -6 -20.5 -17t-8.5 -23q0 -15 14 -26t26 -11zM512 403q0 41 20 78t50 65q-21 9 -43 16.5t-43 10.5l54 60q51 -3 109 -31t109 -70l-55 -68q-10 9 -24.5 19.5t-29.5 20.5q-22 -18 -35.5 -44.5t-13.5 -56.5v-79
q19 -6 41 -15t47 -22q24 -14 43.5 -26.5t32.5 -24.5l-49 -73q-18 21 -52.5 42t-61.5 30q0 -57 -42 -97.5t-108 -46.5q-42 -4 -76.5 8t-58.5 34q-30 27 -31.5 68t34.5 80q23 24 68.5 42.5t114.5 15.5v64zM292 657l37 130l97 -24l-28 -89q10 2 21.5 4.5t22.5 5.5t22.5 6
t23.5 7v-87q-15 -9 -47.5 -19t-73.5 -16l-39 -124q-12 -40 -25.5 -75t-27.5 -64q-15 -30 -40.5 -61.5t-63.5 -64.5l-69 61q44 33 78.5 90t59.5 142l24 85q-33 -1 -65 -1t-56 4l-22 88q36 -4 79.5 -4t91.5 6z" />
    <glyph glyph-name="uni306B" unicode="&#x306b;" horiz-adv-x="847"
d="M326 221v82q15 -30 33.5 -47t40.5 -23q21 -6 45 -8.5t51 -2.5h248v-83h-292q-54 0 -90 21.5t-36 60.5zM330 664h291l54 3q16 1 28 3.5t19 6.5v-82q-10 -4 -24.5 -6.5t-32.5 -3.5l-70 -3h-164q-28 0 -46 2t-24 17zM150 770l94 -27q-21 -60 -32 -125.5t-11 -137.5
q-1 -72 3.5 -129t13.5 -99q5 14 17 33.5t27 37.5q-15 -57 -17 -114.5t10 -117.5h-91l-30 122q-10 42 -16 84.5t-8 85.5q-6 99 5 192t35 195z" />
    <glyph glyph-name="uni306C" unicode="&#x306c;" horiz-adv-x="896"
d="M528 177q14 -2 28.5 2t29.5 14q15 9 24.5 20t13.5 24q-8 6 -19.5 12t-26.5 10q-16 4 -29.5 4.5t-24.5 -2.5q-18 -6 -29 -18t-11 -23q0 -24 14.5 -32.5t29.5 -10.5zM245 220q11 8 21.5 26.5t19.5 36.5q-18 17 -34 35.5t-28 36.5q-19 -33 -27 -66t1 -62q6 -18 17.5 -20
t29.5 13zM321 383l35 112q-18 -12 -35 -26.5t-34 -31.5q4 -8 8 -15t9 -14q4 -6 8 -12.5t9 -12.5zM393 612l51 160l94 -25l-35 -108q48 1 86.5 -9.5t66.5 -33.5q27 -23 46 -44t28 -39q21 -42 26.5 -83.5t-3.5 -81.5l-21 -85q8 -6 17 -16t19 -22q9 -13 15.5 -23.5t9.5 -18.5
l-48 -81q-3 8 -9.5 19t-15.5 26q-10 14 -19 24.5t-15 16.5q-13 -22 -33.5 -39t-47.5 -29q-27 -13 -58 -16t-64 4q-39 9 -62 36t-23 60q0 45 30 77.5t75 45.5q19 6 40 6.5t45 -2.5q23 -4 40 -10t28 -12q1 3 2 8t2 12q2 6 3.5 14t3.5 18q3 18 1 40t-9 47q-12 36 -38 63t-53 36
q-25 8 -49 8.5t-45 -5.5l-80 -246q-18 -54 -42.5 -91.5t-44.5 -57.5q-24 -24 -49 -35.5t-54 -7.5q-25 3 -47.5 17t-40.5 50q-7 14 -10.5 33t-2.5 43q0 24 3.5 44t9.5 36q12 32 27.5 59.5t33.5 51.5q-25 68 -32 140.5t-7 147.5l98 -14q-4 -52 0 -102t16 -92q36 29 72 51
t69 35z" />
    <glyph glyph-name="uni306D" unicode="&#x306d;" horiz-adv-x="900"
d="M542 199q14 0 27.5 4t26.5 13q13 8 18.5 18.5t3.5 22.5q-2 6 -11 10.5t-26 5.5q-18 0 -31.5 -1.5t-23.5 -4.5q-9 -4 -19.5 -13.5t-10.5 -23.5q0 -15 15 -23t31 -8zM546 543q-21 -2 -45.5 -14t-51.5 -33q-28 -22 -51 -44.5t-41 -43.5v-317h-99v228l-100 -151l-56 67
l156 296l-138 -8l-18 84l156 10v169l99 -33v-126l51 -35l-51 -68l4 -5q20 20 46.5 40t59.5 41q33 20 66.5 26.5t68.5 0.5q33 -7 55.5 -22.5t34.5 -39.5q11 -24 17 -48t6 -48v-174q11 -6 23.5 -17t25.5 -26q12 -16 20.5 -28.5t12.5 -21.5l-45 -83q-2 11 -7.5 23.5t-14.5 27.5
q-10 14 -19 23.5t-17 15.5q-10 -25 -31 -43t-53 -27q-33 -10 -63 -10t-57 10q-39 14 -58 38.5t-19 54.5q0 36 28.5 64.5t73.5 40.5q21 6 51 4.5t51 -4.5v145q0 30 -19.5 45.5t-51.5 15.5z" />
    <glyph glyph-name="uni306E" unicode="&#x306e;" horiz-adv-x="880"
d="M238 284l207 345h-4q-49 0 -92 -16.5t-79 -48.5q-37 -33 -55 -74t-18 -89q0 -34 11.5 -64t29.5 -53zM541 607l-277 -467q-72 42 -114.5 106.5t-44.5 155.5q-3 68 22.5 124t79.5 101q53 44 113.5 66t129.5 22q63 0 119.5 -22.5t107.5 -67.5q50 -45 75 -100.5t25 -121.5
q0 -64 -24 -117t-71 -94q-48 -42 -105 -64.5t-123 -25.5l-77 69q63 1 116.5 17t96.5 47q43 30 65 72t23 96q0 69 -39 123t-98 81z" />
    <glyph glyph-name="uni306F" unicode="&#x306f;" horiz-adv-x="887"
d="M472 185q18 0 29 8t14 25q3 16 4.5 31t1.5 30q-11 5 -24.5 7.5t-30.5 3.5q-18 0 -30.5 -2t-20.5 -5q-15 -7 -23.5 -19t-5.5 -26q3 -28 28 -40.5t58 -12.5zM144 779l91 -28q-12 -57 -20 -119.5t-13 -129.5q-6 -68 -4.5 -124t10.5 -101q3 9 14.5 23.5t21.5 23.5
q-7 -18 -11 -43t-4 -57q-1 -33 4 -64t15 -61h-92q-15 36 -30 84.5t-20 124.5q-3 50 -1 110.5t9 130.5t14.5 127.5t15.5 102.5zM521 550l-240 -13v82l240 13v131h99v-126l137 7v-81l-137 -7v-213q3 -1 7 -2.5t7 -3.5q56 -25 95.5 -66t54.5 -71l-60 -74q-4 13 -14.5 29.5
t-27.5 36.5q-18 19 -33 32.5t-29 21.5q0 -67 -40 -108t-106 -41q-54 0 -90.5 19t-62.5 49q-16 18 -23.5 40.5t-6.5 48.5q1 25 11.5 46t29.5 37q23 20 72.5 31t116.5 2v180z" />
    <glyph glyph-name="uni3070" unicode="&#x3070;" horiz-adv-x="947"
d="M464 189q18 0 29 8t14 24t4.5 31t1.5 28q-22 11 -55.5 11t-48.5 -6q-15 -9 -23.5 -19.5t-5.5 -25.5q3 -27 28 -39t56 -12zM143 771l89 -27q-11 -57 -19 -118t-13 -127q-6 -66 -5 -121t10 -99q3 9 14.5 23t21.5 23q-7 -18 -11 -42t-4 -56q-1 -33 4 -63t15 -59h-91
q-15 33 -29.5 81.5t-19.5 123.5q-3 48 -0.5 107.5t9.5 128.5q6 69 13.5 125t15.5 100zM513 370v176l-236 -12v80l236 13v127h96v-123l135 8v-80l-135 -8v-208q1 0 3 -1t3 -2q2 0 3.5 -1t3.5 -1q27 -12 51 -28.5t43 -36.5q19 -21 32.5 -38t22.5 -32l-59 -72q-5 12 -15.5 28.5
t-26.5 35.5q-16 18 -31.5 31.5t-29.5 22.5q0 -66 -38.5 -106t-104.5 -40q-51 0 -88.5 18t-61.5 48q-16 18 -23 40.5t-6 47.5q0 24 10.5 44.5t29.5 36.5q21 18 70.5 29.5t115.5 2.5zM599 768l46 31q15 -6 32 -17t35 -27q17 -16 29.5 -31t21.5 -29l-51 -45q-6 12 -18 28.5
t-30 36.5q-19 20 -35 33t-30 20zM679 821l46 31q15 -6 32 -16.5t35 -26.5q17 -17 30 -32t22 -29l-52 -45q-6 13 -18 29.5t-30 36.5q-18 19 -34.5 32t-30.5 20z" />
    <glyph glyph-name="uni3071" unicode="&#x3071;" horiz-adv-x="924"
d="M464 186q18 0 29 8t14 24t4.5 31t1.5 28q-22 9 -55.5 10.5t-48.5 -6.5q-15 -7 -23.5 -18.5t-5.5 -25.5q3 -27 28 -39t56 -12zM772 751q0 20 -15 34t-33 14q-19 0 -33 -14t-14 -34q0 -18 14 -32t33 -14q18 0 33 14t15 32zM626 751q0 41 29 69.5t69 28.5q39 0 68 -28.5
t29 -69.5q0 -39 -29 -67.5t-68 -28.5q-40 0 -69 28.5t-29 67.5zM143 768l89 -27q-11 -57 -19 -118.5t-13 -127.5q-6 -66 -5 -121t10 -99q3 11 14.5 24.5t21.5 22.5q-7 -18 -11 -42.5t-4 -56.5q-1 -32 4 -62t15 -59h-91q-15 33 -29.5 81.5t-19.5 123.5q-3 48 -0.5 107.5
t9.5 128.5q6 69 13.5 125t15.5 100zM513 367v176l-236 -12v80l236 12v128h96v-123l135 7v-79l-135 -8v-208l13 -5q27 -12 51 -28.5t43 -36.5q19 -21 32.5 -38t22.5 -32l-59 -73q-5 13 -15.5 29.5t-26.5 35.5q-16 18 -31.5 31.5t-29.5 21.5q0 -66 -38.5 -106t-104.5 -40
q-51 0 -88.5 18t-61.5 49q-16 18 -23 40t-6 47q0 24 10.5 45t29.5 37q21 18 70.5 29.5t115.5 2.5z" />
    <glyph glyph-name="uni3072" unicode="&#x3072;" horiz-adv-x="902"
d="M375 688l32 -39q-24 -24 -49.5 -55.5t-52.5 -72.5t-41 -88t-14 -101q-1 -27 5 -52t18 -48q12 -24 36.5 -38t62.5 -19q54 -6 92 24.5t59 75.5q24 53 31.5 113t-0.5 127q-9 66 -25 122.5t-39 102.5l72 43l237 -248l-33 -97l-107 87h32l-60 66q20 -69 18 -150.5t-32 -171.5
q-15 -46 -42 -81.5t-66 -59.5q-39 -25 -81.5 -32.5t-88.5 1.5q-51 10 -87 34.5t-57 63.5q-22 38 -29.5 83.5t-0.5 97.5q6 57 27 108t49 94q-28 -9 -62.5 -14.5t-76.5 -5.5v83q69 0 135.5 19t121.5 59z" />
    </font>
</defs>
</svg>
